<?xml version="1.0" encoding="utf-8"?>
<!-- Generator: Adobe Illustrator 26.3.0, SVG Export Plug-In . SVG Version: 6.00 Build 0)  -->
<svg version="1.1" id="Layer_1" xmlns="http://www.w3.org/2000/svg" xmlns:xlink="http://www.w3.org/1999/xlink" x="0px" y="0px"
	 viewBox="0 0 541 85" style="enable-background:new 0 0 541 85;" xml:space="preserve">
<style type="text/css">
	.st0{fill:#FF9D28;}
	.st1{fill:#68C5ED;}
	.st2{fill:#044D80;}
	.st3{fill:#E54747;}
	.st4{fill:#F0B72B;}
	.st5{fill:url(#SVGID_1_);}
	.st6{fill:url(#SVGID_00000165946949276996598950000014249714915231224710_);}
	.st7{fill:url(#SVGID_00000090288454839889254750000018334909872965730438_);}
	.st8{fill:url(#SVGID_00000020377711690272615270000015468043829136446363_);}
	.st9{fill:#00A99D;}
</style>
<path class="st0" d="M205,26.4h12.9h7.8v-7.7L205,26.4z"/>
<path class="st1" d="M225.7,18.7V46l9.8-31L225.7,18.7z"/>
<path class="st2" d="M225.7,26.4h-7.8l7.8,19.6V26.4z"/>
<path class="st3" d="M205,26.4l14.9,5l-2-5H205z"/>
<path class="st2" d="M252.4,38.8c-0.1,0.1-0.3,0.3-0.6,0.4c-0.3,0.2-0.6,0.4-1,0.5s-0.9,0.3-1.6,0.4c-0.6,0.1-1.3,0.2-2.1,0.2
	c-1.5,0-2.9-0.3-4-0.7c-1.1-0.5-2-1.2-2.8-2.1c-0.7-0.9-1.3-1.9-1.6-3.1c-0.4-1.2-0.5-2.5-0.5-4s0.2-2.8,0.6-4
	c0.4-1.2,0.9-2.3,1.7-3.2c0.7-0.9,1.7-1.6,2.8-2.1s2.4-0.7,3.9-0.7c0.7,0,1.4,0.1,2,0.2s1.1,0.3,1.6,0.5c0.4,0.2,0.8,0.4,1.1,0.6
	s0.5,0.4,0.7,0.5s0.3,0.3,0.4,0.5c0.1,0.2,0.2,0.4,0.2,0.7c0,0.4-0.1,0.7-0.4,1.1c-0.3,0.4-0.6,0.7-0.9,1.1
	c-0.2-0.2-0.5-0.5-0.8-0.7s-0.6-0.4-1-0.6s-0.7-0.3-1.2-0.4c-0.4-0.1-0.9-0.2-1.5-0.2c-1,0-1.8,0.2-2.4,0.6
	c-0.7,0.4-1.2,0.9-1.6,1.5c-0.4,0.6-0.7,1.3-0.8,2.1c-0.2,0.8-0.3,1.6-0.3,2.5s0.1,1.7,0.3,2.6s0.5,1.5,0.9,2.2
	c0.4,0.6,1,1.1,1.6,1.5c0.7,0.4,1.5,0.6,2.5,0.6c0.5,0,1-0.1,1.5-0.2c0.4-0.1,0.8-0.3,1.2-0.5s0.6-0.4,0.9-0.6
	c0.3-0.2,0.5-0.4,0.6-0.5c0.1,0.1,0.2,0.3,0.4,0.5s0.3,0.4,0.4,0.6c0.1,0.2,0.2,0.4,0.4,0.6c0.1,0.2,0.1,0.4,0.1,0.6
	c0,0.3,0,0.4-0.1,0.6C252.8,38.4,252.6,38.6,252.4,38.8z M267,36.6c0,1.5,0.2,2.6,0.7,3.3c-0.4,0.1-0.7,0.2-1,0.3
	c-0.3,0-0.6,0.1-0.9,0.1c-0.7,0-1.2-0.1-1.5-0.4c-0.4-0.3-0.6-0.7-0.7-1.1c-0.4,0.4-1,0.8-1.7,1.1s-1.5,0.4-2.5,0.4
	c-0.5,0-1-0.1-1.5-0.2c-0.5-0.1-1-0.4-1.4-0.7s-0.7-0.7-1-1.3c-0.3-0.5-0.4-1.2-0.4-2c0-1,0.2-1.8,0.7-2.4c0.5-0.6,1.1-1.1,1.8-1.4
	c0.7-0.4,1.5-0.6,2.3-0.7s1.6-0.2,2.2-0.3c0.2,0,0.4,0,0.7,0h0.6v-0.5c0-0.7-0.2-1.2-0.6-1.6c-0.4-0.3-1-0.5-1.9-0.5
	c-0.8,0-1.5,0.1-2.2,0.4c-0.6,0.3-1.3,0.6-1.9,0.9c-0.3-0.3-0.5-0.7-0.6-1.1c-0.2-0.4-0.2-0.7-0.2-0.9c0-0.3,0.1-0.5,0.4-0.8
	s0.7-0.5,1.2-0.7s1.1-0.4,1.8-0.5c0.7-0.1,1.4-0.2,2.1-0.2c1,0,1.9,0.1,2.6,0.3c0.7,0.2,1.3,0.5,1.7,1c0.4,0.4,0.8,1,1,1.6
	c0.2,0.7,0.3,1.4,0.3,2.3L267,36.6z M263.4,33.3H263c-0.1,0-0.3,0-0.4,0c-0.5,0-0.9,0.1-1.4,0.2c-0.5,0.1-0.9,0.2-1.2,0.4
	c-0.4,0.2-0.7,0.4-0.9,0.7c-0.2,0.3-0.4,0.7-0.4,1.2s0.1,1,0.4,1.4s0.8,0.6,1.5,0.6c0.4,0,0.7,0,1-0.1s0.6-0.2,0.9-0.4
	s0.4-0.3,0.6-0.5c0.1-0.2,0.2-0.4,0.2-0.5L263.4,33.3L263.4,33.3z M274.1,27.7c0.3-0.4,0.8-0.7,1.4-1.1c0.7-0.4,1.4-0.6,2.4-0.6
	c0.7,0,1.4,0.1,2,0.4c0.6,0.2,1.2,0.6,1.7,1.1s0.9,1.2,1.2,2.1c0.3,0.9,0.4,1.9,0.4,3.2c0,1.5-0.2,2.7-0.5,3.7
	c-0.4,1-0.8,1.7-1.3,2.3s-1.1,1-1.8,1.2c-0.7,0.2-1.3,0.4-2,0.4c-0.5,0-1-0.1-1.4-0.2c-0.4-0.1-0.7-0.3-1-0.4
	c-0.3-0.1-0.5-0.3-0.7-0.4c-0.1-0.1-0.3-0.3-0.3-0.3v7h-3.9V26.5c0.1,0,0.2,0,0.4,0c0.1,0,0.3,0,0.4,0c0.2,0,0.3,0,0.5,0
	c0.6,0,1.2,0.1,1.6,0.3C273.7,26.9,274,27.2,274.1,27.7z M279.2,33c0-0.6,0-1.1-0.1-1.6s-0.3-0.9-0.5-1.3s-0.5-0.6-0.9-0.8
	c-0.4-0.2-0.8-0.3-1.4-0.3c-0.8,0-1.4,0.2-1.7,0.4c-0.3,0.3-0.5,0.6-0.5,1v6.1c0.1,0.2,0.4,0.3,0.8,0.5s0.8,0.3,1.4,0.3
	c1,0,1.7-0.4,2.1-1.1C279,35.4,279.2,34.4,279.2,33z M286.3,37.9c-0.1-0.4-0.2-0.8-0.3-1.2c0-0.4,0-0.8,0-1.3V22.2
	c0.1,0,0.3,0,0.4,0s0.3,0,0.4,0s0.3,0,0.4,0c0.3,0,0.6,0,0.9,0.1c0.3,0,0.6,0.2,0.8,0.4c0.3,0.2,0.4,0.4,0.6,0.7
	c0.1,0.3,0.2,0.7,0.2,1.1v2h4v2.9h-4v6.1c0,1.3,0.5,2,1.6,2c0.3,0,0.5,0,0.7-0.1s0.4-0.2,0.6-0.3s0.4-0.2,0.5-0.3s0.2-0.2,0.3-0.3
	c0.3,0.4,0.5,0.8,0.7,1.1c0.1,0.3,0.2,0.6,0.2,0.9c0,0.3-0.1,0.5-0.3,0.7c-0.2,0.2-0.5,0.5-0.8,0.7c-0.4,0.2-0.8,0.4-1.3,0.5
	s-1.1,0.2-1.7,0.2c-1.2,0-2.1-0.2-2.8-0.7C287,39.2,286.5,38.6,286.3,37.9z M303.7,37.5c0.5,0,0.9,0,1.3-0.2c0.4-0.1,0.7-0.2,1-0.4
	c0.3-0.1,0.5-0.3,0.7-0.5s0.4-0.4,0.6-0.5c0.2,0.3,0.5,0.7,0.7,1.1c0.3,0.4,0.4,0.8,0.4,1.1c0,0.4-0.2,0.8-0.7,1.1
	c-0.4,0.3-1,0.6-1.7,0.8s-1.6,0.3-2.6,0.3c-0.9,0-1.8-0.1-2.6-0.4c-0.9-0.2-1.6-0.6-2.3-1.2c-0.7-0.6-1.2-1.3-1.6-2.3
	s-0.6-2.2-0.6-3.6c0-1.2,0.2-2.2,0.6-3.1s0.9-1.6,1.5-2.2s1.3-1,2.1-1.3c0.8-0.3,1.6-0.4,2.4-0.4c1.1,0,2,0.2,2.7,0.5
	s1.3,0.8,1.8,1.3c0.5,0.6,0.8,1.2,1,1.9c0.2,0.7,0.3,1.5,0.3,2.3v0.4c0,0.2,0,0.3,0,0.5s0,0.3,0,0.5s0,0.3,0,0.4H300
	c0.1,1.1,0.4,1.9,1,2.6C301.5,37.2,302.4,37.5,303.7,37.5z M305,31.7c0-0.9-0.2-1.7-0.5-2.2s-1-0.9-1.9-0.9c-0.8,0-1.4,0.3-1.9,0.8
	s-0.7,1.3-0.7,2.3C300,31.7,305,31.7,305,31.7z M315.2,27.8c0.1-0.2,0.3-0.4,0.4-0.6c0.2-0.2,0.4-0.4,0.7-0.6
	c0.3-0.2,0.6-0.3,0.9-0.4s0.7-0.2,1.1-0.2c0.2,0,0.5,0,0.7,0c0.3,0,0.5,0.1,0.7,0.2s0.4,0.2,0.5,0.4c0.1,0.2,0.2,0.4,0.2,0.7
	c0,0.4-0.1,0.9-0.3,1.4c-0.2,0.5-0.4,1-0.6,1.4c-0.3-0.3-0.7-0.5-1-0.6s-0.7-0.2-1.1-0.2c-0.6,0-1.1,0.2-1.5,0.5
	c-0.4,0.4-0.6,0.7-0.6,1.2v9.2h-3.9V26.4c0.1,0,0.2,0,0.4,0c0.1,0,0.3,0,0.4,0s0.3,0,0.5,0c0.6,0,1.1,0.1,1.6,0.4
	C314.8,26.9,315.1,27.3,315.2,27.8z M326.2,27.8c0.1-0.2,0.3-0.4,0.4-0.6c0.2-0.2,0.4-0.4,0.7-0.6c0.3-0.2,0.6-0.3,0.9-0.4
	s0.7-0.2,1.1-0.2c0.2,0,0.5,0,0.7,0c0.3,0,0.5,0.1,0.7,0.2s0.4,0.2,0.5,0.4c0.1,0.2,0.2,0.4,0.2,0.7c0,0.4-0.1,0.9-0.3,1.4
	c-0.2,0.5-0.4,1-0.6,1.4c-0.3-0.3-0.7-0.5-1-0.6s-0.7-0.2-1.1-0.2c-0.6,0-1.1,0.2-1.5,0.5c-0.4,0.4-0.6,0.7-0.6,1.2v9.2h-3.9V26.4
	c0.1,0,0.2,0,0.4,0c0.1,0,0.3,0,0.4,0s0.3,0,0.5,0c0.6,0,1.1,0.1,1.6,0.4C325.8,26.9,326.1,27.3,326.2,27.8z M344.7,36.6
	c0,1.5,0.2,2.6,0.7,3.3c-0.4,0.1-0.7,0.2-1,0.3c-0.3,0-0.6,0.1-0.9,0.1c-0.7,0-1.2-0.1-1.5-0.4c-0.4-0.3-0.6-0.7-0.7-1.1
	c-0.4,0.4-1,0.8-1.7,1.1s-1.5,0.4-2.5,0.4c-0.5,0-1-0.1-1.5-0.2c-0.5-0.1-1-0.4-1.4-0.7s-0.7-0.7-1-1.3c-0.3-0.5-0.4-1.2-0.4-2
	c0-1,0.2-1.8,0.7-2.4c0.5-0.6,1.1-1.1,1.8-1.4c0.7-0.4,1.5-0.6,2.3-0.7s1.6-0.2,2.2-0.3c0.2,0,0.4,0,0.7,0h0.6v-0.5
	c0-0.7-0.2-1.2-0.6-1.6c-0.4-0.3-1-0.5-1.9-0.5c-0.8,0-1.5,0.1-2.2,0.4c-0.6,0.3-1.3,0.6-1.9,0.9c-0.3-0.3-0.5-0.7-0.6-1.1
	c-0.2-0.4-0.2-0.7-0.2-0.9c0-0.3,0.1-0.5,0.4-0.8s0.7-0.5,1.2-0.7s1.1-0.4,1.8-0.5c0.7-0.1,1.4-0.2,2.1-0.2c1,0,1.9,0.1,2.6,0.3
	s1.3,0.5,1.7,1c0.4,0.4,0.8,1,1,1.6c0.2,0.7,0.3,1.4,0.3,2.3L344.7,36.6z M341.1,33.3h-0.4c-0.1,0-0.3,0-0.4,0
	c-0.5,0-0.9,0.1-1.4,0.2c-0.5,0.1-0.9,0.2-1.2,0.4s-0.7,0.4-0.9,0.7c-0.2,0.3-0.4,0.7-0.4,1.2s0.1,1,0.4,1.4s0.8,0.6,1.5,0.6
	c0.4,0,0.7,0,1-0.1s0.6-0.2,0.9-0.4s0.4-0.3,0.6-0.5c0.1-0.2,0.2-0.4,0.2-0.5L341.1,33.3L341.1,33.3z"/>
<path class="st4" d="M223,65l3,6.9l7.5,0.7l-5.6,5l1.6,7.3l-6.5-3.8l-6.5,3.8l1.6-7.3l-5.6-5l7.5-0.7L223,65z"/>
<path class="st4" d="M249,65l3,6.9l7.5,0.7l-5.6,5l1.6,7.3l-6.5-3.8l-6.5,3.8l1.6-7.3l-5.6-5l7.5-0.7L249,65z"/>
<path class="st4" d="M275,65l3,6.9l7.5,0.7l-5.6,5l1.6,7.3l-6.5-3.8l-6.5,3.8l1.6-7.3l-5.6-5l7.5-0.7L275,65z"/>
<path class="st4" d="M301,65l3,6.9l7.5,0.7l-5.6,5l1.6,7.3l-6.5-3.8l-6.5,3.8l1.6-7.3l-5.6-5l7.5-0.7L301,65z"/>
<linearGradient id="SVGID_1_" gradientUnits="userSpaceOnUse" x1="319" y1="1068.95" x2="334.5" y2="1068.95" gradientTransform="matrix(1 0 0 1 0 -994)">
	<stop  offset="0" style="stop-color:#FFE39F"/>
	<stop  offset="0.5109" style="stop-color:#F0B72B"/>
	<stop  offset="1" style="stop-color:#E8E8E8"/>
</linearGradient>
<path class="st5" d="M327,65l3,6.9l7.5,0.7l-5.6,5l1.6,7.3l-6.5-3.8l-6.5,3.8l1.6-7.3l-5.6-5l7.5-0.7L327,65z"/>
<linearGradient id="SVGID_00000062903737502461499670000011924797461431219124_" gradientUnits="userSpaceOnUse" x1="319" y1="1068.95" x2="334.5" y2="1068.95" gradientTransform="matrix(1 0 0 1 0 -994)">
	<stop  offset="0.5016" style="stop-color:#C4C4C4"/>
	<stop  offset="0.5109" style="stop-color:#E8E8E8"/>
	<stop  offset="1" style="stop-color:#E8E8E8"/>
</linearGradient>
<path style="fill:url(#SVGID_00000062903737502461499670000011924797461431219124_);" d="M327,65l3,6.9l7.5,0.7l-5.6,5l1.6,7.3
	l-6.5-3.8l-6.5,3.8l1.6-7.3l-5.6-5l7.5-0.7L327,65z"/>
<path class="st4" d="M16,65l3,6.9l7.5,0.7l-5.6,5l1.6,7.3L16,81.1l-6.5,3.8l1.6-7.3l-5.6-5l7.5-0.7L16,65z"/>
<path class="st4" d="M42,65l3,6.9l7.5,0.7l-5.6,5l1.6,7.3L42,81.1l-6.5,3.8l1.6-7.3l-5.6-5l7.5-0.7L42,65z"/>
<path class="st4" d="M68,65l3,6.9l7.5,0.7l-5.6,5l1.6,7.3L68,81.1l-6.5,3.8l1.6-7.3l-5.6-5l7.5-0.7L68,65z"/>
<path class="st4" d="M94,65l3,6.9l7.5,0.7l-5.6,5l1.6,7.3L94,81.1l-6.5,3.8l1.6-7.3l-5.6-5l7.5-0.7L94,65z"/>
<linearGradient id="SVGID_00000176744650188478698720000011097416907261472157_" gradientUnits="userSpaceOnUse" x1="112" y1="1068.95" x2="127.5" y2="1068.95" gradientTransform="matrix(1 0 0 1 0 -994)">
	<stop  offset="0" style="stop-color:#FFE39F"/>
	<stop  offset="0.5109" style="stop-color:#F0B72B"/>
	<stop  offset="1" style="stop-color:#E8E8E8"/>
</linearGradient>
<path style="fill:url(#SVGID_00000176744650188478698720000011097416907261472157_);" d="M120,65l3,6.9l7.5,0.7l-5.6,5l1.6,7.3
	l-6.5-3.8l-6.5,3.8l1.6-7.3l-5.6-5l7.5-0.7L120,65z"/>
<linearGradient id="SVGID_00000150789365182698715600000014837639180913908920_" gradientUnits="userSpaceOnUse" x1="112" y1="1068.95" x2="127.5" y2="1068.95" gradientTransform="matrix(1 0 0 1 0 -994)">
	<stop  offset="0" style="stop-color:#C4C4C4"/>
	<stop  offset="0.5109" style="stop-color:#E8E8E8"/>
	<stop  offset="1" style="stop-color:#E8E8E8"/>
</linearGradient>
<path style="fill:url(#SVGID_00000150789365182698715600000014837639180913908920_);" d="M120,65l3,6.9l7.5,0.7l-5.6,5l1.6,7.3
	l-6.5-3.8l-6.5,3.8l1.6-7.3l-5.6-5l7.5-0.7L120,65z"/>
<path class="st4" d="M426,65l3,6.9l7.5,0.7l-5.6,5l1.6,7.3l-6.5-3.8l-6.5,3.8l1.6-7.3l-5.6-5l7.5-0.7L426,65z"/>
<path class="st4" d="M452,65l3,6.9l7.5,0.7l-5.6,5l1.6,7.3l-6.5-3.8l-6.5,3.8l1.6-7.3l-5.6-5l7.5-0.7L452,65z"/>
<path class="st4" d="M478,65l3,6.9l7.5,0.7l-5.6,5l1.6,7.3l-6.5-3.8l-6.5,3.8l1.6-7.3l-5.6-5l7.5-0.7L478,65z"/>
<path class="st4" d="M504,65l3,6.9l7.5,0.7l-5.6,5l1.6,7.3l-6.5-3.8l-6.5,3.8l1.6-7.3l-5.6-5l7.5-0.7L504,65z"/>
<path class="st4" d="M530,65l3,6.9l7.5,0.7l-5.6,5l1.6,7.3l-6.5-3.8l-6.5,3.8l1.6-7.3l-5.6-5l7.5-0.7L530,65z"/>
<path class="st4" d="M530,65l3,6.9l7.5,0.7l-5.6,5l1.6,7.3l-6.5-3.8l-6.5,3.8l1.6-7.3l-5.6-5l7.5-0.7L530,65z"/>
<g>
	<path class="st9" d="M439.8,16.6h5.4c3.3,0,8.4,0.2,8.4,8.7c0,3.2-0.9,8-4.7,8.7l6.2,16.5h-4.7l-6.1-16.6h-0.1v16.6h-4.5V16.6
		H439.8z M448.9,26.2c0-3.2-0.4-5.9-3.8-5.8h-0.7v11.2C447.7,31.8,448.9,29.6,448.9,26.2z"/>
	<path class="st9" d="M463,50.4h-4.5V16.6h4.5V50.4z"/>
	<path class="st9" d="M470.5,16.6l3.9,25.5h0.1l0.2-2.1l1.8-11.4l2.1-11.9h4.3l-6.6,33.9h-3.6l-6.6-33.9h4.4V16.6z"/>
	<path class="st9" d="M498,16.6v3.9h-7.6v10.6h6.8V35h-6.8v11.5h7.6v3.9h-12.1V16.6H498z"/>
	<path class="st9" d="M505.5,50.4h-4.1V16.6h4.3l7.5,24.4V16.6h4v33.9H513l-7.5-24.8V50.4z"/>
</g>
<g>
	<path d="M81.2,14.8c-1.7,0-3.2,0.6-4.2,1.6c-0.8-1-2.1-1.6-3.7-1.6c-1.4,0-2.6,0.6-3.4,1.7h-0.1v-1.5H67h-0.1h-3.2l-2.5,7.8h-0.1
		l-2.6-7.8h-2.4h-0.9h-1.3v-3.4h-3.1v3.4h-1.9v2.1h1.9v6.7c0,2.2,1.7,2.7,3.6,2.7c0.6,0,1.3,0,1.8-0.1v-2.5c-0.3,0.1-0.6,0.1-1,0.1
		c-1.1,0-1.3-0.3-1.3-1.3v-5.6h2.1l3.2,8.6c0.3,0.9,0,2-1.1,2.1c-0.6,0-1.2-0.1-1.8-0.1v2.6c0.6,0.1,1.3,0.1,1.9,0.1
		c2.1,0,3.2-0.7,3.9-2.6l4.7-12.6v15.2H70v-5.4H70c0.7,1.1,2,1.7,3.4,1.7c1.5,0,2.7-0.6,3.5-1.6c1,1,2.5,1.6,4.2,1.6
		c3.6,0,5.9-2.3,5.9-6S84.8,14.8,81.2,14.8z M72.6,24.4c-2,0-2.7-1.7-2.7-3.6c0-1.8,0.7-3.6,2.7-3.6c2,0,2.7,1.8,2.7,3.6
		C75.3,22.7,74.6,24.4,72.6,24.4z M81.2,24.4c-2.1,0-2.7-1.8-2.7-3.6c0-1.8,0.6-3.6,2.7-3.6s2.7,1.8,2.7,3.6S83.3,24.4,81.2,24.4z"
		/>
	<path d="M83.4,36.6c-1.8-0.4-3.5-0.6-3.5-1.7c0-0.9,1-1.1,1.7-1.1c1.1,0,2,0.3,2.1,1.5h3c-0.2-2.8-2.5-3.6-5-3.6s-4.9,0.7-4.9,3.6
		c0,2,1.8,2.6,3.6,3c2.2,0.5,3.5,0.8,3.5,1.7c0,1.1-1.1,1.5-2,1.5c-1.2,0-2.3-0.6-2.4-1.9h-3c0,0.5,0.1,0.9,0.2,1.3
		c-0.3,0.1-0.5,0.1-0.8,0.1c-1.1,0-1.3-0.3-1.3-1.3v-5.6h2.3v-2.1h-2.2v-3.4h-3.1v3.4h-1.9v1.7c-1-1.3-2.6-2.1-4.6-2.1
		c-1.7,0-3.2,0.6-4.2,1.6c-0.9-1.1-2.1-1.6-3.3-1.6c-1.4,0-2.8,0.5-3.6,1.7h-0.1v-5.6h-3.1v15.7h3V42h0.1c0.7,1.2,2.1,1.7,3.7,1.7
		c1.2,0,2.4-0.5,3.3-1.6c1,1,2.5,1.6,4.2,1.6c3.6,0,5.9-2.3,5.9-6c0-1.4-0.3-2.6-1-3.6h1.6v6.7c0,2.2,1.7,2.7,3.6,2.7
		c0.6,0,1.3,0,1.8-0.1v-2c0.8,1.6,2.9,2.2,4.9,2.2c2.6,0,5.2-1,5.2-4C87,37.7,85.3,37,83.4,36.6z M56.4,41.4c-1.8,0-2.6-1.7-2.6-3.6
		c0-1.9,0.8-3.6,2.6-3.6s2.6,1.7,2.6,3.6C59.1,39.7,58.3,41.4,56.4,41.4z M65.1,41.4c-2.1,0-2.7-1.8-2.7-3.6c0-1.8,0.6-3.6,2.7-3.6
		c2.1,0,2.7,1.8,2.7,3.6C67.8,39.6,67.2,41.4,65.1,41.4z"/>
	<path d="M72.6,0h-9.3C50.5,0,40,10.5,40,23.3v9.3C40,45.5,50.5,56,63.3,56h9.3C85.5,56,96,45.5,96,32.7v-9.3
		C95.9,10.5,85.5,0,72.6,0z M91.6,32.6c0,5-2,9.8-5.5,13.4c-3.6,3.6-8.3,5.5-13.4,5.5h-9.3c-5,0-9.8-2-13.4-5.5
		c-3.6-3.6-5.5-8.3-5.5-13.4v-9.3c0-5,2-9.8,5.5-13.4s8.3-5.5,13.4-5.5h9.3c5,0,9.8,2,13.4,5.5c3.6,3.6,5.5,8.3,5.5,13.4
		C91.6,23.3,91.6,32.6,91.6,32.6z"/>
</g>
</svg>
