<?xml version="1.0" encoding="utf-8"?>
<!-- Generator: Adobe Illustrator 26.3.0, SVG Export Plug-In . SVG Version: 6.00 Build 0)  -->
<svg version="1.1" id="Layer_1" xmlns="http://www.w3.org/2000/svg" xmlns:xlink="http://www.w3.org/1999/xlink" x="0px" y="0px"
	 viewBox="0 0 500 125" style="enable-background:new 0 0 500 125;" xml:space="preserve">
<style type="text/css">
	.st0{fill:#03275A;}
	.st1{fill:url(#SVGID_1_);}
	.st2{fill:url(#SVGID_00000157288973364510326830000010832046651670036899_);}
	.st3{fill:url(#SVGID_00000144306462000138036330000014909477958581590144_);}
	.st4{fill:url(#SVGID_00000145034122716595723230000016117789297385753511_);}
	.st5{fill:url(#SVGID_00000018950526935768759570000011594349673864433334_);}
	.st6{fill:url(#SVGID_00000045619603550410625630000015861852064217498276_);}
	.st7{fill:url(#SVGID_00000165918530284197093340000010362600921115069059_);}
	.st8{fill:url(#SVGID_00000056414141126487366340000016778552051839268526_);}
	.st9{fill:url(#SVGID_00000044897762150377059150000017553143579819638456_);}
</style>
<g>
	<path class="st0" d="M415,86.6V52.3h-6c-2,0-3.7,1.6-3.7,3.7v1.9c-1.2-1.7-2.9-3.2-5.2-4.6c-2.2-1.4-5.1-2.1-8.6-2.1
		c-3,0-5.7,0.6-8,1.7s-4.3,2.6-5.9,4.5c-1.6,1.8-2.8,4-3.6,6.4c-0.8,2.4-1.2,4.9-1.2,7.5c0,2.6,0.4,5.1,1.2,7.5
		c0.8,2.4,2,4.6,3.6,6.4c1.6,1.8,3.5,3.3,5.9,4.5c2.3,1.1,5,1.7,8,1.7c3.5,0,6.3-0.7,8.6-2.1c2.2-1.4,4-2.9,5.2-4.6v5.5h6
		C413.4,90.3,415,88.7,415,86.6z M404.1,75.8c-0.7,1.7-2,3.2-3.7,4.4c-1.7,1.3-3.8,1.9-6.2,1.9c-1.6,0-3-0.3-4.2-0.9
		c-1.2-0.6-2.3-1.4-3.1-2.3c-0.9-1-1.5-2.1-2-3.4c-0.4-1.3-0.7-2.7-0.7-4.2c0-1.5,0.2-2.9,0.7-4.2c0.4-1.3,1.1-2.5,2-3.4
		c0.9-1,1.9-1.8,3.1-2.3c1.2-0.6,2.6-0.9,4.2-0.9c2.4,0,4.5,0.6,6.2,1.9c1.7,1.3,2.9,2.7,3.7,4.4V75.8z"/>
	<path class="st0" d="M335.8,62.9c0-2.2,0.4-4.1,1.3-5.5c0.9-1.5,2.1-2.7,3.6-3.6c1.5-0.9,3.2-1.6,5.1-2c1.9-0.4,3.8-0.6,5.9-0.6
		c2.7,0,5.2,0.3,7.6,0.9c2.3,0.6,4.5,1.4,6.4,2.3v9c-1.6-1.1-3.7-2-6.2-2.8c-2.5-0.7-4.9-1.1-7.1-1.1c-0.6,0-1.3,0.1-1.9,0.2
		c-0.6,0.1-1.2,0.3-1.7,0.5c-0.5,0.2-1,0.5-1.3,0.9c-0.3,0.4-0.5,0.8-0.5,1.4c0,1.1,0.5,1.9,1.6,2.5c1.1,0.6,2.4,1.2,4,1.7
		c1.6,0.5,3.3,1,5.2,1.5c1.9,0.5,3.6,1.3,5.2,2.2c1.6,0.9,2.9,2.1,4,3.6c1.1,1.5,1.6,3.3,1.6,5.7c0,2.2-0.5,4.1-1.4,5.6
		c-1,1.5-2.2,2.7-3.8,3.6c-1.6,0.9-3.4,1.6-5.5,1.9c-2.1,0.4-4.3,0.6-6.5,0.6c-2.9,0-5.7-0.3-8.3-0.9c-2.6-0.6-4.9-1.5-6.8-2.7v-9.1
		c2.1,1.4,4.4,2.4,7,3c2.6,0.7,5.1,1,7.4,1c2,0,3.6-0.2,4.8-0.6c1.2-0.4,1.8-1.2,1.8-2.2c0-1-0.5-1.8-1.6-2.4
		c-1.1-0.6-2.4-1.2-4-1.7c-1.6-0.5-3.3-1-5.2-1.6c-1.9-0.6-3.6-1.3-5.2-2.2c-1.6-0.9-2.9-2.1-4-3.6
		C336.3,67.1,335.8,65.2,335.8,62.9z"/>
	<path class="st0" d="M436.2,84.8c0,2.2-0.7,3.8-2,4.9c-1.3,1.1-2.9,1.6-4.7,1.6c-1.8,0-3.4-0.5-4.7-1.6c-1.3-1.1-2-2.7-2-4.9
		c0-2.2,0.7-3.8,2-4.9c1.3-1.1,2.9-1.6,4.7-1.6c1.8,0,3.4,0.5,4.7,1.6C435.6,81,436.2,82.6,436.2,84.8z"/>
	<path class="st0" d="M478,80.5c0,1,0.3,1.7,0.8,2c0.5,0.3,1.2,0.5,1.9,0.5c0.7,0,1.4-0.1,2.1-0.3v7.2c-0.9,0.3-1.9,0.6-2.9,0.8
		c-1.1,0.2-2.1,0.3-3.2,0.3c-4,0-6.8-1.4-8.4-4.3c-1.8,1.5-3.9,2.6-6.1,3.4c-2.2,0.8-4.7,1.2-7.6,1.2c-1.8,0-3.5-0.3-5.1-0.8
		c-1.6-0.5-3-1.3-4.2-2.3c-1.2-1-2.2-2.2-2.9-3.6c-0.7-1.4-1.1-3.1-1.1-5c0-2.4,0.5-4.4,1.5-6.1c1-1.6,2.3-2.9,4-3.9
		c1.6-1,3.4-1.7,5.4-2.1s3.9-0.6,5.8-0.6c1.5,0,3.1,0.1,4.6,0.3c1.6,0.2,3,0.4,4.4,0.8v-1.3c0-1.9-0.7-3.4-2.2-4.6
		c-1.5-1.2-3.7-1.8-6.7-1.8c-2.6,0-5.1,0.3-7.4,0.9c-2.3,0.6-4.3,1.2-6.1,2v-9.5c0.8-0.3,1.7-0.5,2.8-0.8c1.1-0.3,2.3-0.6,3.5-0.8
		c1.3-0.3,2.6-0.5,4-0.6c1.4-0.2,2.9-0.2,4.4-0.2c2.8,0,5.4,0.3,7.7,0.9c2.3,0.6,4.3,1.6,5.9,3c1.6,1.4,2.9,3.2,3.8,5.3
		c0.9,2.2,1.3,4.8,1.3,8V80.5z M460.5,73.7c-1,0-2,0.1-2.9,0.3c-1,0.2-1.8,0.5-2.6,0.9c-0.8,0.4-1.4,0.9-1.8,1.6
		c-0.4,0.7-0.7,1.5-0.7,2.5c0,1.4,0.6,2.6,1.7,3.4s2.5,1.3,4.2,1.3c1.5,0,3-0.2,4.5-0.7c1.4-0.5,2.8-1.3,4.1-2.4v-5.9
		c-0.8-0.2-1.8-0.4-3-0.6C462.8,73.8,461.7,73.7,460.5,73.7z"/>
	<path class="st0" d="M489,44.5c1.3,1,2.8,1.5,4.5,1.5c1.7,0,3.3-0.5,4.5-1.5c1.3-1,1.9-2.6,1.9-4.8c0-2.2-0.6-3.7-1.9-4.7
		c-1.3-1-2.8-1.5-4.5-1.5c-1.7,0-3.2,0.5-4.5,1.5c-1.3,1-1.9,2.5-1.9,4.7C487.1,42,487.8,43.6,489,44.5z"/>
	<path class="st0" d="M173.6,71.1l13.1-18.7h-12.3l-9.7,14.2h-4.6V34.9h-7.3c-2,0-3.7,1.6-3.7,3.7v51.7h11v-15h4.4l10.9,15h12.3
		L173.6,71.1z"/>
	<path class="st0" d="M328.1,86.6V52.3h-6c-2,0-3.7,1.6-3.7,3.7v1.9c-1.2-1.7-2.9-3.2-5.2-4.6c-2.2-1.4-5.1-2.1-8.6-2.1
		c-3,0-5.7,0.6-8,1.7s-4.3,2.6-5.9,4.5c-1.6,1.8-2.8,4-3.6,6.4c-0.8,2.4-1.2,4.9-1.2,7.5c0,2.6,0.4,5.1,1.2,7.5
		c0.8,2.4,2,4.6,3.6,6.4c1.6,1.8,3.5,3.3,5.9,4.5c2.3,1.1,5,1.7,8,1.7c3.5,0,6.3-0.7,8.6-2.1c2.2-1.4,4-2.9,5.2-4.6v5.5h6
		C326.5,90.3,328.1,88.7,328.1,86.6z M317.2,75.8c-0.7,1.7-2,3.2-3.7,4.4c-1.7,1.3-3.8,1.9-6.2,1.9c-1.6,0-3-0.3-4.2-0.9
		c-1.2-0.6-2.3-1.4-3.1-2.3c-0.9-1-1.5-2.1-2-3.4c-0.4-1.3-0.7-2.7-0.7-4.2c0-1.5,0.2-2.9,0.7-4.2c0.4-1.3,1.1-2.5,2-3.4
		c0.9-1,1.9-1.8,3.1-2.3c1.2-0.6,2.6-0.9,4.2-0.9c2.4,0,4.5,0.6,6.2,1.9c1.7,1.3,2.9,2.7,3.7,4.4V75.8z"/>
	<path class="st0" d="M229.7,86.6V52.3h-7.3c-2,0-3.7,1.6-3.7,3.7v21.1c-0.8,1.2-2,2.3-3.4,3.3c-1.4,1-3.1,1.5-5.1,1.5
		c-2.3,0-4-0.6-5.3-1.9c-1.3-1.2-1.9-3.1-1.9-5.7V52.3h-7.3c-2,0-3.7,1.6-3.7,3.7v19.8c0,2.2,0.3,4.3,1,6.2c0.6,1.9,1.6,3.5,2.9,4.9
		c1.3,1.4,2.9,2.5,4.8,3.3c1.9,0.8,4.2,1.2,6.8,1.2c2.7,0,5.1-0.6,7.2-1.7c2.1-1.1,3.9-2.5,5.4-4.2v4.8h6.1
		C228.1,90.3,229.7,88.7,229.7,86.6z"/>
	<path class="st0" d="M278.9,86.6V34.9h-7.3c-2,0-3.7,1.6-3.7,3.7v17.8c-1.2-1.4-2.8-2.6-4.9-3.6c-2.1-1-4.6-1.5-7.6-1.5
		c-3,0-5.7,0.6-8,1.7c-2.3,1.1-4.3,2.6-5.9,4.5c-1.6,1.8-2.8,4-3.6,6.4c-0.8,2.4-1.2,4.9-1.2,7.5c0,2.6,0.4,5.1,1.2,7.5
		c0.8,2.4,2,4.6,3.6,6.4c1.6,1.8,3.5,3.3,5.9,4.5c2.3,1.1,5,1.7,8,1.7c3.5,0,6.3-0.7,8.6-2.1c2.2-1.4,4-2.9,5.2-4.6v5.5h6
		C277.3,90.3,278.9,88.7,278.9,86.6z M268,75.8c-0.7,1.7-2,3.2-3.7,4.4c-1.7,1.3-3.8,1.9-6.2,1.9c-1.6,0-3-0.3-4.2-0.9
		c-1.2-0.6-2.3-1.4-3.1-2.3c-0.9-1-1.5-2.1-2-3.4c-0.5-1.3-0.7-2.7-0.7-4.2c0-1.5,0.2-2.9,0.7-4.2c0.4-1.3,1.1-2.5,2-3.4
		c0.9-1,1.9-1.8,3.1-2.3c1.2-0.6,2.6-0.9,4.2-0.9c2.4,0,4.5,0.6,6.2,1.9c1.7,1.3,2.9,2.7,3.7,4.4V75.8z"/>
	<path class="st0" d="M499,86.6V52.3h-7.3c-2,0-3.7,1.6-3.7,3.7v34.3h7.3C497.4,90.3,499,88.7,499,86.6z"/>
</g>
<g>
	<linearGradient id="SVGID_1_" gradientUnits="userSpaceOnUse" x1="-26.8695" y1="98.1306" x2="98.1305" y2="-26.8694">
		<stop  offset="0" style="stop-color:#009BFF"/>
		<stop  offset="1" style="stop-color:#40D9FF"/>
	</linearGradient>
	<path class="st1" d="M45.7,4.4c-2.4,2.4-2.4,6.3,0,8.7l12.4,12.4c1.2,1.2,2.8,1.8,4.4,1.8c1.6,0,3.2-0.6,4.4-1.8l12.4-12.4
		c2.4-2.4,2.4-6.3,0-8.7l0,0L74.9,0l-4.4,4.4l-8,8l-8-8L50.1,0L45.7,4.4L45.7,4.4z"/>
	
		<linearGradient id="SVGID_00000041979433717003099090000007480803565352487595_" gradientUnits="userSpaceOnUse" x1="-26.8719" y1="98.1282" x2="98.1281" y2="-26.8718">
		<stop  offset="0" style="stop-color:#009BFF"/>
		<stop  offset="1" style="stop-color:#40D9FF"/>
	</linearGradient>
	<path style="fill:url(#SVGID_00000041979433717003099090000007480803565352487595_);" d="M4.4,79.3c2.4,2.4,6.3,2.4,8.7,0
		l12.4-12.4c1.2-1.2,1.8-2.8,1.8-4.4c0-1.6-0.6-3.2-1.8-4.4L13.1,45.7c-2.4-2.4-6.3-2.4-8.7,0l0,0L0,50.1l4.4,4.4l8,8l-8,8L0,74.9
		L4.4,79.3L4.4,79.3z"/>
	
		<linearGradient id="SVGID_00000079470084796420943960000000075678413072331435_" gradientUnits="userSpaceOnUse" x1="26.8695" y1="151.8696" x2="151.8695" y2="26.8695">
		<stop  offset="0" style="stop-color:#009BFF"/>
		<stop  offset="1" style="stop-color:#40D9FF"/>
	</linearGradient>
	<path style="fill:url(#SVGID_00000079470084796420943960000000075678413072331435_);" d="M79.3,120.6c2.4-2.4,2.4-6.3,0-8.7
		L66.9,99.5c-1.2-1.2-2.8-1.8-4.4-1.8c-1.6,0-3.2,0.6-4.4,1.8l-12.4,12.4c-2.4,2.4-2.4,6.3,0,8.7l0,0l4.4,4.4l4.4-4.4l8-8l8,8
		l4.4,4.4L79.3,120.6L79.3,120.6z"/>
	
		<linearGradient id="SVGID_00000116952264310307239530000001520626013062925214_" gradientUnits="userSpaceOnUse" x1="26.8719" y1="151.8719" x2="151.8718" y2="26.8719">
		<stop  offset="0" style="stop-color:#009BFF"/>
		<stop  offset="1" style="stop-color:#40D9FF"/>
	</linearGradient>
	<path style="fill:url(#SVGID_00000116952264310307239530000001520626013062925214_);" d="M120.6,45.7c-2.4-2.4-6.3-2.4-8.7,0
		L99.5,58.1c-1.2,1.2-1.8,2.8-1.8,4.4c0,1.6,0.6,3.2,1.8,4.4l12.4,12.4c2.4,2.4,6.3,2.4,8.7,0l0,0l4.4-4.4l-4.4-4.4l-8-8l8-8
		l4.4-4.4L120.6,45.7L120.6,45.7z"/>
	
		<linearGradient id="SVGID_00000005985402588298444660000001516684687135119270_" gradientUnits="userSpaceOnUse" x1="-1.329792e-05" y1="125.0001" x2="125" y2="5.078898e-05">
		<stop  offset="0" style="stop-color:#009BFF"/>
		<stop  offset="1" style="stop-color:#40D9FF"/>
	</linearGradient>
	<path style="fill:url(#SVGID_00000005985402588298444660000001516684687135119270_);" d="M84.9,68.3L84.9,68.3
		c0.1-0.1,0.2-0.3,0.3-0.4c0.6-0.7,1.2-1.5,1.5-2.4c0.1-0.4,0.2-0.7,0.3-1.1c0-0.1,0.1-0.3,0.1-0.4c0.3-1.5,0.1-3.1-0.4-4.5
		c0,0,0-0.1,0-0.1c-0.3-0.8-0.9-1.6-1.5-2.4c-0.1-0.1-0.2-0.3-0.3-0.4l0,0L79,50.8L68.4,40.1c-1.6-1.6-3.7-2.4-5.9-2.4
		c-2.1,0-4.2,0.8-5.9,2.4L46,50.8l-5.8,5.8l0,0c-0.1,0.1-0.2,0.3-0.3,0.4c-0.6,0.7-1.2,1.5-1.5,2.4c0,0,0,0.1,0,0.1
		c-0.6,1.5-0.7,3-0.4,4.5c0,0.1,0.1,0.3,0.1,0.4c0.1,0.4,0.2,0.7,0.3,1.1c0.4,0.9,0.9,1.7,1.6,2.4c0.1,0.1,0.2,0.2,0.3,0.3l0,0l0,0
		l5.8,5.8l10.7,10.7c1.6,1.6,3.7,2.4,5.9,2.4c2.1,0,4.2-0.8,5.9-2.4L79,74.2L84.9,68.3L84.9,68.3z"/>
	
		<linearGradient id="SVGID_00000054972175720948671300000003493542181782811577_" gradientUnits="userSpaceOnUse" x1="-30.6725" y1="94.3276" x2="94.3275" y2="-30.6724">
		<stop  offset="0" style="stop-color:#009BFF"/>
		<stop  offset="1" style="stop-color:#40D9FF"/>
	</linearGradient>
	<path style="fill:url(#SVGID_00000054972175720948671300000003493542181782811577_);" d="M38.6,38.6c3.7-3.7,3.7-9.8,0-13.5
		c-3.7-3.7-9.8-3.7-13.5,0c-3.7,3.7-3.7,9.8,0,13.5C28.8,42.3,34.9,42.3,38.6,38.6z"/>
	
		<linearGradient id="SVGID_00000179619839780238757850000013792536402826935709_" gradientUnits="userSpaceOnUse" x1="1.591323e-03" y1="125.0016" x2="125.0016" y2="1.655429e-03">
		<stop  offset="0" style="stop-color:#009BFF"/>
		<stop  offset="1" style="stop-color:#40D9FF"/>
	</linearGradient>
	<path style="fill:url(#SVGID_00000179619839780238757850000013792536402826935709_);" d="M25.1,86.4c-3.7,3.7-3.7,9.8,0,13.5
		s9.8,3.7,13.5,0c3.7-3.7,3.7-9.8,0-13.5C34.9,82.7,28.8,82.7,25.1,86.4z"/>
	
		<linearGradient id="SVGID_00000008867098362639929590000006105656559114417792_" gradientUnits="userSpaceOnUse" x1="30.6724" y1="155.6725" x2="155.6724" y2="30.6725">
		<stop  offset="0" style="stop-color:#009BFF"/>
		<stop  offset="1" style="stop-color:#40D9FF"/>
	</linearGradient>
	<path style="fill:url(#SVGID_00000008867098362639929590000006105656559114417792_);" d="M86.4,86.4c-3.7,3.7-3.7,9.8,0,13.5
		c3.7,3.7,9.8,3.7,13.5,0c3.7-3.7,3.7-9.8,0-13.5C96.2,82.7,90.1,82.7,86.4,86.4z"/>
	
		<linearGradient id="SVGID_00000059292303502875141490000017852367758578304389_" gradientUnits="userSpaceOnUse" x1="-1.651079e-03" y1="124.9984" x2="124.9983" y2="-1.586967e-03">
		<stop  offset="0" style="stop-color:#009BFF"/>
		<stop  offset="1" style="stop-color:#40D9FF"/>
	</linearGradient>
	<path style="fill:url(#SVGID_00000059292303502875141490000017852367758578304389_);" d="M86.4,25.1c-3.7,3.7-3.7,9.8,0,13.5
		c3.7,3.7,9.8,3.7,13.5,0c3.7-3.7,3.7-9.8,0-13.5C96.2,21.3,90.1,21.3,86.4,25.1z"/>
</g>
</svg>
