<?xml version="1.0" encoding="utf-8"?>
<!-- Generator: Adobe Illustrator 26.3.0, SVG Export Plug-In . SVG Version: 6.00 Build 0)  -->
<svg version="1.1" id="Layer_1" xmlns="http://www.w3.org/2000/svg" xmlns:xlink="http://www.w3.org/1999/xlink" x="0px" y="0px"
	 viewBox="0 0 125 125" style="enable-background:new 0 0 125 125;" xml:space="preserve">
<style type="text/css">
	.st0{fill:url(#SVGID_1_);}
	.st1{fill:url(#SVGID_00000050647216052239305270000002688671075950585783_);}
	.st2{fill:url(#SVGID_00000112606334720217590670000016594826480074216871_);}
	.st3{fill:url(#SVGID_00000110458186491428405900000012821832481546122664_);}
	.st4{fill:url(#SVGID_00000164512570250358122430000010332214634249673380_);}
	.st5{fill:url(#SVGID_00000124858144449676496440000006227913320372115597_);}
	.st6{fill:url(#SVGID_00000050624282567611856240000004191212630352013994_);}
	.st7{fill:url(#SVGID_00000008867774161474267920000015172103240913554330_);}
	.st8{fill:url(#SVGID_00000093871459494699610150000001977490116342414480_);}
</style>
<g>
	
		<linearGradient id="SVGID_1_" gradientUnits="userSpaceOnUse" x1="-2901.7356" y1="-1051.0977" x2="-2776.7654" y2="-926.1274" gradientTransform="matrix(-1 0 0 -1 -2749.8882 -953)">
		<stop  offset="0" style="stop-color:#009BFF"/>
		<stop  offset="1" style="stop-color:#40D9FF"/>
	</linearGradient>
	<path class="st0" d="M62.5,12.4l8-8L74.9,0l4.4,4.4l0,0c2.4,2.4,2.4,6.3,0,8.7L66.9,25.5c-1.2,1.2-2.8,1.8-4.4,1.8
		s-3.2-0.6-4.4-1.8L45.7,13.1c-2.4-2.4-2.4-6.3,0-8.7l0,0L50.1,0l4.4,4.4L62.5,12.4z"/>
	
		<linearGradient id="SVGID_00000176732150416480581380000006033938403376676743_" gradientUnits="userSpaceOnUse" x1="-26.8791" y1="1643.2642" x2="98.1054" y2="1768.2487" gradientTransform="matrix(1 0 0 1 0 -1616.3933)">
		<stop  offset="0" style="stop-color:#009BFF"/>
		<stop  offset="1" style="stop-color:#40D9FF"/>
	</linearGradient>
	<path style="fill:url(#SVGID_00000176732150416480581380000006033938403376676743_);" d="M27.3,62.5c0,1.6-0.6,3.2-1.8,4.4
		L13.1,79.3c-2.4,2.4-6.3,2.4-8.7,0l0,0L0,74.9l4.4-4.4l8-8l0,0l-8-8L0,50.1l4.4-4.4l0,0c2.4-2.4,6.3-2.4,8.7,0l12.4,12.4
		C26.7,59.3,27.3,60.9,27.3,62.5L27.3,62.5z"/>
	
		<linearGradient id="SVGID_00000163044086718379776880000003695787985774428830_" gradientUnits="userSpaceOnUse" x1="-2901.7483" y1="1643.2831" x2="-2776.7781" y2="1768.2534" gradientTransform="matrix(-1 0 0 1 -2749.8882 -1616.3933)">
		<stop  offset="0" style="stop-color:#009BFF"/>
		<stop  offset="1" style="stop-color:#40D9FF"/>
	</linearGradient>
	<path style="fill:url(#SVGID_00000163044086718379776880000003695787985774428830_);" d="M62.5,112.6l8,8l4.4,4.4l4.4-4.4l0,0
		c2.4-2.4,2.4-6.3,0-8.7L66.9,99.5c-1.2-1.2-2.8-1.8-4.4-1.8s-3.2,0.6-4.4,1.8l-12.4,12.4c-2.4,2.4-2.4,6.3,0,8.7l0,0l4.4,4.4
		l4.4-4.4L62.5,112.6z"/>
	
		<linearGradient id="SVGID_00000080889510128908801550000001430663412834261434_" gradientUnits="userSpaceOnUse" x1="-2901.7546" y1="1643.2766" x2="-2776.77" y2="1768.2612" gradientTransform="matrix(-1 0 0 1 -2749.8882 -1616.3933)">
		<stop  offset="0" style="stop-color:#009BFF"/>
		<stop  offset="1" style="stop-color:#40D9FF"/>
	</linearGradient>
	<path style="fill:url(#SVGID_00000080889510128908801550000001430663412834261434_);" d="M112.6,62.5l8,8l4.4,4.4l-4.4,4.3l0,0
		c-2.4,2.4-6.3,2.4-8.7,0L99.5,66.9c-1.2-1.2-1.8-2.8-1.8-4.4l0,0c0-1.6,0.6-3.2,1.8-4.4l12.4-12.4c2.4-2.4,6.3-2.4,8.7,0l0,0
		l4.4,4.4l-4.4,4.4L112.6,62.5L112.6,62.5z"/>
	
		<linearGradient id="SVGID_00000113336262759179808310000015219571202808801921_" gradientUnits="userSpaceOnUse" x1="-305.0232" y1="1429.3147" x2="-180.0441" y2="1554.2939" gradientTransform="matrix(4.489659e-11 1 1 -4.489659e-11 -1429.3418 305.0462)">
		<stop  offset="0" style="stop-color:#009BFF"/>
		<stop  offset="1" style="stop-color:#40D9FF"/>
	</linearGradient>
	<path style="fill:url(#SVGID_00000113336262759179808310000015219571202808801921_);" d="M87.3,62.5c0,2.1-0.8,4.2-2.4,5.9
		L68.3,84.9c-1.6,1.6-3.7,2.4-5.9,2.4l0,0c-2.1,0-4.2-0.8-5.9-2.4L40.1,68.4c-1.6-1.6-2.4-3.7-2.4-5.9c0-2.1,0.8-4.2,2.4-5.9
		l16.5-16.5c1.6-1.6,3.7-2.4,5.9-2.4l0,0c2.1,0,4.2,0.8,5.9,2.4l16.5,16.5C86.5,58.2,87.3,60.4,87.3,62.5z"/>
	<g>
		
			<linearGradient id="SVGID_00000078732413865895247830000012375270135317723310_" gradientUnits="userSpaceOnUse" x1="-30.6864" y1="-1047.2864" x2="94.2838" y2="-922.3162" gradientTransform="matrix(1 0 0 -1 0 -953)">
			<stop  offset="0" style="stop-color:#009BFF"/>
			<stop  offset="1" style="stop-color:#40D9FF"/>
		</linearGradient>
		<circle style="fill:url(#SVGID_00000078732413865895247830000012375270135317723310_);" cx="31.8" cy="31.8" r="9.6"/>
		
			<linearGradient id="SVGID_00000012474542056146055490000013412282288882504124_" gradientUnits="userSpaceOnUse" x1="-2905.562" y1="-1047.2739" x2="-2780.5918" y2="-922.3036" gradientTransform="matrix(-1 0 0 -1 -2749.8882 -953)">
			<stop  offset="0" style="stop-color:#009BFF"/>
			<stop  offset="1" style="stop-color:#40D9FF"/>
		</linearGradient>
		<circle style="fill:url(#SVGID_00000012474542056146055490000013412282288882504124_);" cx="93.2" cy="31.8" r="9.6"/>
		
			<linearGradient id="SVGID_00000003793051160808296090000011993240375541822374_" gradientUnits="userSpaceOnUse" x1="-30.6988" y1="1647.0945" x2="94.2714" y2="1772.0647" gradientTransform="matrix(1 0 0 1 0 -1616.3933)">
			<stop  offset="0" style="stop-color:#009BFF"/>
			<stop  offset="1" style="stop-color:#40D9FF"/>
		</linearGradient>
		<circle style="fill:url(#SVGID_00000003793051160808296090000011993240375541822374_);" cx="31.8" cy="93.2" r="9.6"/>
		
			<linearGradient id="SVGID_00000165206582136849292010000004512315363668988823_" gradientUnits="userSpaceOnUse" x1="-2905.5745" y1="1647.1071" x2="-2780.6042" y2="1772.0773" gradientTransform="matrix(-1 0 0 1 -2749.8882 -1616.3933)">
			<stop  offset="0" style="stop-color:#009BFF"/>
			<stop  offset="1" style="stop-color:#40D9FF"/>
		</linearGradient>
		<circle style="fill:url(#SVGID_00000165206582136849292010000004512315363668988823_);" cx="93.2" cy="93.2" r="9.6"/>
	</g>
</g>
</svg>
