<?xml version="1.0" encoding="utf-8"?>
<!-- Generator: Adobe Illustrator 26.3.0, SVG Export Plug-In . SVG Version: 6.00 Build 0)  -->
<svg version="1.1" id="Layer_1" xmlns="http://www.w3.org/2000/svg" xmlns:xlink="http://www.w3.org/1999/xlink" x="0px" y="0px"
	 viewBox="0 0 532 435" style="enable-background:new 0 0 532 435;" xml:space="preserve">
<style type="text/css">
	.st0{fill:url(#SVGID_1_);}
	.st1{fill:#FFFFFF;}
	.st2{fill:none;stroke:#D7DDEB;stroke-width:0.7321;}
	.st3{fill:#112656;}
	.st4{clip-path:url(#SVGID_00000111907209830690568070000007902366003447385483_);}
	.st5{fill:#D7DDEB;}
	.st6{clip-path:url(#SVGID_00000053526652927158008310000014998449825408983692_);}
	.st7{clip-path:url(#SVGID_00000117656730511832222080000012475755134670511235_);}
	.st8{clip-path:url(#SVGID_00000168813717253525119310000008744906517450103941_);}
	.st9{fill:#FFB235;}
	.st10{fill:none;stroke:#00D1E4;stroke-width:0.5335;}
	.st11{fill:#008FBE;}
	.st12{fill:none;stroke:#95BF46;stroke-width:0.6222;}
	.st13{fill:none;stroke:#FF8C21;stroke-width:0.5335;}
	.st14{opacity:0.5;}
	.st15{fill:#4D4D4D;}
	.st16{fill:none;stroke:#4D4D4D;stroke-width:0.8003;}
	.st17{fill:none;stroke:#000000;stroke-width:0.8003;}
	.st18{fill:none;stroke:#00A4FF;stroke-width:0.6222;}
	.st19{fill:none;stroke:#0066A5;stroke-width:0.5335;}
	.st20{opacity:0.5;enable-background:new    ;}
	.st21{fill:#2FA037;}
	.st22{fill:#FF8C21;}
	.st23{fill:url(#SVGID_00000104675799987541793980000015078027536294999215_);}
	.st24{fill:url(#SVGID_00000113355358912891463570000002922204640762030260_);}
	.st25{fill:url(#SVGID_00000107548670514509997520000008186093114123829638_);}
	.st26{fill:url(#SVGID_00000078767820980573472270000016215475274548105115_);}
	.st27{fill:url(#SVGID_00000061469208664871793520000004896286185961598398_);}
	.st28{fill:url(#SVGID_00000011726825729291860220000014993873605192956841_);}
	.st29{fill:url(#SVGID_00000101078252416545913850000011009260609013923992_);}
	.st30{fill:url(#SVGID_00000054984260091322492130000017175024153828509589_);}
	.st31{fill:url(#SVGID_00000156559181762038831650000015133838973312572069_);}
	.st32{fill:url(#SVGID_00000152986130923356501380000005602971613898509698_);}
	.st33{fill:url(#SVGID_00000041281381377653195610000017865279049817450936_);}
	.st34{fill:url(#SVGID_00000011736012414140094530000002382382443867412622_);}
	.st35{fill:url(#SVGID_00000139296036399971504410000015072273859224586143_);}
	.st36{fill:url(#SVGID_00000165203768776134621310000016782875581677151417_);}
	.st37{fill:url(#SVGID_00000014618445247897962780000000379157076109901983_);}
	.st38{fill:url(#SVGID_00000070101278205145705990000018109606811249739187_);}
	.st39{fill:url(#SVGID_00000142157447959965879840000016794910398859134389_);}
	.st40{fill:url(#SVGID_00000178179725996082163900000000353797692561398686_);}
	.st41{fill:url(#SVGID_00000057852957981456050710000005292286884266661019_);}
	.st42{fill:url(#SVGID_00000061470777784096790270000012266983964052837763_);}
	.st43{fill:url(#SVGID_00000074415110828002184810000017621417074708245427_);}
	.st44{fill:url(#SVGID_00000090999265288193978050000010718063729334040214_);}
	.st45{fill:url(#SVGID_00000055703559130254519900000007193001435014803860_);}
	.st46{fill:url(#SVGID_00000023241301580381269470000014086897501361661330_);}
	.st47{fill:url(#SVGID_00000108310386013902447490000003688851699070707372_);}
	.st48{fill:url(#SVGID_00000156555017303812889500000005881696212999479172_);}
	.st49{fill:url(#SVGID_00000057144351648602700860000014992607945593415564_);}
</style>
<linearGradient id="SVGID_1_" gradientUnits="userSpaceOnUse" x1="266" y1="379" x2="266" y2="112" gradientTransform="matrix(1 0 0 -1 0 436)">
	<stop  offset="0" style="stop-color:#FFF6F1"/>
	<stop  offset="1" style="stop-color:#FFFFFF"/>
</linearGradient>
<path class="st0" d="M41,57h450c13.3,0,24,10.7,24,24v219c0,13.3-10.7,24-24,24H41c-13.3,0-24-10.7-24-24V81C17,67.7,27.7,57,41,57z
	"/>
<g>
	<path class="st1" d="M33.9,28h464.1c1.6,0,2.9,1.3,2.9,2.9V110c0,1.6-1.3,2.9-2.9,2.9H33.9c-1.6,0-2.9-1.3-2.9-2.9V30.9
		C31,29.3,32.3,28,33.9,28z"/>
</g>
<line class="st2" x1="42" y1="77.4" x2="490" y2="77.4"/>
<path class="st3" d="M79.1,55.6l-0.6-1.7h-3.4l-0.6,1.7h-1.4l2.9-8.2h1.5l2.9,8.2H79.1z M75.5,52.9h2.7L76.8,49L75.5,52.9z
	 M84.7,55.7c-0.9,0-1.7-0.3-2.3-0.9c-0.6-0.6-0.9-1.4-0.9-2.4c0-1,0.3-1.8,0.9-2.4c0.6-0.6,1.4-0.9,2.3-0.9c0.8,0,1.4,0.2,1.9,0.6
	c0.5,0.4,0.9,0.9,1,1.6h-1.4c-0.2-0.7-0.8-1-1.5-1c-0.5,0-1,0.2-1.3,0.6c-0.3,0.4-0.5,0.9-0.5,1.6s0.2,1.2,0.5,1.6
	c0.3,0.4,0.8,0.6,1.3,0.6c0.8,0,1.3-0.3,1.5-1h1.4c-0.2,0.7-0.5,1.2-1.1,1.6C86.1,55.5,85.5,55.7,84.7,55.7z M92.4,50.2h-1.6v3.6
	c0,0.2,0.1,0.4,0.2,0.5c0.1,0.1,0.3,0.2,0.6,0.2h0.8v1.1h-1.1c-1.2,0-1.9-0.6-1.9-1.8v-3.6h-0.8v-1.1h0.8v-1.6h1.3v1.6h1.6V50.2z
	 M95.4,47.4c0,0.2-0.1,0.4-0.2,0.6c-0.2,0.2-0.4,0.2-0.6,0.2c-0.2,0-0.4-0.1-0.6-0.2c-0.2-0.2-0.2-0.4-0.2-0.6
	c0-0.2,0.1-0.4,0.2-0.6c0.2-0.2,0.4-0.2,0.6-0.2c0.2,0,0.4,0.1,0.6,0.2C95.3,47,95.4,47.2,95.4,47.4z M93.9,55.6v-6.5h1.3v6.5H93.9z
	 M101.4,54c0.4-0.4,0.6-0.9,0.6-1.6s-0.2-1.2-0.6-1.6c-0.4-0.4-0.8-0.6-1.4-0.6c-0.5,0-1,0.2-1.4,0.6c-0.4,0.4-0.6,0.9-0.6,1.6
	c0,0.7,0.2,1.2,0.5,1.6c0.4,0.4,0.8,0.6,1.3,0.6C100.5,54.6,101,54.4,101.4,54z M100,55.7c-0.9,0-1.7-0.3-2.3-0.9
	c-0.6-0.6-0.9-1.4-0.9-2.4c0-1,0.3-1.8,0.9-2.4c0.6-0.6,1.4-0.9,2.4-0.9c0.9,0,1.7,0.3,2.3,0.9c0.6,0.6,0.9,1.4,0.9,2.4
	s-0.3,1.8-1,2.4C101.7,55.4,100.9,55.7,100,55.7z M106.2,49.1v1c0.4-0.7,1.1-1.1,2.1-1.1c0.7,0,1.3,0.2,1.8,0.7
	c0.5,0.5,0.7,1.2,0.7,2v3.8h-1.3V52c0-0.6-0.1-1-0.4-1.3c-0.3-0.3-0.7-0.5-1.2-0.5c-0.5,0-0.9,0.2-1.2,0.5c-0.3,0.3-0.4,0.7-0.4,1.3
	v3.6h-1.3v-6.5H106.2z M116.3,57.6l3.2-13.1h1.3l-3.2,13.1H116.3z M130.2,54.4c0.8,0,1.5-0.3,2-0.8c0.5-0.5,0.8-1.3,0.8-2.1
	c0-0.9-0.3-1.6-0.8-2.1c-0.5-0.5-1.2-0.8-2-0.8c-0.8,0-1.5,0.3-2,0.8c-0.5,0.5-0.8,1.3-0.8,2.1c0,0.9,0.3,1.6,0.8,2.1
	C128.7,54.2,129.4,54.4,130.2,54.4z M130.2,55.7c-1.2,0-2.1-0.4-3-1.2c-0.8-0.8-1.2-1.8-1.2-3c0-1.2,0.4-2.2,1.2-3
	c0.8-0.8,1.8-1.2,3-1.2c1.2,0,2.2,0.4,3,1.2c0.8,0.8,1.2,1.8,1.2,3c0,1.2-0.4,2.2-1.2,3C132.3,55.3,131.4,55.7,130.2,55.7z
	 M140.6,53.9c0.4-0.4,0.6-0.9,0.6-1.6c0-0.7-0.2-1.2-0.6-1.6c-0.4-0.4-0.8-0.6-1.4-0.6c-0.5,0-1,0.2-1.4,0.6
	c-0.4,0.4-0.6,0.9-0.6,1.6s0.2,1.2,0.6,1.6c0.4,0.4,0.9,0.6,1.4,0.6S140.2,54.3,140.6,53.9z M139.5,49c0.9,0,1.6,0.3,2.2,0.9
	c0.6,0.6,0.9,1.4,0.9,2.4c0,1-0.3,1.8-0.9,2.4c-0.6,0.6-1.3,0.9-2.2,0.9c-0.5,0-1-0.1-1.3-0.4c-0.4-0.2-0.7-0.6-0.9-1v1.2h-1.3v-8.7
	h1.3v3.4c0.2-0.4,0.5-0.7,0.9-0.9C138.5,49.1,139,49,139.5,49z M144.1,49.1h1.3v7.7c0,1.2-0.6,1.8-1.9,1.8h-0.7v-1.1h0.5
	c0.3,0,0.5-0.1,0.6-0.2c0.1-0.1,0.2-0.3,0.2-0.5V49.1z M145.6,47.4c0,0.2-0.1,0.4-0.2,0.6c-0.2,0.2-0.4,0.2-0.6,0.2
	c-0.2,0-0.4-0.1-0.6-0.2c-0.2-0.2-0.2-0.4-0.2-0.6c0-0.2,0.1-0.4,0.2-0.6c0.2-0.2,0.4-0.2,0.6-0.2c0.2,0,0.4,0.1,0.6,0.2
	C145.5,47,145.6,47.2,145.6,47.4z M150.1,55.7c-0.9,0-1.7-0.3-2.3-0.9c-0.6-0.6-0.9-1.4-0.9-2.4s0.3-1.8,0.9-2.4
	c0.6-0.6,1.4-0.9,2.3-0.9c0.9,0,1.7,0.3,2.3,0.9c0.6,0.6,0.9,1.3,0.9,2.3c0,0.2,0,0.4,0,0.6h-4.9c0,0.5,0.2,1,0.5,1.3
	c0.3,0.3,0.8,0.5,1.3,0.5c0.7,0,1.2-0.3,1.5-0.9h1.4c-0.2,0.6-0.6,1.1-1.1,1.5C151.5,55.5,150.9,55.7,150.1,55.7z M151.9,51.9
	c0-0.5-0.2-1-0.5-1.3c-0.3-0.3-0.8-0.5-1.3-0.5c-0.5,0-0.9,0.2-1.2,0.5c-0.3,0.3-0.5,0.7-0.6,1.3H151.9z M157.6,55.7
	c-0.9,0-1.7-0.3-2.3-0.9c-0.6-0.6-0.9-1.4-0.9-2.4c0-1,0.3-1.8,0.9-2.4c0.6-0.6,1.4-0.9,2.3-0.9c0.8,0,1.4,0.2,1.9,0.6
	c0.5,0.4,0.9,0.9,1,1.6h-1.4c-0.2-0.7-0.8-1-1.5-1c-0.5,0-1,0.2-1.3,0.6c-0.3,0.4-0.5,0.9-0.5,1.6s0.2,1.2,0.5,1.6
	c0.3,0.4,0.8,0.6,1.3,0.6c0.8,0,1.3-0.3,1.5-1h1.4c-0.2,0.7-0.5,1.2-1.1,1.6C159,55.5,158.3,55.7,157.6,55.7z M165.2,50.2h-1.6v3.6
	c0,0.2,0.1,0.4,0.2,0.5c0.1,0.1,0.3,0.2,0.6,0.2h0.8v1.1h-1.1c-1.2,0-1.9-0.6-1.9-1.8v-3.6h-0.8v-1.1h0.8v-1.6h1.3v1.6h1.6V50.2z"/>
<path class="st3" d="M262.1,55.6l-0.6-1.7h-3.4l-0.6,1.7h-1.4l2.9-8.2h1.5l2.9,8.2H262.1z M258.5,52.9h2.7l-1.3-3.8L258.5,52.9z
	 M267.7,55.7c-0.9,0-1.7-0.3-2.3-0.9c-0.6-0.6-0.9-1.4-0.9-2.4c0-1,0.3-1.8,0.9-2.4c0.6-0.6,1.4-0.9,2.3-0.9c0.8,0,1.4,0.2,1.9,0.6
	c0.5,0.4,0.9,0.9,1,1.6h-1.4c-0.2-0.7-0.8-1-1.5-1c-0.5,0-1,0.2-1.3,0.6c-0.3,0.4-0.5,0.9-0.5,1.6s0.2,1.2,0.5,1.6
	c0.3,0.4,0.8,0.6,1.3,0.6c0.8,0,1.3-0.3,1.5-1h1.4c-0.2,0.7-0.5,1.2-1.1,1.6C269.2,55.5,268.5,55.7,267.7,55.7z M275.4,50.2h-1.6
	v3.6c0,0.2,0.1,0.4,0.2,0.5c0.1,0.1,0.3,0.2,0.6,0.2h0.8v1.1h-1.1c-1.2,0-1.9-0.6-1.9-1.8v-3.6h-0.8v-1.1h0.8v-1.6h1.3v1.6h1.6V50.2
	z M278.4,47.4c0,0.2-0.1,0.4-0.2,0.6c-0.2,0.2-0.4,0.2-0.6,0.2c-0.2,0-0.4-0.1-0.6-0.2c-0.2-0.2-0.2-0.4-0.2-0.6
	c0-0.2,0.1-0.4,0.2-0.6c0.2-0.2,0.4-0.2,0.6-0.2c0.2,0,0.4,0.1,0.6,0.2C278.3,47,278.4,47.2,278.4,47.4z M276.9,55.6v-6.5h1.3v6.5
	H276.9z M284.4,54c0.4-0.4,0.6-0.9,0.6-1.6s-0.2-1.2-0.6-1.6c-0.4-0.4-0.8-0.6-1.4-0.6c-0.5,0-1,0.2-1.4,0.6
	c-0.4,0.4-0.6,0.9-0.6,1.6c0,0.7,0.2,1.2,0.5,1.6c0.4,0.4,0.8,0.6,1.3,0.6C283.5,54.6,284,54.4,284.4,54z M283,55.7
	c-0.9,0-1.7-0.3-2.3-0.9c-0.6-0.6-0.9-1.4-0.9-2.4c0-1,0.3-1.8,0.9-2.4c0.6-0.6,1.4-0.9,2.4-0.9c0.9,0,1.7,0.3,2.3,0.9
	c0.6,0.6,0.9,1.4,0.9,2.4s-0.3,1.8-1,2.4C284.7,55.4,283.9,55.7,283,55.7z M289.2,49.1v1c0.4-0.7,1.1-1.1,2.1-1.1
	c0.7,0,1.3,0.2,1.8,0.7c0.5,0.5,0.7,1.2,0.7,2v3.8h-1.3V52c0-0.6-0.1-1-0.4-1.3c-0.3-0.3-0.7-0.5-1.2-0.5s-0.9,0.2-1.2,0.5
	c-0.3,0.3-0.4,0.7-0.4,1.3v3.6h-1.3v-6.5H289.2z"/>
<path class="st3" d="M394.1,47.4v8.1h-1.3V50l-2.5,5.6h-0.9l-2.5-5.6v5.6h-1.3v-8.1h1.4l2.9,6.4l2.8-6.4H394.1z M400.3,53.9
	c0.4-0.4,0.6-0.9,0.6-1.6s-0.2-1.2-0.6-1.6c-0.4-0.4-0.8-0.6-1.4-0.6s-1,0.2-1.4,0.6c-0.4,0.4-0.6,0.9-0.6,1.6
	c0,0.7,0.2,1.2,0.6,1.6c0.4,0.4,0.9,0.6,1.4,0.6S399.9,54.3,400.3,53.9z M398.6,55.7c-0.9,0-1.6-0.3-2.2-0.9
	c-0.6-0.6-0.9-1.4-0.9-2.4c0-1,0.3-1.8,0.9-2.4c0.6-0.6,1.3-0.9,2.2-0.9c0.5,0,1,0.1,1.3,0.4c0.4,0.2,0.7,0.5,0.9,0.9v-1.1h1.3v6.5
	h-1.3v-1.2c-0.2,0.4-0.5,0.7-0.9,1C399.6,55.6,399.1,55.7,398.6,55.7z M408.9,53.9c0.4-0.4,0.6-0.9,0.6-1.6c0-0.7-0.2-1.2-0.6-1.6
	c-0.4-0.4-0.8-0.6-1.4-0.6c-0.5,0-1,0.2-1.4,0.6c-0.4,0.4-0.6,0.9-0.6,1.6s0.2,1.2,0.6,1.6c0.4,0.4,0.9,0.6,1.4,0.6
	S408.5,54.3,408.9,53.9z M407.8,49c0.9,0,1.6,0.3,2.2,0.9c0.6,0.6,0.9,1.4,0.9,2.4c0,1-0.3,1.8-0.9,2.4c-0.6,0.6-1.3,0.9-2.2,0.9
	c-0.5,0-1-0.1-1.3-0.4c-0.4-0.2-0.7-0.6-0.9-1v4.3h-1.3v-9.5h1.3v1.1c0.2-0.4,0.5-0.7,0.9-0.9C406.8,49.1,407.3,49,407.8,49z
	 M417.1,53.9c0.4-0.4,0.6-0.9,0.6-1.6c0-0.7-0.2-1.2-0.6-1.6c-0.4-0.4-0.8-0.6-1.4-0.6c-0.5,0-1,0.2-1.4,0.6
	c-0.4,0.4-0.6,0.9-0.6,1.6s0.2,1.2,0.6,1.6c0.4,0.4,0.9,0.6,1.4,0.6S416.7,54.3,417.1,53.9z M416,49c0.9,0,1.6,0.3,2.2,0.9
	c0.6,0.6,0.9,1.4,0.9,2.4c0,1-0.3,1.8-0.9,2.4c-0.6,0.6-1.3,0.9-2.2,0.9c-0.5,0-1-0.1-1.3-0.4c-0.4-0.2-0.7-0.6-0.9-1v4.3h-1.3v-9.5
	h1.3v1.1c0.2-0.4,0.5-0.7,0.9-0.9C415,49.1,415.5,49,416,49z M423.3,55.7c-0.9,0-1.7-0.3-2.3-0.9c-0.6-0.6-0.9-1.4-0.9-2.4
	s0.3-1.8,0.9-2.4c0.6-0.6,1.4-0.9,2.3-0.9c0.9,0,1.7,0.3,2.3,0.9c0.6,0.6,0.9,1.3,0.9,2.3c0,0.2,0,0.4,0,0.6h-4.9
	c0,0.5,0.2,1,0.5,1.3c0.3,0.3,0.8,0.5,1.3,0.5c0.7,0,1.2-0.3,1.5-0.9h1.4c-0.2,0.6-0.6,1.1-1.1,1.5C424.7,55.5,424,55.7,423.3,55.7z
	 M425.1,51.9c0-0.5-0.2-1-0.5-1.3c-0.3-0.3-0.8-0.5-1.3-0.5c-0.5,0-0.9,0.2-1.2,0.5c-0.3,0.3-0.5,0.7-0.6,1.3H425.1z M432.3,53.9
	c0.4-0.4,0.6-0.9,0.6-1.6s-0.2-1.2-0.6-1.6c-0.4-0.4-0.8-0.6-1.4-0.6s-1,0.2-1.4,0.6c-0.4,0.4-0.6,0.9-0.6,1.6
	c0,0.7,0.2,1.2,0.6,1.6c0.4,0.4,0.9,0.6,1.4,0.6S431.9,54.3,432.3,53.9z M430.6,55.7c-0.9,0-1.6-0.3-2.2-0.9
	c-0.6-0.6-0.9-1.4-0.9-2.4c0-1,0.3-1.8,0.9-2.4c0.6-0.6,1.3-0.9,2.2-0.9c0.5,0,1,0.1,1.3,0.4c0.4,0.2,0.7,0.5,0.9,0.9v-3.4h1.3v8.7
	h-1.3v-1.2c-0.2,0.4-0.5,0.7-0.9,1C431.6,55.6,431.1,55.7,430.6,55.7z M445.4,55.6l-0.6-1.7h-3.4l-0.6,1.7h-1.4l2.9-8.2h1.5l2.9,8.2
	H445.4z M441.8,52.9h2.7l-1.3-3.8L441.8,52.9z M451.1,55.7c-0.9,0-1.7-0.3-2.3-0.9c-0.6-0.6-0.9-1.4-0.9-2.4c0-1,0.3-1.8,0.9-2.4
	c0.6-0.6,1.4-0.9,2.3-0.9c0.8,0,1.4,0.2,1.9,0.6c0.5,0.4,0.9,0.9,1,1.6h-1.4c-0.2-0.7-0.8-1-1.5-1c-0.5,0-1,0.2-1.3,0.6
	c-0.3,0.4-0.5,0.9-0.5,1.6s0.2,1.2,0.5,1.6c0.3,0.4,0.8,0.6,1.3,0.6c0.8,0,1.3-0.3,1.5-1h1.4c-0.2,0.7-0.5,1.2-1.1,1.6
	C452.5,55.5,451.8,55.7,451.1,55.7z M458.3,55.7c-0.9,0-1.7-0.3-2.3-0.9c-0.6-0.6-0.9-1.4-0.9-2.4c0-1,0.3-1.8,0.9-2.4
	c0.6-0.6,1.4-0.9,2.3-0.9c0.8,0,1.4,0.2,1.9,0.6c0.5,0.4,0.9,0.9,1,1.6h-1.4c-0.2-0.7-0.8-1-1.5-1c-0.5,0-1,0.2-1.3,0.6
	c-0.3,0.4-0.5,0.9-0.5,1.6s0.2,1.2,0.5,1.6c0.3,0.4,0.8,0.6,1.3,0.6c0.8,0,1.3-0.3,1.5-1h1.4c-0.2,0.7-0.5,1.2-1.1,1.6
	C459.7,55.5,459.1,55.7,458.3,55.7z M467.1,54c0.4-0.4,0.6-0.9,0.6-1.6s-0.2-1.2-0.6-1.6c-0.4-0.4-0.8-0.6-1.4-0.6s-1,0.2-1.4,0.6
	c-0.4,0.4-0.6,0.9-0.6,1.6c0,0.7,0.2,1.2,0.5,1.6c0.4,0.4,0.8,0.6,1.3,0.6C466.2,54.6,466.7,54.4,467.1,54z M465.7,55.7
	c-0.9,0-1.7-0.3-2.3-0.9c-0.6-0.6-0.9-1.4-0.9-2.4c0-1,0.3-1.8,0.9-2.4c0.6-0.6,1.4-0.9,2.4-0.9s1.7,0.3,2.3,0.9
	c0.6,0.6,0.9,1.4,0.9,2.4s-0.3,1.8-1,2.4C467.4,55.4,466.6,55.7,465.7,55.7z M475.1,49.1h1.3v6.5h-1.3v-1c-0.4,0.7-1.1,1.1-2.1,1.1
	c-0.7,0-1.3-0.2-1.8-0.7c-0.5-0.5-0.7-1.2-0.7-2v-3.8h1.3v3.6c0,0.6,0.1,1,0.4,1.3c0.3,0.3,0.7,0.5,1.2,0.5c0.5,0,0.9-0.2,1.2-0.5
	c0.3-0.3,0.4-0.8,0.4-1.3V49.1z M479.7,49.1v1c0.4-0.7,1.1-1.1,2.1-1.1c0.7,0,1.3,0.2,1.8,0.7c0.5,0.5,0.7,1.2,0.7,2v3.8H483V52
	c0-0.6-0.1-1-0.4-1.3c-0.3-0.3-0.7-0.5-1.2-0.5c-0.5,0-0.9,0.2-1.2,0.5c-0.3,0.3-0.4,0.7-0.4,1.3v3.6h-1.3v-6.5H479.7z M489.4,50.2
	h-1.6v3.6c0,0.2,0.1,0.4,0.2,0.5c0.1,0.1,0.3,0.2,0.6,0.2h0.8v1.1h-1.1c-1.2,0-1.9-0.6-1.9-1.8v-3.6h-0.8v-1.1h0.8v-1.6h1.3v1.6h1.6
	V50.2z"/>
<g>
	<defs>
		<rect id="SVGID_00000118370630077446435380000003948872701308576919_" x="54.4" y="87.3" width="46.9" height="13.2"/>
	</defs>
	<clipPath id="SVGID_00000109027828055537201350000012755647969574026131_">
		<use xlink:href="#SVGID_00000118370630077446435380000003948872701308576919_"  style="overflow:visible;"/>
	</clipPath>
	<g style="clip-path:url(#SVGID_00000109027828055537201350000012755647969574026131_);">
		<path class="st5" d="M55.9,87.3h43.9c0.8,0,1.5,0.7,1.5,1.5v1.5c0,0.8-0.7,1.5-1.5,1.5H55.9c-0.8,0-1.5-0.7-1.5-1.5v-1.5
			C54.4,88,55.1,87.3,55.9,87.3z"/>
		<path class="st5" d="M61,96.1h33.7c0.8,0,1.5,0.7,1.5,1.5V99c0,0.8-0.7,1.5-1.5,1.5H61c-0.8,0-1.5-0.7-1.5-1.5v-1.5
			C59.6,96.7,60.2,96.1,61,96.1z"/>
	</g>
</g>
<g>
	<defs>
		<rect id="SVGID_00000034089516456591639550000007693349764011924102_" x="236" y="87.3" width="46.9" height="13.2"/>
	</defs>
	<clipPath id="SVGID_00000003800048183208520360000015011793236508806799_">
		<use xlink:href="#SVGID_00000034089516456591639550000007693349764011924102_"  style="overflow:visible;"/>
	</clipPath>
	<g style="clip-path:url(#SVGID_00000003800048183208520360000015011793236508806799_);">
		<path class="st5" d="M237.4,87.3h43.9c0.8,0,1.5,0.7,1.5,1.5v1.5c0,0.8-0.7,1.5-1.5,1.5h-43.9c-0.8,0-1.5-0.7-1.5-1.5v-1.5
			C236,88,236.6,87.3,237.4,87.3z"/>
		<path class="st5" d="M242.6,96.1h33.7c0.8,0,1.5,0.7,1.5,1.5V99c0,0.8-0.7,1.5-1.5,1.5h-33.7c-0.8,0-1.5-0.7-1.5-1.5v-1.5
			C241.1,96.7,241.8,96.1,242.6,96.1z"/>
	</g>
</g>
<g>
	<defs>
		<rect id="SVGID_00000103235171837096245520000005495623925299520170_" x="398.5" y="87.3" width="46.9" height="13.2"/>
	</defs>
	<clipPath id="SVGID_00000000921198547443269490000006603486355013199266_">
		<use xlink:href="#SVGID_00000103235171837096245520000005495623925299520170_"  style="overflow:visible;"/>
	</clipPath>
	<g style="clip-path:url(#SVGID_00000000921198547443269490000006603486355013199266_);">
		<path class="st5" d="M400,87.3h43.9c0.8,0,1.5,0.7,1.5,1.5v1.5c0,0.8-0.7,1.5-1.5,1.5H400c-0.8,0-1.5-0.7-1.5-1.5v-1.5
			C398.5,88,399.2,87.3,400,87.3z"/>
		<path class="st5" d="M405.1,96.1h33.7c0.8,0,1.5,0.7,1.5,1.5V99c0,0.8-0.7,1.5-1.5,1.5h-33.7c-0.8,0-1.5-0.7-1.5-1.5v-1.5
			C403.6,96.7,404.3,96.1,405.1,96.1z"/>
	</g>
</g>
<g>
	<defs>
		<rect id="SVGID_00000029007544218691717130000009398591799124282548_" x="389" y="277" width="105" height="94.6"/>
	</defs>
	<clipPath id="SVGID_00000042718648744023637550000001385101994803088038_">
		<use xlink:href="#SVGID_00000029007544218691717130000009398591799124282548_"  style="overflow:visible;"/>
	</clipPath>
	<g style="clip-path:url(#SVGID_00000042718648744023637550000001385101994803088038_);">
		<path class="st9" d="M453.4,330.1c0-0.5-0.4-1-1-1c-0.5,0-1,0.4-1,1c0,0.5,0.4,1,1,1C453,331.1,453.4,330.6,453.4,330.1z"/>
		<path class="st9" d="M453.4,335.9c0-0.5-0.4-1-1-1c-0.5,0-1,0.4-1,1c0,0.5,0.4,1,1,1C453,336.9,453.4,336.4,453.4,335.9z"/>
		<path class="st9" d="M453.4,341.7c0-0.5-0.4-1-1-1c-0.5,0-1,0.4-1,1c0,0.5,0.4,1,1,1C453,342.7,453.4,342.2,453.4,341.7z"/>
		<path class="st9" d="M453.4,347.5c0-0.5-0.4-1-1-1c-0.5,0-1,0.4-1,1c0,0.5,0.4,1,1,1C453,348.5,453.4,348,453.4,347.5z"/>
		<path class="st9" d="M453.4,353.3c0-0.5-0.4-1-1-1c-0.5,0-1,0.4-1,1c0,0.5,0.4,1,1,1C453,354.3,453.4,353.8,453.4,353.3z"/>
		<path class="st9" d="M453.4,359.1c0-0.5-0.4-1-1-1c-0.5,0-1,0.4-1,1c0,0.5,0.4,1,1,1C453,360,453.4,359.6,453.4,359.1z"/>
		<path class="st9" d="M453.4,364.9c0-0.5-0.4-1-1-1c-0.5,0-1,0.4-1,1c0,0.5,0.4,1,1,1C453,365.8,453.4,365.4,453.4,364.9z"/>
		<path class="st9" d="M453.4,370.7c0-0.5-0.4-1-1-1c-0.5,0-1,0.4-1,1c0,0.5,0.4,1,1,1C453,371.6,453.4,371.2,453.4,370.7z"/>
		<path class="st9" d="M447.6,330.1c0-0.5-0.4-1-1-1s-1,0.4-1,1c0,0.5,0.4,1,1,1S447.6,330.6,447.6,330.1z"/>
		<path class="st9" d="M447.6,335.9c0-0.5-0.4-1-1-1s-1,0.4-1,1c0,0.5,0.4,1,1,1S447.6,336.4,447.6,335.9z"/>
		<path class="st9" d="M447.6,341.7c0-0.5-0.4-1-1-1s-1,0.4-1,1c0,0.5,0.4,1,1,1S447.6,342.2,447.6,341.7z"/>
		<path class="st9" d="M447.6,347.5c0-0.5-0.4-1-1-1s-1,0.4-1,1c0,0.5,0.4,1,1,1S447.6,348,447.6,347.5z"/>
		<path class="st9" d="M447.6,353.3c0-0.5-0.4-1-1-1s-1,0.4-1,1c0,0.5,0.4,1,1,1S447.6,353.8,447.6,353.3z"/>
		<path class="st9" d="M447.6,359.1c0-0.5-0.4-1-1-1s-1,0.4-1,1c0,0.5,0.4,1,1,1S447.6,359.6,447.6,359.1z"/>
		<path class="st9" d="M447.6,364.9c0-0.5-0.4-1-1-1s-1,0.4-1,1c0,0.5,0.4,1,1,1S447.6,365.4,447.6,364.9z"/>
		<path class="st9" d="M447.6,370.7c0-0.5-0.4-1-1-1s-1,0.4-1,1c0,0.5,0.4,1,1,1S447.6,371.2,447.6,370.7z"/>
		<path class="st9" d="M441.8,330.1c0-0.5-0.4-1-1-1s-1,0.4-1,1c0,0.5,0.4,1,1,1S441.8,330.6,441.8,330.1z"/>
		<path class="st9" d="M441.8,335.9c0-0.5-0.4-1-1-1s-1,0.4-1,1c0,0.5,0.4,1,1,1S441.8,336.4,441.8,335.9z"/>
		<path class="st9" d="M441.8,341.7c0-0.5-0.4-1-1-1s-1,0.4-1,1c0,0.5,0.4,1,1,1S441.8,342.2,441.8,341.7z"/>
		<path class="st9" d="M441.8,347.5c0-0.5-0.4-1-1-1s-1,0.4-1,1c0,0.5,0.4,1,1,1S441.8,348,441.8,347.5z"/>
		<path class="st9" d="M441.8,353.3c0-0.5-0.4-1-1-1s-1,0.4-1,1c0,0.5,0.4,1,1,1S441.8,353.8,441.8,353.3z"/>
		<path class="st9" d="M441.8,359.1c0-0.5-0.4-1-1-1s-1,0.4-1,1c0,0.5,0.4,1,1,1S441.8,359.6,441.8,359.1z"/>
		<path class="st9" d="M441.8,364.9c0-0.5-0.4-1-1-1s-1,0.4-1,1c0,0.5,0.4,1,1,1S441.8,365.4,441.8,364.9z"/>
		<path class="st9" d="M441.8,370.7c0-0.5-0.4-1-1-1s-1,0.4-1,1c0,0.5,0.4,1,1,1S441.8,371.2,441.8,370.7z"/>
		<path class="st9" d="M436,330.1c0-0.5-0.4-1-1-1c-0.5,0-1,0.4-1,1c0,0.5,0.4,1,1,1C435.6,331.1,436,330.6,436,330.1z"/>
		<path class="st9" d="M436,335.9c0-0.5-0.4-1-1-1c-0.5,0-1,0.4-1,1c0,0.5,0.4,1,1,1C435.6,336.9,436,336.4,436,335.9z"/>
		<path class="st9" d="M436,341.7c0-0.5-0.4-1-1-1c-0.5,0-1,0.4-1,1c0,0.5,0.4,1,1,1C435.6,342.7,436,342.2,436,341.7z"/>
		<path class="st9" d="M436,347.5c0-0.5-0.4-1-1-1c-0.5,0-1,0.4-1,1c0,0.5,0.4,1,1,1C435.6,348.5,436,348,436,347.5z"/>
		<path class="st9" d="M436,353.3c0-0.5-0.4-1-1-1c-0.5,0-1,0.4-1,1c0,0.5,0.4,1,1,1C435.6,354.3,436,353.8,436,353.3z"/>
		<path class="st9" d="M436,359.1c0-0.5-0.4-1-1-1c-0.5,0-1,0.4-1,1c0,0.5,0.4,1,1,1C435.6,360,436,359.6,436,359.1z"/>
		<path class="st9" d="M436,364.9c0-0.5-0.4-1-1-1c-0.5,0-1,0.4-1,1c0,0.5,0.4,1,1,1C435.6,365.8,436,365.4,436,364.9z"/>
		<path class="st9" d="M436,370.7c0-0.5-0.4-1-1-1c-0.5,0-1,0.4-1,1c0,0.5,0.4,1,1,1C435.6,371.6,436,371.2,436,370.7z"/>
		<path class="st9" d="M430.2,330.1c0-0.5-0.4-1-1-1c-0.5,0-1,0.4-1,1c0,0.5,0.4,1,1,1C429.8,331.1,430.2,330.6,430.2,330.1z"/>
		<path class="st9" d="M430.2,335.9c0-0.5-0.4-1-1-1c-0.5,0-1,0.4-1,1c0,0.5,0.4,1,1,1C429.8,336.9,430.2,336.4,430.2,335.9z"/>
		<path class="st9" d="M430.2,341.7c0-0.5-0.4-1-1-1c-0.5,0-1,0.4-1,1c0,0.5,0.4,1,1,1C429.8,342.7,430.2,342.2,430.2,341.7z"/>
		<path class="st9" d="M430.2,347.5c0-0.5-0.4-1-1-1c-0.5,0-1,0.4-1,1c0,0.5,0.4,1,1,1C429.8,348.5,430.2,348,430.2,347.5z"/>
		<path class="st9" d="M430.2,353.3c0-0.5-0.4-1-1-1c-0.5,0-1,0.4-1,1c0,0.5,0.4,1,1,1C429.8,354.3,430.2,353.8,430.2,353.3z"/>
		<path class="st9" d="M430.2,359.1c0-0.5-0.4-1-1-1c-0.5,0-1,0.4-1,1c0,0.5,0.4,1,1,1C429.8,360,430.2,359.6,430.2,359.1z"/>
		<path class="st9" d="M430.2,364.9c0-0.5-0.4-1-1-1c-0.5,0-1,0.4-1,1c0,0.5,0.4,1,1,1C429.8,365.8,430.2,365.4,430.2,364.9z"/>
		<path class="st9" d="M424.4,364.9c0-0.5-0.4-1-1-1s-1,0.4-1,1c0,0.5,0.4,1,1,1S424.4,365.4,424.4,364.9z"/>
		<path class="st9" d="M424.4,330.1c0-0.5-0.4-1-1-1s-1,0.4-1,1c0,0.5,0.4,1,1,1S424.4,330.6,424.4,330.1z"/>
		<path class="st9" d="M424.4,335.9c0-0.5-0.4-1-1-1s-1,0.4-1,1c0,0.5,0.4,1,1,1S424.4,336.4,424.4,335.9z"/>
		<path class="st9" d="M424.4,341.7c0-0.5-0.4-1-1-1s-1,0.4-1,1c0,0.5,0.4,1,1,1S424.4,342.2,424.4,341.7z"/>
		<path class="st9" d="M424.4,347.5c0-0.5-0.4-1-1-1s-1,0.4-1,1c0,0.5,0.4,1,1,1S424.4,348,424.4,347.5z"/>
		<path class="st9" d="M424.4,353.3c0-0.5-0.4-1-1-1s-1,0.4-1,1c0,0.5,0.4,1,1,1S424.4,353.8,424.4,353.3z"/>
		<path class="st9" d="M424.4,359.1c0-0.5-0.4-1-1-1s-1,0.4-1,1c0,0.5,0.4,1,1,1S424.4,359.6,424.4,359.1z"/>
		<path class="st9" d="M418.6,330.1c0-0.5-0.4-1-1-1s-1,0.4-1,1c0,0.5,0.4,1,1,1S418.6,330.6,418.6,330.1z"/>
		<path class="st9" d="M418.6,335.9c0-0.5-0.4-1-1-1s-1,0.4-1,1c0,0.5,0.4,1,1,1S418.6,336.4,418.6,335.9z"/>
		<path class="st9" d="M418.6,341.7c0-0.5-0.4-1-1-1s-1,0.4-1,1c0,0.5,0.4,1,1,1S418.6,342.2,418.6,341.7z"/>
		<path class="st9" d="M418.6,347.5c0-0.5-0.4-1-1-1s-1,0.4-1,1c0,0.5,0.4,1,1,1S418.6,348,418.6,347.5z"/>
		<path class="st9" d="M418.6,353.3c0-0.5-0.4-1-1-1s-1,0.4-1,1c0,0.5,0.4,1,1,1S418.6,353.8,418.6,353.3z"/>
		<path class="st9" d="M418.6,359.1c0-0.5-0.4-1-1-1s-1,0.4-1,1c0,0.5,0.4,1,1,1S418.6,359.6,418.6,359.1z"/>
		<path class="st9" d="M412.8,330.1c0-0.5-0.4-1-1-1c-0.5,0-1,0.4-1,1c0,0.5,0.4,1,1,1C412.4,331.1,412.8,330.6,412.8,330.1z"/>
		<path class="st9" d="M412.8,335.9c0-0.5-0.4-1-1-1c-0.5,0-1,0.4-1,1c0,0.5,0.4,1,1,1C412.4,336.9,412.8,336.4,412.8,335.9z"/>
		<path class="st9" d="M412.8,341.7c0-0.5-0.4-1-1-1c-0.5,0-1,0.4-1,1c0,0.5,0.4,1,1,1C412.4,342.7,412.8,342.2,412.8,341.7z"/>
		<path class="st9" d="M412.8,347.5c0-0.5-0.4-1-1-1c-0.5,0-1,0.4-1,1c0,0.5,0.4,1,1,1C412.4,348.5,412.8,348,412.8,347.5z"/>
		<path class="st9" d="M412.8,353.3c0-0.5-0.4-1-1-1c-0.5,0-1,0.4-1,1c0,0.5,0.4,1,1,1C412.4,354.3,412.8,353.8,412.8,353.3z"/>
		<path class="st9" d="M407,330.1c0-0.5-0.4-1-1-1s-1,0.4-1,1c0,0.5,0.4,1,1,1S407,330.6,407,330.1z"/>
		<path class="st9" d="M407,335.9c0-0.5-0.4-1-1-1s-1,0.4-1,1c0,0.5,0.4,1,1,1S407,336.4,407,335.9z"/>
		<path class="st9" d="M407,341.7c0-0.5-0.4-1-1-1s-1,0.4-1,1c0,0.5,0.4,1,1,1S407,342.2,407,341.7z"/>
		<path class="st9" d="M453.4,283.8c0-0.5-0.4-1-1-1c-0.5,0-1,0.4-1,1c0,0.5,0.4,1,1,1C453,284.7,453.4,284.3,453.4,283.8z"/>
		<path class="st9" d="M453.4,289.6c0-0.5-0.4-1-1-1c-0.5,0-1,0.4-1,1c0,0.5,0.4,1,1,1C453,290.5,453.4,290.1,453.4,289.6z"/>
		<path class="st9" d="M453.4,295.3c0-0.5-0.4-1-1-1c-0.5,0-1,0.4-1,1c0,0.5,0.4,1,1,1C453,296.3,453.4,295.9,453.4,295.3z"/>
		<path class="st9" d="M453.4,301.1c0-0.5-0.4-1-1-1c-0.5,0-1,0.4-1,1s0.4,1,1,1C453,302.1,453.4,301.7,453.4,301.1z"/>
		<path class="st9" d="M453.4,306.9c0-0.5-0.4-1-1-1c-0.5,0-1,0.4-1,1s0.4,1,1,1C453,307.9,453.4,307.5,453.4,306.9z"/>
		<path class="st9" d="M453.4,312.7c0-0.5-0.4-1-1-1c-0.5,0-1,0.4-1,1c0,0.5,0.4,1,1,1C453,313.7,453.4,313.3,453.4,312.7z"/>
		<path class="st9" d="M453.4,318.5c0-0.5-0.4-1-1-1c-0.5,0-1,0.4-1,1c0,0.5,0.4,1,1,1C453,319.5,453.4,319.1,453.4,318.5z"/>
		<path class="st9" d="M453.4,324.3c0-0.5-0.4-1-1-1c-0.5,0-1,0.4-1,1c0,0.5,0.4,1,1,1C453,325.3,453.4,324.9,453.4,324.3z"/>
		<path class="st9" d="M447.6,283.8c0-0.5-0.4-1-1-1s-1,0.4-1,1c0,0.5,0.4,1,1,1S447.6,284.3,447.6,283.8z"/>
		<path class="st9" d="M447.6,289.6c0-0.5-0.4-1-1-1s-1,0.4-1,1c0,0.5,0.4,1,1,1S447.6,290.1,447.6,289.6z"/>
		<path class="st9" d="M447.6,295.3c0-0.5-0.4-1-1-1s-1,0.4-1,1c0,0.5,0.4,1,1,1S447.6,295.9,447.6,295.3z"/>
		<path class="st9" d="M447.6,301.1c0-0.5-0.4-1-1-1s-1,0.4-1,1s0.4,1,1,1S447.6,301.7,447.6,301.1z"/>
		<path class="st9" d="M447.6,306.9c0-0.5-0.4-1-1-1s-1,0.4-1,1s0.4,1,1,1S447.6,307.5,447.6,306.9z"/>
		<path class="st9" d="M447.6,312.7c0-0.5-0.4-1-1-1s-1,0.4-1,1c0,0.5,0.4,1,1,1S447.6,313.3,447.6,312.7z"/>
		<path class="st9" d="M447.6,318.5c0-0.5-0.4-1-1-1s-1,0.4-1,1c0,0.5,0.4,1,1,1S447.6,319.1,447.6,318.5z"/>
		<path class="st9" d="M447.6,324.3c0-0.5-0.4-1-1-1s-1,0.4-1,1c0,0.5,0.4,1,1,1S447.6,324.9,447.6,324.3z"/>
		<path class="st9" d="M441.8,283.8c0-0.5-0.4-1-1-1s-1,0.4-1,1c0,0.5,0.4,1,1,1S441.8,284.3,441.8,283.8z"/>
		<path class="st9" d="M441.8,289.6c0-0.5-0.4-1-1-1s-1,0.4-1,1c0,0.5,0.4,1,1,1S441.8,290.1,441.8,289.6z"/>
		<path class="st9" d="M441.8,295.3c0-0.5-0.4-1-1-1s-1,0.4-1,1c0,0.5,0.4,1,1,1S441.8,295.9,441.8,295.3z"/>
		<path class="st9" d="M441.8,301.1c0-0.5-0.4-1-1-1s-1,0.4-1,1s0.4,1,1,1S441.8,301.7,441.8,301.1z"/>
		<path class="st9" d="M441.8,306.9c0-0.5-0.4-1-1-1s-1,0.4-1,1s0.4,1,1,1S441.8,307.5,441.8,306.9z"/>
		<path class="st9" d="M441.8,312.7c0-0.5-0.4-1-1-1s-1,0.4-1,1c0,0.5,0.4,1,1,1S441.8,313.3,441.8,312.7z"/>
		<path class="st9" d="M441.8,318.5c0-0.5-0.4-1-1-1s-1,0.4-1,1c0,0.5,0.4,1,1,1S441.8,319.1,441.8,318.5z"/>
		<path class="st9" d="M441.8,324.3c0-0.5-0.4-1-1-1s-1,0.4-1,1c0,0.5,0.4,1,1,1S441.8,324.9,441.8,324.3z"/>
		<path class="st9" d="M436,289.6c0-0.5-0.4-1-1-1c-0.5,0-1,0.4-1,1c0,0.5,0.4,1,1,1C435.6,290.5,436,290.1,436,289.6z"/>
		<path class="st9" d="M436,283.8c0-0.5-0.4-1-1-1c-0.5,0-1,0.4-1,1c0,0.5,0.4,1,1,1C435.6,284.7,436,284.3,436,283.8z"/>
		<path class="st9" d="M436,295.3c0-0.5-0.4-1-1-1c-0.5,0-1,0.4-1,1c0,0.5,0.4,1,1,1C435.6,296.3,436,295.9,436,295.3z"/>
		<path class="st9" d="M436,301.1c0-0.5-0.4-1-1-1c-0.5,0-1,0.4-1,1s0.4,1,1,1C435.6,302.1,436,301.7,436,301.1z"/>
		<path class="st9" d="M436,306.9c0-0.5-0.4-1-1-1c-0.5,0-1,0.4-1,1s0.4,1,1,1C435.6,307.9,436,307.5,436,306.9z"/>
		<path class="st9" d="M436,312.7c0-0.5-0.4-1-1-1c-0.5,0-1,0.4-1,1c0,0.5,0.4,1,1,1C435.6,313.7,436,313.3,436,312.7z"/>
		<path class="st9" d="M436,318.5c0-0.5-0.4-1-1-1c-0.5,0-1,0.4-1,1c0,0.5,0.4,1,1,1C435.6,319.5,436,319.1,436,318.5z"/>
		<path class="st9" d="M436,324.3c0-0.5-0.4-1-1-1c-0.5,0-1,0.4-1,1c0,0.5,0.4,1,1,1C435.6,325.3,436,324.9,436,324.3z"/>
		<path class="st9" d="M430.2,289.6c0-0.5-0.4-1-1-1c-0.5,0-1,0.4-1,1c0,0.5,0.4,1,1,1C429.8,290.5,430.2,290.1,430.2,289.6z"/>
		<path class="st9" d="M430.2,295.3c0-0.5-0.4-1-1-1c-0.5,0-1,0.4-1,1c0,0.5,0.4,1,1,1C429.8,296.3,430.2,295.9,430.2,295.3z"/>
		<path class="st9" d="M430.2,301.1c0-0.5-0.4-1-1-1c-0.5,0-1,0.4-1,1s0.4,1,1,1C429.8,302.1,430.2,301.7,430.2,301.1z"/>
		<path class="st9" d="M430.2,306.9c0-0.5-0.4-1-1-1c-0.5,0-1,0.4-1,1s0.4,1,1,1C429.8,307.9,430.2,307.5,430.2,306.9z"/>
		<path class="st9" d="M430.2,312.7c0-0.5-0.4-1-1-1c-0.5,0-1,0.4-1,1c0,0.5,0.4,1,1,1C429.8,313.7,430.2,313.3,430.2,312.7z"/>
		<path class="st9" d="M430.2,318.5c0-0.5-0.4-1-1-1c-0.5,0-1,0.4-1,1c0,0.5,0.4,1,1,1C429.8,319.5,430.2,319.1,430.2,318.5z"/>
		<path class="st9" d="M430.2,324.3c0-0.5-0.4-1-1-1c-0.5,0-1,0.4-1,1c0,0.5,0.4,1,1,1C429.8,325.3,430.2,324.9,430.2,324.3z"/>
		<path class="st9" d="M424.4,295.3c0-0.5-0.4-1-1-1s-1,0.4-1,1c0,0.5,0.4,1,1,1S424.4,295.9,424.4,295.3z"/>
		<path class="st9" d="M424.4,289.6c0-0.5-0.4-1-1-1s-1,0.4-1,1c0,0.5,0.4,1,1,1S424.4,290.1,424.4,289.6z"/>
		<path class="st9" d="M424.4,301.1c0-0.5-0.4-1-1-1s-1,0.4-1,1s0.4,1,1,1S424.4,301.7,424.4,301.1z"/>
		<path class="st9" d="M424.4,306.9c0-0.5-0.4-1-1-1s-1,0.4-1,1s0.4,1,1,1S424.4,307.5,424.4,306.9z"/>
		<path class="st9" d="M424.4,312.7c0-0.5-0.4-1-1-1s-1,0.4-1,1c0,0.5,0.4,1,1,1S424.4,313.3,424.4,312.7z"/>
		<path class="st9" d="M424.4,318.5c0-0.5-0.4-1-1-1s-1,0.4-1,1c0,0.5,0.4,1,1,1S424.4,319.1,424.4,318.5z"/>
		<path class="st9" d="M424.4,324.3c0-0.5-0.4-1-1-1s-1,0.4-1,1c0,0.5,0.4,1,1,1S424.4,324.9,424.4,324.3z"/>
		<path class="st9" d="M418.6,295.3c0-0.5-0.4-1-1-1s-1,0.4-1,1c0,0.5,0.4,1,1,1S418.6,295.9,418.6,295.3z"/>
		<path class="st9" d="M418.6,301.1c0-0.5-0.4-1-1-1s-1,0.4-1,1s0.4,1,1,1S418.6,301.7,418.6,301.1z"/>
		<path class="st9" d="M418.6,306.9c0-0.5-0.4-1-1-1s-1,0.4-1,1s0.4,1,1,1S418.6,307.5,418.6,306.9z"/>
		<path class="st9" d="M418.6,312.7c0-0.5-0.4-1-1-1s-1,0.4-1,1c0,0.5,0.4,1,1,1S418.6,313.3,418.6,312.7z"/>
		<path class="st9" d="M418.6,318.5c0-0.5-0.4-1-1-1s-1,0.4-1,1c0,0.5,0.4,1,1,1S418.6,319.1,418.6,318.5z"/>
		<path class="st9" d="M418.6,324.3c0-0.5-0.4-1-1-1s-1,0.4-1,1c0,0.5,0.4,1,1,1S418.6,324.9,418.6,324.3z"/>
		<path class="st9" d="M412.8,306.9c0-0.5-0.4-1-1-1c-0.5,0-1,0.4-1,1s0.4,1,1,1C412.4,307.9,412.8,307.5,412.8,306.9z"/>
		<path class="st9" d="M412.8,301.1c0-0.5-0.4-1-1-1c-0.5,0-1,0.4-1,1s0.4,1,1,1C412.4,302.1,412.8,301.7,412.8,301.1z"/>
		<path class="st9" d="M412.8,312.7c0-0.5-0.4-1-1-1c-0.5,0-1,0.4-1,1c0,0.5,0.4,1,1,1C412.4,313.7,412.8,313.3,412.8,312.7z"/>
		<path class="st9" d="M412.8,318.5c0-0.5-0.4-1-1-1c-0.5,0-1,0.4-1,1c0,0.5,0.4,1,1,1C412.4,319.5,412.8,319.1,412.8,318.5z"/>
		<path class="st9" d="M412.8,324.3c0-0.5-0.4-1-1-1c-0.5,0-1,0.4-1,1c0,0.5,0.4,1,1,1C412.4,325.3,412.8,324.9,412.8,324.3z"/>
		<path class="st9" d="M407,318.5c0-0.5-0.4-1-1-1s-1,0.4-1,1c0,0.5,0.4,1,1,1S407,319.1,407,318.5z"/>
		<path class="st9" d="M407,312.7c0-0.5-0.4-1-1-1s-1,0.4-1,1c0,0.5,0.4,1,1,1S407,313.3,407,312.7z"/>
		<path class="st9" d="M407,324.3c0-0.5-0.4-1-1-1s-1,0.4-1,1c0,0.5,0.4,1,1,1S407,324.9,407,324.3z"/>
		<path class="st9" d="M494,330.1c0-0.5-0.4-1-1-1c-0.5,0-1,0.4-1,1c0,0.5,0.4,1,1,1C493.6,331.1,494,330.6,494,330.1z"/>
		<path class="st9" d="M494,335.9c0-0.5-0.4-1-1-1c-0.5,0-1,0.4-1,1c0,0.5,0.4,1,1,1C493.6,336.9,494,336.4,494,335.9z"/>
		<path class="st9" d="M494,341.7c0-0.5-0.4-1-1-1c-0.5,0-1,0.4-1,1c0,0.5,0.4,1,1,1C493.6,342.7,494,342.2,494,341.7z"/>
		<path class="st9" d="M488.2,330.1c0-0.5-0.4-1-1-1s-1,0.4-1,1c0,0.5,0.4,1,1,1S488.2,330.6,488.2,330.1z"/>
		<path class="st9" d="M488.2,335.9c0-0.5-0.4-1-1-1s-1,0.4-1,1c0,0.5,0.4,1,1,1S488.2,336.4,488.2,335.9z"/>
		<path class="st9" d="M488.2,341.7c0-0.5-0.4-1-1-1s-1,0.4-1,1c0,0.5,0.4,1,1,1S488.2,342.2,488.2,341.7z"/>
		<path class="st9" d="M488.2,347.5c0-0.5-0.4-1-1-1s-1,0.4-1,1c0,0.5,0.4,1,1,1S488.2,348,488.2,347.5z"/>
		<path class="st9" d="M488.2,353.3c0-0.5-0.4-1-1-1s-1,0.4-1,1c0,0.5,0.4,1,1,1S488.2,353.8,488.2,353.3z"/>
		<path class="st9" d="M482.4,330.1c0-0.5-0.4-1-1-1c-0.5,0-1,0.4-1,1c0,0.5,0.4,1,1,1C482,331.1,482.4,330.6,482.4,330.1z"/>
		<path class="st9" d="M482.4,335.9c0-0.5-0.4-1-1-1c-0.5,0-1,0.4-1,1c0,0.5,0.4,1,1,1C482,336.9,482.4,336.4,482.4,335.9z"/>
		<path class="st9" d="M482.4,341.7c0-0.5-0.4-1-1-1c-0.5,0-1,0.4-1,1c0,0.5,0.4,1,1,1C482,342.7,482.4,342.2,482.4,341.7z"/>
		<path class="st9" d="M482.4,347.5c0-0.5-0.4-1-1-1c-0.5,0-1,0.4-1,1c0,0.5,0.4,1,1,1C482,348.5,482.4,348,482.4,347.5z"/>
		<path class="st9" d="M482.4,353.3c0-0.5-0.4-1-1-1c-0.5,0-1,0.4-1,1c0,0.5,0.4,1,1,1C482,354.3,482.4,353.8,482.4,353.3z"/>
		<path class="st9" d="M482.4,359.1c0-0.5-0.4-1-1-1c-0.5,0-1,0.4-1,1c0,0.5,0.4,1,1,1C482,360,482.4,359.6,482.4,359.1z"/>
		<path class="st9" d="M476.6,330.1c0-0.5-0.4-1-1-1c-0.5,0-1,0.4-1,1c0,0.5,0.4,1,1,1C476.2,331.1,476.6,330.6,476.6,330.1z"/>
		<path class="st9" d="M476.6,335.9c0-0.5-0.4-1-1-1c-0.5,0-1,0.4-1,1c0,0.5,0.4,1,1,1C476.2,336.9,476.6,336.4,476.6,335.9z"/>
		<path class="st9" d="M476.6,341.7c0-0.5-0.4-1-1-1c-0.5,0-1,0.4-1,1c0,0.5,0.4,1,1,1C476.2,342.7,476.6,342.2,476.6,341.7z"/>
		<path class="st9" d="M476.6,347.5c0-0.5-0.4-1-1-1c-0.5,0-1,0.4-1,1c0,0.5,0.4,1,1,1C476.2,348.5,476.6,348,476.6,347.5z"/>
		<path class="st9" d="M476.6,353.3c0-0.5-0.4-1-1-1c-0.5,0-1,0.4-1,1c0,0.5,0.4,1,1,1C476.2,354.3,476.6,353.8,476.6,353.3z"/>
		<path class="st9" d="M476.6,359.1c0-0.5-0.4-1-1-1c-0.5,0-1,0.4-1,1c0,0.5,0.4,1,1,1C476.2,360,476.6,359.6,476.6,359.1z"/>
		<path class="st9" d="M476.6,364.9c0-0.5-0.4-1-1-1c-0.5,0-1,0.4-1,1c0,0.5,0.4,1,1,1C476.2,365.8,476.6,365.4,476.6,364.9z"/>
		<path class="st9" d="M470.8,330.1c0-0.5-0.4-1-1-1c-0.5,0-1,0.4-1,1c0,0.5,0.4,1,1,1C470.4,331.1,470.8,330.6,470.8,330.1z"/>
		<path class="st9" d="M470.8,335.9c0-0.5-0.4-1-1-1c-0.5,0-1,0.4-1,1c0,0.5,0.4,1,1,1C470.4,336.9,470.8,336.4,470.8,335.9z"/>
		<path class="st9" d="M470.8,341.7c0-0.5-0.4-1-1-1c-0.5,0-1,0.4-1,1c0,0.5,0.4,1,1,1C470.4,342.7,470.8,342.2,470.8,341.7z"/>
		<path class="st9" d="M470.8,347.5c0-0.5-0.4-1-1-1c-0.5,0-1,0.4-1,1c0,0.5,0.4,1,1,1C470.4,348.5,470.8,348,470.8,347.5z"/>
		<path class="st9" d="M470.8,353.3c0-0.5-0.4-1-1-1c-0.5,0-1,0.4-1,1c0,0.5,0.4,1,1,1C470.4,354.3,470.8,353.8,470.8,353.3z"/>
		<path class="st9" d="M470.8,359.1c0-0.5-0.4-1-1-1c-0.5,0-1,0.4-1,1c0,0.5,0.4,1,1,1C470.4,360,470.8,359.6,470.8,359.1z"/>
		<path class="st9" d="M470.8,364.9c0-0.5-0.4-1-1-1c-0.5,0-1,0.4-1,1c0,0.5,0.4,1,1,1C470.4,365.8,470.8,365.4,470.8,364.9z"/>
		<path class="st9" d="M465,330.1c0-0.5-0.4-1-1-1s-1,0.4-1,1c0,0.5,0.4,1,1,1S465,330.6,465,330.1z"/>
		<path class="st9" d="M465,335.9c0-0.5-0.4-1-1-1s-1,0.4-1,1c0,0.5,0.4,1,1,1S465,336.4,465,335.9z"/>
		<path class="st9" d="M465,341.7c0-0.5-0.4-1-1-1s-1,0.4-1,1c0,0.5,0.4,1,1,1S465,342.2,465,341.7z"/>
		<path class="st9" d="M465,347.5c0-0.5-0.4-1-1-1s-1,0.4-1,1c0,0.5,0.4,1,1,1S465,348,465,347.5z"/>
		<path class="st9" d="M465,353.3c0-0.5-0.4-1-1-1s-1,0.4-1,1c0,0.5,0.4,1,1,1S465,353.8,465,353.3z"/>
		<path class="st9" d="M465,359.1c0-0.5-0.4-1-1-1s-1,0.4-1,1c0,0.5,0.4,1,1,1S465,359.6,465,359.1z"/>
		<path class="st9" d="M465,364.9c0-0.5-0.4-1-1-1s-1,0.4-1,1c0,0.5,0.4,1,1,1S465,365.4,465,364.9z"/>
		<path class="st9" d="M465,370.7c0-0.5-0.4-1-1-1s-1,0.4-1,1c0,0.5,0.4,1,1,1S465,371.2,465,370.7z"/>
		<path class="st9" d="M459.2,330.1c0-0.5-0.4-1-1-1s-1,0.4-1,1c0,0.5,0.4,1,1,1S459.2,330.6,459.2,330.1z"/>
		<path class="st9" d="M459.2,335.9c0-0.5-0.4-1-1-1s-1,0.4-1,1c0,0.5,0.4,1,1,1S459.2,336.4,459.2,335.9z"/>
		<path class="st9" d="M459.2,341.7c0-0.5-0.4-1-1-1s-1,0.4-1,1c0,0.5,0.4,1,1,1S459.2,342.2,459.2,341.7z"/>
		<path class="st9" d="M459.2,347.5c0-0.5-0.4-1-1-1s-1,0.4-1,1c0,0.5,0.4,1,1,1S459.2,348,459.2,347.5z"/>
		<path class="st9" d="M459.2,353.3c0-0.5-0.4-1-1-1s-1,0.4-1,1c0,0.5,0.4,1,1,1S459.2,353.8,459.2,353.3z"/>
		<path class="st9" d="M459.2,359.1c0-0.5-0.4-1-1-1s-1,0.4-1,1c0,0.5,0.4,1,1,1S459.2,359.6,459.2,359.1z"/>
		<path class="st9" d="M459.2,364.9c0-0.5-0.4-1-1-1s-1,0.4-1,1c0,0.5,0.4,1,1,1S459.2,365.4,459.2,364.9z"/>
		<path class="st9" d="M459.2,370.7c0-0.5-0.4-1-1-1s-1,0.4-1,1c0,0.5,0.4,1,1,1S459.2,371.2,459.2,370.7z"/>
		<path class="st9" d="M494,318.5c0-0.5-0.4-1-1-1c-0.5,0-1,0.4-1,1c0,0.5,0.4,1,1,1C493.6,319.5,494,319.1,494,318.5z"/>
		<path class="st9" d="M494,312.7c0-0.5-0.4-1-1-1c-0.5,0-1,0.4-1,1c0,0.5,0.4,1,1,1C493.6,313.7,494,313.3,494,312.7z"/>
		<path class="st9" d="M494,324.3c0-0.5-0.4-1-1-1c-0.5,0-1,0.4-1,1c0,0.5,0.4,1,1,1C493.6,325.3,494,324.9,494,324.3z"/>
		<path class="st9" d="M488.2,306.9c0-0.5-0.4-1-1-1s-1,0.4-1,1s0.4,1,1,1S488.2,307.5,488.2,306.9z"/>
		<path class="st9" d="M488.2,301.1c0-0.5-0.4-1-1-1s-1,0.4-1,1s0.4,1,1,1S488.2,301.7,488.2,301.1z"/>
		<path class="st9" d="M488.2,312.7c0-0.5-0.4-1-1-1s-1,0.4-1,1c0,0.5,0.4,1,1,1S488.2,313.3,488.2,312.7z"/>
		<path class="st9" d="M488.2,318.5c0-0.5-0.4-1-1-1s-1,0.4-1,1c0,0.5,0.4,1,1,1S488.2,319.1,488.2,318.5z"/>
		<path class="st9" d="M488.2,324.3c0-0.5-0.4-1-1-1s-1,0.4-1,1c0,0.5,0.4,1,1,1S488.2,324.9,488.2,324.3z"/>
		<path class="st9" d="M482.4,295.3c0-0.5-0.4-1-1-1c-0.5,0-1,0.4-1,1c0,0.5,0.4,1,1,1C482,296.3,482.4,295.9,482.4,295.3z"/>
		<path class="st9" d="M482.4,301.1c0-0.5-0.4-1-1-1c-0.5,0-1,0.4-1,1s0.4,1,1,1C482,302.1,482.4,301.7,482.4,301.1z"/>
		<path class="st9" d="M482.4,306.9c0-0.5-0.4-1-1-1c-0.5,0-1,0.4-1,1s0.4,1,1,1C482,307.9,482.4,307.5,482.4,306.9z"/>
		<path class="st9" d="M482.4,312.7c0-0.5-0.4-1-1-1c-0.5,0-1,0.4-1,1c0,0.5,0.4,1,1,1C482,313.7,482.4,313.3,482.4,312.7z"/>
		<path class="st9" d="M482.4,318.5c0-0.5-0.4-1-1-1c-0.5,0-1,0.4-1,1c0,0.5,0.4,1,1,1C482,319.5,482.4,319.1,482.4,318.5z"/>
		<path class="st9" d="M482.4,324.3c0-0.5-0.4-1-1-1c-0.5,0-1,0.4-1,1c0,0.5,0.4,1,1,1C482,325.3,482.4,324.9,482.4,324.3z"/>
		<path class="st9" d="M476.6,295.3c0-0.5-0.4-1-1-1c-0.5,0-1,0.4-1,1c0,0.5,0.4,1,1,1C476.2,296.3,476.6,295.9,476.6,295.3z"/>
		<path class="st9" d="M476.6,289.6c0-0.5-0.4-1-1-1c-0.5,0-1,0.4-1,1c0,0.5,0.4,1,1,1C476.2,290.5,476.6,290.1,476.6,289.6z"/>
		<path class="st9" d="M476.6,301.1c0-0.5-0.4-1-1-1c-0.5,0-1,0.4-1,1s0.4,1,1,1C476.2,302.1,476.6,301.7,476.6,301.1z"/>
		<path class="st9" d="M476.6,306.9c0-0.5-0.4-1-1-1c-0.5,0-1,0.4-1,1s0.4,1,1,1C476.2,307.9,476.6,307.5,476.6,306.9z"/>
		<path class="st9" d="M476.6,312.7c0-0.5-0.4-1-1-1c-0.5,0-1,0.4-1,1c0,0.5,0.4,1,1,1C476.2,313.7,476.6,313.3,476.6,312.7z"/>
		<path class="st9" d="M476.6,318.5c0-0.5-0.4-1-1-1c-0.5,0-1,0.4-1,1c0,0.5,0.4,1,1,1C476.2,319.5,476.6,319.1,476.6,318.5z"/>
		<path class="st9" d="M476.6,324.3c0-0.5-0.4-1-1-1c-0.5,0-1,0.4-1,1c0,0.5,0.4,1,1,1C476.2,325.3,476.6,324.9,476.6,324.3z"/>
		<path class="st9" d="M470.8,289.6c0-0.5-0.4-1-1-1c-0.5,0-1,0.4-1,1c0,0.5,0.4,1,1,1C470.4,290.5,470.8,290.1,470.8,289.6z"/>
		<path class="st9" d="M470.8,289.6c0-0.5-0.4-1-1-1c-0.5,0-1,0.4-1,1c0,0.5,0.4,1,1,1C470.4,290.5,470.8,290.1,470.8,289.6z"/>
		<path class="st9" d="M470.8,295.3c0-0.5-0.4-1-1-1c-0.5,0-1,0.4-1,1c0,0.5,0.4,1,1,1C470.4,296.3,470.8,295.9,470.8,295.3z"/>
		<path class="st9" d="M470.8,301.1c0-0.5-0.4-1-1-1c-0.5,0-1,0.4-1,1s0.4,1,1,1C470.4,302.1,470.8,301.7,470.8,301.1z"/>
		<path class="st9" d="M470.8,306.9c0-0.5-0.4-1-1-1c-0.5,0-1,0.4-1,1s0.4,1,1,1C470.4,307.9,470.8,307.5,470.8,306.9z"/>
		<path class="st9" d="M470.8,312.7c0-0.5-0.4-1-1-1c-0.5,0-1,0.4-1,1c0,0.5,0.4,1,1,1C470.4,313.7,470.8,313.3,470.8,312.7z"/>
		<path class="st9" d="M470.8,318.5c0-0.5-0.4-1-1-1c-0.5,0-1,0.4-1,1c0,0.5,0.4,1,1,1C470.4,319.5,470.8,319.1,470.8,318.5z"/>
		<path class="st9" d="M470.8,324.3c0-0.5-0.4-1-1-1c-0.5,0-1,0.4-1,1c0,0.5,0.4,1,1,1C470.4,325.3,470.8,324.9,470.8,324.3z"/>
		<path class="st9" d="M465,289.6c0-0.5-0.4-1-1-1s-1,0.4-1,1c0,0.5,0.4,1,1,1S465,290.1,465,289.6z"/>
		<path class="st9" d="M465,283.8c0-0.5-0.4-1-1-1s-1,0.4-1,1c0,0.5,0.4,1,1,1S465,284.3,465,283.8z"/>
		<path class="st9" d="M465,295.3c0-0.5-0.4-1-1-1s-1,0.4-1,1c0,0.5,0.4,1,1,1S465,295.9,465,295.3z"/>
		<path class="st9" d="M465,301.1c0-0.5-0.4-1-1-1s-1,0.4-1,1s0.4,1,1,1S465,301.7,465,301.1z"/>
		<path class="st9" d="M465,306.9c0-0.5-0.4-1-1-1s-1,0.4-1,1s0.4,1,1,1S465,307.5,465,306.9z"/>
		<path class="st9" d="M465,312.7c0-0.5-0.4-1-1-1s-1,0.4-1,1c0,0.5,0.4,1,1,1S465,313.3,465,312.7z"/>
		<path class="st9" d="M465,318.5c0-0.5-0.4-1-1-1s-1,0.4-1,1c0,0.5,0.4,1,1,1S465,319.1,465,318.5z"/>
		<path class="st9" d="M465,324.3c0-0.5-0.4-1-1-1s-1,0.4-1,1c0,0.5,0.4,1,1,1S465,324.9,465,324.3z"/>
		<path class="st9" d="M459.2,283.8c0-0.5-0.4-1-1-1s-1,0.4-1,1c0,0.5,0.4,1,1,1S459.2,284.3,459.2,283.8z"/>
		<path class="st9" d="M459.2,289.6c0-0.5-0.4-1-1-1s-1,0.4-1,1c0,0.5,0.4,1,1,1S459.2,290.1,459.2,289.6z"/>
		<path class="st9" d="M459.2,295.3c0-0.5-0.4-1-1-1s-1,0.4-1,1c0,0.5,0.4,1,1,1S459.2,295.9,459.2,295.3z"/>
		<path class="st9" d="M459.2,301.1c0-0.5-0.4-1-1-1s-1,0.4-1,1s0.4,1,1,1S459.2,301.7,459.2,301.1z"/>
		<path class="st9" d="M459.2,306.9c0-0.5-0.4-1-1-1s-1,0.4-1,1s0.4,1,1,1S459.2,307.5,459.2,306.9z"/>
		<path class="st9" d="M459.2,312.7c0-0.5-0.4-1-1-1s-1,0.4-1,1c0,0.5,0.4,1,1,1S459.2,313.3,459.2,312.7z"/>
		<path class="st9" d="M459.2,318.5c0-0.5-0.4-1-1-1s-1,0.4-1,1c0,0.5,0.4,1,1,1S459.2,319.1,459.2,318.5z"/>
		<path class="st9" d="M459.2,324.3c0-0.5-0.4-1-1-1s-1,0.4-1,1c0,0.5,0.4,1,1,1S459.2,324.9,459.2,324.3z"/>
	</g>
</g>
<g>
	<path class="st1" d="M108.5,103h326c1.4,0,2.5,1.1,2.5,2.5v298c0,1.4-1.1,2.5-2.5,2.5h-326c-1.4,0-2.5-1.1-2.5-2.5v-298
		C106,104.1,107.1,103,108.5,103z"/>
</g>
<path d="M166.4,130.1c0.8,0,1.4-0.3,1.9-0.8c0.5-0.5,0.8-1.2,0.8-2c0-0.9-0.2-1.5-0.8-2c-0.5-0.5-1.1-0.8-1.9-0.8s-1.4,0.3-1.9,0.8
	c-0.5,0.5-0.7,1.2-0.7,2c0,0.8,0.2,1.5,0.7,2C165,129.8,165.6,130.1,166.4,130.1z M166.4,131.3c-1.1,0-2.1-0.4-2.8-1.1
	c-0.8-0.8-1.2-1.7-1.2-2.9c0-1.2,0.4-2.1,1.2-2.9c0.8-0.8,1.7-1.1,2.8-1.1c1.1,0,2.1,0.4,2.8,1.1c0.8,0.7,1.2,1.7,1.2,2.9
	c0,1.2-0.4,2.1-1.2,2.9C168.4,130.9,167.5,131.3,166.4,131.3z M173.1,125v1.1c0.4-0.8,1-1.2,1.8-1.2v1.3h-0.3
	c-0.5,0-0.9,0.1-1.1,0.4c-0.3,0.3-0.4,0.7-0.4,1.3v3.2h-1.3V125H173.1z M180.4,129.6c0.4-0.4,0.6-0.9,0.6-1.5c0-0.6-0.2-1.1-0.6-1.5
	c-0.4-0.4-0.8-0.6-1.3-0.6c-0.5,0-0.9,0.2-1.3,0.5c-0.4,0.4-0.5,0.9-0.5,1.5c0,0.6,0.2,1.1,0.5,1.5c0.4,0.4,0.8,0.6,1.3,0.6
	C179.6,130.2,180.1,130,180.4,129.6z M178.9,131.3c-0.8,0-1.5-0.3-2.1-0.9c-0.6-0.6-0.8-1.4-0.8-2.3c0-0.9,0.3-1.7,0.8-2.3
	c0.6-0.6,1.3-0.9,2.1-0.9c0.5,0,0.9,0.1,1.3,0.3c0.4,0.2,0.7,0.5,0.9,0.9v-3.2h1.3v8.3H181V130c-0.2,0.4-0.5,0.7-0.9,0.9
	C179.8,131.2,179.3,131.3,178.9,131.3z M186.8,131.3c-0.9,0-1.6-0.3-2.2-0.9c-0.6-0.6-0.8-1.4-0.8-2.3s0.3-1.7,0.9-2.3
	c0.6-0.6,1.3-0.9,2.2-0.9c0.9,0,1.6,0.3,2.2,0.8c0.6,0.6,0.8,1.3,0.8,2.2c0,0.2,0,0.4,0,0.6h-4.7c0,0.5,0.2,0.9,0.5,1.2
	c0.3,0.3,0.7,0.4,1.2,0.4c0.7,0,1.2-0.3,1.5-0.9h1.4c-0.2,0.6-0.5,1-1,1.4C188.1,131.1,187.5,131.3,186.8,131.3z M188.5,127.6
	c0-0.5-0.2-0.9-0.5-1.2c-0.3-0.3-0.7-0.5-1.2-0.5c-0.5,0-0.9,0.2-1.2,0.5c-0.3,0.3-0.5,0.7-0.5,1.2H188.5z M192.6,125v1.1
	c0.4-0.8,1-1.2,1.8-1.2v1.3h-0.3c-0.5,0-0.9,0.1-1.1,0.4c-0.3,0.3-0.4,0.7-0.4,1.3v3.2h-1.3V125H192.6z M204.7,131.2l-0.6-1.6h-3.3
	l-0.6,1.6H199l2.8-7.8h1.5l2.8,7.8H204.7z M201.2,128.6h2.6l-1.3-3.7L201.2,128.6z M207.2,126.8c0-0.5,0.2-1,0.7-1.3
	c0.4-0.4,1-0.5,1.7-0.5c0.7,0,1.3,0.2,1.7,0.5c0.4,0.4,0.7,0.8,0.7,1.4h-1.3c0-0.3-0.1-0.5-0.3-0.7c-0.2-0.2-0.5-0.3-0.8-0.3
	s-0.6,0.1-0.8,0.2c-0.2,0.1-0.3,0.4-0.3,0.6c0,0.2,0.1,0.4,0.4,0.6s0.5,0.2,0.9,0.3c0.4,0.1,0.7,0.1,1.1,0.2
	c0.4,0.1,0.7,0.3,0.9,0.5c0.2,0.3,0.4,0.6,0.4,1c0,0.5-0.2,1-0.7,1.3c-0.4,0.3-1,0.5-1.7,0.5c-0.7,0-1.3-0.2-1.7-0.5
	c-0.4-0.3-0.7-0.8-0.7-1.5h1.3c0,0.3,0.1,0.5,0.3,0.7c0.2,0.2,0.5,0.3,0.8,0.3c0.4,0,0.6-0.1,0.8-0.2c0.2-0.2,0.3-0.4,0.3-0.6
	c0-0.3-0.1-0.5-0.4-0.6c-0.2-0.1-0.5-0.2-0.9-0.3c-0.4-0.1-0.7-0.2-1.1-0.2c-0.4-0.1-0.6-0.3-0.9-0.5
	C207.3,127.5,207.2,127.2,207.2,126.8z M213.4,126.8c0-0.5,0.2-1,0.7-1.3c0.4-0.4,1-0.5,1.7-0.5s1.3,0.2,1.7,0.5
	c0.4,0.4,0.7,0.8,0.7,1.4h-1.3c0-0.3-0.1-0.5-0.3-0.7c-0.2-0.2-0.5-0.3-0.8-0.3c-0.3,0-0.6,0.1-0.8,0.2c-0.2,0.1-0.3,0.4-0.3,0.6
	c0,0.2,0.1,0.4,0.4,0.6c0.2,0.1,0.5,0.2,0.9,0.3c0.4,0.1,0.7,0.1,1.1,0.2c0.4,0.1,0.7,0.3,0.9,0.5c0.2,0.3,0.4,0.6,0.4,1
	c0,0.5-0.2,1-0.7,1.3c-0.4,0.3-1,0.5-1.7,0.5s-1.3-0.2-1.7-0.5c-0.4-0.3-0.7-0.8-0.7-1.5h1.3c0,0.3,0.1,0.5,0.3,0.7
	c0.2,0.2,0.5,0.3,0.8,0.3c0.4,0,0.6-0.1,0.8-0.2c0.2-0.2,0.3-0.4,0.3-0.6c0-0.3-0.1-0.5-0.4-0.6c-0.2-0.1-0.5-0.2-0.9-0.3
	c-0.4-0.1-0.7-0.2-1.1-0.2c-0.4-0.1-0.6-0.3-0.9-0.5C213.5,127.5,213.4,127.2,213.4,126.8z M221.3,123.4c0,0.2-0.1,0.4-0.2,0.6
	c-0.2,0.2-0.4,0.2-0.6,0.2c-0.2,0-0.4-0.1-0.6-0.2c-0.2-0.2-0.2-0.4-0.2-0.6c0-0.2,0.1-0.4,0.2-0.6c0.2-0.2,0.3-0.2,0.6-0.2
	c0.2,0,0.4,0.1,0.6,0.2C221.2,122.9,221.3,123.1,221.3,123.4z M219.9,131.2V125h1.3v6.2H219.9z M225.5,131.3c-0.8,0-1.5-0.3-2.1-0.9
	c-0.6-0.6-0.8-1.4-0.8-2.3c0-0.9,0.3-1.7,0.8-2.3c0.6-0.6,1.3-0.9,2.1-0.9c0.5,0,0.9,0.1,1.3,0.3c0.4,0.2,0.7,0.5,0.9,0.9V125h1.3
	v6.3c0,0.9-0.3,1.6-0.8,2.1c-0.5,0.6-1.2,0.8-2.1,0.8c-0.9,0-1.6-0.2-2.2-0.6c-0.6-0.4-0.9-0.9-0.9-1.6h1.3c0.1,0.3,0.3,0.6,0.6,0.8
	c0.3,0.2,0.7,0.3,1.2,0.3c0.5,0,0.9-0.2,1.2-0.5c0.3-0.3,0.5-0.8,0.5-1.4V130c-0.2,0.4-0.5,0.7-0.9,0.9
	C226.4,131.2,226,131.3,225.5,131.3z M227.1,129.6c0.4-0.4,0.6-0.9,0.6-1.5c0-0.6-0.2-1.1-0.6-1.5c-0.4-0.4-0.8-0.6-1.3-0.6
	c-0.5,0-0.9,0.2-1.3,0.5c-0.4,0.4-0.5,0.9-0.5,1.5c0,0.6,0.2,1.1,0.5,1.5c0.4,0.4,0.8,0.6,1.3,0.6
	C226.3,130.2,226.7,130,227.1,129.6z M232.1,125v1c0.4-0.7,1.1-1.1,2-1.1c0.7,0,1.3,0.2,1.7,0.7c0.5,0.5,0.7,1.1,0.7,1.9v3.6h-1.3
	v-3.5c0-0.6-0.1-1-0.4-1.3c-0.3-0.3-0.7-0.4-1.1-0.4c-0.5,0-0.9,0.1-1.1,0.4c-0.3,0.3-0.4,0.7-0.4,1.3v3.5h-1.3V125H232.1z
	 M239.6,125v1c0.4-0.7,1.1-1.1,2-1.1c0.5,0,0.9,0.1,1.3,0.3c0.4,0.2,0.7,0.5,0.9,1c0.2-0.4,0.5-0.7,0.9-1c0.4-0.2,0.8-0.3,1.3-0.3
	c0.7,0,1.3,0.2,1.7,0.7c0.5,0.5,0.7,1.1,0.7,1.9v3.6h-1.3v-3.5c0-0.6-0.1-1-0.4-1.3c-0.3-0.3-0.7-0.4-1.1-0.4
	c-0.5,0-0.9,0.1-1.1,0.4c-0.3,0.3-0.4,0.7-0.4,1.3v3.5h-1.3v-3.5c0-0.6-0.1-1-0.4-1.3c-0.3-0.3-0.7-0.4-1.1-0.4s-0.9,0.1-1.1,0.4
	c-0.3,0.3-0.4,0.7-0.4,1.3v3.5h-1.3V125H239.6z M252.8,131.3c-0.9,0-1.6-0.3-2.2-0.9c-0.6-0.6-0.8-1.4-0.8-2.3s0.3-1.7,0.9-2.3
	c0.6-0.6,1.3-0.9,2.2-0.9c0.9,0,1.6,0.3,2.2,0.8c0.6,0.6,0.8,1.3,0.8,2.2c0,0.2,0,0.4,0,0.6h-4.7c0,0.5,0.2,0.9,0.5,1.2
	c0.3,0.3,0.7,0.4,1.2,0.4c0.7,0,1.2-0.3,1.5-0.9h1.4c-0.2,0.6-0.5,1-1,1.4C254.1,131.1,253.5,131.3,252.8,131.3z M254.5,127.6
	c0-0.5-0.2-0.9-0.5-1.2c-0.3-0.3-0.7-0.5-1.2-0.5c-0.5,0-0.9,0.2-1.2,0.5c-0.3,0.3-0.5,0.7-0.5,1.2H254.5z M258.6,125v1
	c0.4-0.7,1.1-1.1,2-1.1c0.7,0,1.3,0.2,1.7,0.7c0.5,0.5,0.7,1.1,0.7,1.9v3.6h-1.3v-3.5c0-0.6-0.1-1-0.4-1.3c-0.3-0.3-0.7-0.4-1.1-0.4
	s-0.9,0.1-1.1,0.4c-0.3,0.3-0.4,0.7-0.4,1.3v3.5h-1.3V125H258.6z M267.8,126h-1.5v3.4c0,0.2,0.1,0.4,0.2,0.5
	c0.1,0.1,0.3,0.1,0.6,0.1h0.8v1.1h-1c-1.2,0-1.8-0.6-1.8-1.7V126h-0.7v-1h0.7v-1.5h1.3v1.5h1.5V126z M272.8,123.4h1.3v6.8h2.6v1
	h-3.9V123.4z M282,129.6c0.4-0.4,0.6-0.9,0.6-1.6c0-0.7-0.2-1.2-0.5-1.5c-0.4-0.4-0.8-0.6-1.3-0.6c-0.5,0-0.9,0.2-1.3,0.6
	c-0.4,0.4-0.5,0.9-0.5,1.6c0,0.7,0.2,1.2,0.5,1.6c0.3,0.4,0.8,0.5,1.3,0.5C281.2,130.2,281.7,130,282,129.6z M280.7,131.3
	c-0.9,0-1.6-0.3-2.2-0.9c-0.6-0.6-0.9-1.4-0.9-2.3c0-1,0.3-1.7,0.9-2.3c0.6-0.6,1.4-0.9,2.3-0.9s1.6,0.3,2.2,0.9
	c0.6,0.6,0.9,1.3,0.9,2.3c0,0.9-0.3,1.7-0.9,2.3C282.4,131,281.6,131.3,280.7,131.3z M287.9,131.3c-0.8,0-1.5-0.3-2.1-0.9
	c-0.6-0.6-0.8-1.4-0.8-2.3c0-0.9,0.3-1.7,0.8-2.3c0.6-0.6,1.3-0.9,2.1-0.9c0.5,0,0.9,0.1,1.3,0.3c0.4,0.2,0.7,0.5,0.9,0.9V125h1.3
	v6.3c0,0.9-0.3,1.6-0.8,2.1c-0.5,0.6-1.2,0.8-2.1,0.8c-0.9,0-1.6-0.2-2.2-0.6c-0.6-0.4-0.9-0.9-0.9-1.6h1.3c0.1,0.3,0.3,0.6,0.6,0.8
	c0.3,0.2,0.7,0.3,1.2,0.3c0.5,0,0.9-0.2,1.2-0.5c0.3-0.3,0.5-0.8,0.5-1.4V130c-0.2,0.4-0.5,0.7-0.9,0.9
	C288.8,131.2,288.4,131.3,287.9,131.3z M289.4,129.6c0.4-0.4,0.6-0.9,0.6-1.5c0-0.6-0.2-1.1-0.6-1.5c-0.4-0.4-0.8-0.6-1.3-0.6
	s-0.9,0.2-1.3,0.5c-0.4,0.4-0.5,0.9-0.5,1.5c0,0.6,0.2,1.1,0.5,1.5c0.4,0.4,0.8,0.6,1.3,0.6S289.1,130,289.4,129.6z M294.7,123.4
	c0,0.2-0.1,0.4-0.2,0.6c-0.2,0.2-0.4,0.2-0.6,0.2c-0.2,0-0.4-0.1-0.6-0.2c-0.2-0.2-0.2-0.4-0.2-0.6c0-0.2,0.1-0.4,0.2-0.6
	c0.2-0.2,0.3-0.2,0.6-0.2c0.2,0,0.4,0.1,0.6,0.2C294.6,122.9,294.7,123.1,294.7,123.4z M293.2,131.2V125h1.3v6.2H293.2z M299,131.3
	c-0.9,0-1.6-0.3-2.2-0.9c-0.6-0.6-0.8-1.4-0.8-2.3c0-1,0.3-1.7,0.8-2.3c0.6-0.6,1.3-0.9,2.2-0.9c0.7,0,1.4,0.2,1.8,0.5
	c0.5,0.4,0.8,0.9,1,1.5h-1.4c-0.2-0.7-0.7-1-1.5-1c-0.5,0-0.9,0.2-1.3,0.6c-0.3,0.4-0.5,0.9-0.5,1.5c0,0.7,0.2,1.2,0.5,1.6
	c0.3,0.4,0.7,0.6,1.3,0.6c0.7,0,1.2-0.3,1.5-1h1.4c-0.2,0.6-0.5,1.1-1,1.5C300.3,131.1,299.7,131.3,299,131.3z"/>
<path class="st10" d="M178.9,169.2h55.5c1.6,0,2.9,1.3,2.9,2.9v12.3c0,1.6-1.3,2.9-2.9,2.9h-55.5c-1.6,0-2.9-1.3-2.9-2.9v-12.3
	C176,170.5,177.3,169.2,178.9,169.2z"/>
<path class="st11" d="M186.9,178.6c0-0.4,0.1-0.7,0.2-0.9c0.1-0.3,0.3-0.5,0.6-0.6c0.3-0.1,0.6-0.2,0.9-0.2c0.4,0,0.8,0.1,1.1,0.3
	c0.3,0.2,0.5,0.5,0.6,0.9h-0.9c-0.1-0.1-0.1-0.3-0.3-0.3c-0.1-0.1-0.3-0.1-0.4-0.1c-0.2,0-0.4,0.1-0.6,0.3c-0.1,0.2-0.2,0.4-0.2,0.8
	c0,0.3,0.1,0.6,0.2,0.8c0.1,0.2,0.3,0.3,0.6,0.3c0.4,0,0.6-0.2,0.7-0.5h0.9c-0.1,0.4-0.3,0.7-0.6,0.9c-0.3,0.2-0.6,0.3-1.1,0.3
	c-0.3,0-0.6-0.1-0.9-0.2c-0.3-0.2-0.5-0.4-0.6-0.6C187,179.3,186.9,178.9,186.9,178.6z M192.8,176.8c0.3,0,0.5,0.1,0.7,0.2
	c0.2,0.1,0.4,0.3,0.5,0.5c0.1,0.2,0.2,0.5,0.2,0.8v2h-0.9v-1.9c0-0.3-0.1-0.5-0.2-0.6c-0.1-0.1-0.3-0.2-0.6-0.2
	c-0.2,0-0.4,0.1-0.6,0.2c-0.1,0.1-0.2,0.4-0.2,0.6v1.9h-0.9v-4.6h0.9v1.6c0.1-0.1,0.3-0.3,0.4-0.3
	C192.4,176.9,192.6,176.8,192.8,176.8z M198.2,178.5c0,0.1,0,0.2,0,0.3h-2.5c0,0.2,0.1,0.4,0.3,0.6c0.2,0.1,0.3,0.2,0.6,0.2
	c0.3,0,0.6-0.1,0.7-0.4h0.9c-0.1,0.3-0.3,0.6-0.6,0.8c-0.3,0.2-0.6,0.3-1,0.3c-0.3,0-0.6-0.1-0.9-0.2c-0.3-0.2-0.5-0.4-0.6-0.6
	c-0.1-0.3-0.2-0.6-0.2-0.9c0-0.4,0.1-0.7,0.2-0.9c0.1-0.3,0.3-0.5,0.6-0.6c0.3-0.1,0.6-0.2,0.9-0.2c0.3,0,0.6,0.1,0.9,0.2
	c0.3,0.1,0.5,0.3,0.6,0.6C198.1,177.9,198.2,178.2,198.2,178.5z M197.3,178.3c0-0.2-0.1-0.4-0.2-0.5c-0.2-0.1-0.4-0.2-0.6-0.2
	c-0.2,0-0.4,0.1-0.5,0.2c-0.1,0.1-0.2,0.3-0.3,0.5H197.3z M198.6,178.6c0-0.4,0.1-0.7,0.2-0.9c0.1-0.3,0.3-0.5,0.6-0.6
	c0.3-0.1,0.6-0.2,0.9-0.2c0.4,0,0.8,0.1,1.1,0.3c0.3,0.2,0.5,0.5,0.6,0.9H201c-0.1-0.1-0.1-0.3-0.3-0.3c-0.1-0.1-0.3-0.1-0.4-0.1
	c-0.2,0-0.4,0.1-0.6,0.3c-0.1,0.2-0.2,0.4-0.2,0.8c0,0.3,0.1,0.6,0.2,0.8c0.1,0.2,0.3,0.3,0.6,0.3c0.4,0,0.6-0.2,0.7-0.5h0.9
	c-0.1,0.4-0.3,0.7-0.6,0.9c-0.3,0.2-0.6,0.3-1.1,0.3c-0.3,0-0.6-0.1-0.9-0.2c-0.3-0.2-0.5-0.4-0.6-0.6
	C198.7,179.3,198.6,178.9,198.6,178.6z M204.6,180.3l-1.2-1.5v1.5h-0.9v-4.6h0.9v2.6l1.2-1.5h1.1l-1.5,1.7l1.5,1.7H204.6z
	 M209,180.4c-0.3,0-0.5,0-0.8-0.1c-0.2-0.1-0.4-0.2-0.5-0.4c-0.1-0.2-0.2-0.4-0.2-0.6h0.9c0,0.1,0.1,0.2,0.2,0.3
	c0.1,0.1,0.3,0.1,0.4,0.1c0.2,0,0.3,0,0.4-0.1c0.1-0.1,0.1-0.2,0.1-0.3c0-0.1-0.1-0.2-0.2-0.2c-0.1-0.1-0.3-0.1-0.5-0.2
	c-0.3-0.1-0.5-0.1-0.6-0.2c-0.2-0.1-0.3-0.2-0.4-0.3c-0.1-0.1-0.2-0.3-0.2-0.6c0-0.2,0.1-0.4,0.2-0.5c0.1-0.2,0.3-0.3,0.5-0.4
	c0.2-0.1,0.4-0.1,0.7-0.1c0.4,0,0.7,0.1,1,0.3c0.2,0.2,0.4,0.5,0.4,0.8h-0.8c0-0.1-0.1-0.2-0.2-0.3c-0.1-0.1-0.2-0.1-0.4-0.1
	c-0.2,0-0.3,0-0.4,0.1c-0.1,0.1-0.1,0.1-0.1,0.2c0,0.1,0.1,0.2,0.2,0.3c0.1,0.1,0.3,0.1,0.5,0.2c0.2,0.1,0.5,0.1,0.6,0.2
	c0.2,0.1,0.3,0.2,0.4,0.3c0.1,0.1,0.2,0.3,0.2,0.5c0,0.2-0.1,0.4-0.2,0.5c-0.1,0.2-0.3,0.3-0.5,0.4
	C209.5,180.3,209.3,180.4,209,180.4z M212.1,177.6v1.7c0,0.1,0,0.2,0.1,0.3c0.1,0,0.2,0.1,0.3,0.1h0.4v0.7h-0.5
	c-0.7,0-1.1-0.4-1.1-1.1v-1.7h-0.4v-0.7h0.4V176h0.9v0.9h0.8v0.7H212.1z M215,180.4c-0.3,0-0.6-0.1-0.9-0.2
	c-0.3-0.2-0.5-0.4-0.6-0.6c-0.1-0.3-0.2-0.6-0.2-0.9c0-0.4,0.1-0.7,0.2-0.9c0.2-0.3,0.4-0.5,0.6-0.6c0.3-0.1,0.6-0.2,0.9-0.2
	c0.3,0,0.6,0.1,0.9,0.2c0.3,0.1,0.5,0.4,0.6,0.6c0.2,0.3,0.2,0.6,0.2,0.9c0,0.4-0.1,0.7-0.2,0.9c-0.2,0.3-0.4,0.5-0.6,0.6
	C215.7,180.3,215.4,180.4,215,180.4z M215,179.6c0.2,0,0.3,0,0.4-0.1c0.1-0.1,0.3-0.2,0.3-0.3c0.1-0.2,0.1-0.3,0.1-0.6
	c0-0.3-0.1-0.6-0.3-0.8c-0.2-0.2-0.4-0.3-0.6-0.3s-0.5,0.1-0.6,0.3c-0.2,0.2-0.2,0.4-0.2,0.8c0,0.3,0.1,0.6,0.2,0.8
	C214.6,179.5,214.8,179.6,215,179.6z M217.2,178.6c0-0.4,0.1-0.7,0.2-0.9c0.1-0.3,0.3-0.5,0.6-0.6c0.3-0.1,0.6-0.2,0.9-0.2
	c0.4,0,0.8,0.1,1.1,0.3c0.3,0.2,0.5,0.5,0.6,0.9h-0.9c-0.1-0.1-0.1-0.3-0.3-0.3c-0.1-0.1-0.3-0.1-0.4-0.1c-0.2,0-0.4,0.1-0.6,0.3
	c-0.1,0.2-0.2,0.4-0.2,0.8c0,0.3,0.1,0.6,0.2,0.8c0.1,0.2,0.3,0.3,0.6,0.3c0.4,0,0.6-0.2,0.7-0.5h0.9c-0.1,0.4-0.3,0.7-0.6,0.9
	c-0.3,0.2-0.6,0.3-1.1,0.3c-0.3,0-0.6-0.1-0.9-0.2c-0.3-0.2-0.5-0.4-0.6-0.6C217.3,179.3,217.2,178.9,217.2,178.6z M223.2,180.3
	l-1.2-1.5v1.5h-0.9v-4.6h0.9v2.6l1.2-1.5h1.1l-1.5,1.7l1.5,1.7H223.2z"/>
<path class="st12" d="M274.1,227.1h52.7c1.6,0,2.9,1.3,2.9,2.9v12.3c0,1.6-1.3,2.9-2.9,2.9h-52.7c-1.6,0-2.9-1.3-2.9-2.9V230
	C271.2,228.4,272.5,227.1,274.1,227.1z"/>
<path class="st13" d="M274.1,298.3h52.7c1.6,0,2.9,1.3,2.9,2.9v12.3c0,1.6-1.3,2.9-2.9,2.9h-52.7c-1.6,0-2.9-1.3-2.9-2.9v-12.3
	C271.1,299.6,272.5,298.3,274.1,298.3z"/>
<path class="st12" d="M178.9,360.9h55.2c1.6,0,2.9,1.3,2.9,2.9v10.4c0,1.6-1.3,2.9-2.9,2.9h-55.2c-1.6,0-2.9-1.3-2.9-2.9v-10.4
	C176,362.2,177.3,360.9,178.9,360.9z"/>
<g class="st14">
	<path class="st15" d="M205.2,282.4c-0.2-0.1-0.3,0.1-0.3,0.2l1.3,2.5c0.1,0.2,0.4,0.2,0.5,0l1.3-2.5c0.1-0.1-0.1-0.3-0.2-0.2
		C207,282.9,206,282.9,205.2,282.4z"/>
	<circle class="st16" cx="206.5" cy="260.1" r="1.2"/>
</g>
<g class="st14">
	<circle class="st16" cx="206.5" cy="268.1" r="1.2"/>
</g>
<g class="st14">
	<circle class="st16" cx="206.5" cy="275.1" r="1.2"/>
</g>
<path d="M207,190.3c0-0.1-0.1-0.3-0.3-0.3s-0.3,0.1-0.3,0.3H207z M206.5,213.5c0,0.1,0.1,0.3,0.3,0.3s0.3-0.1,0.3-0.3H206.5z
	 M206.5,190.3v23.3h0.5v-23.3H206.5z"/>
<circle class="st17" cx="206.7" cy="189.2" r="1.2"/>
<path d="M205.4,211.4c-0.2-0.1-0.3,0.1-0.3,0.2l1.3,2.5c0.1,0.2,0.4,0.2,0.5,0l1.3-2.5c0.1-0.1-0.1-0.3-0.2-0.2
	C207.2,212,206.3,212,205.4,211.4z"/>
<path d="M206.3,331.5c0-0.1-0.1-0.3-0.3-0.3c-0.1,0-0.3,0.1-0.3,0.3H206.3z M205.8,359.8c0,0.1,0.1,0.3,0.3,0.3
	c0.1,0,0.3-0.1,0.3-0.3H205.8z M205.8,331.5v28.3h0.5v-28.3H205.8z"/>
<circle class="st17" cx="206" cy="330.5" r="1.2"/>
<path d="M204.7,357.7c-0.2-0.1-0.3,0.1-0.3,0.2l1.3,2.5c0.1,0.2,0.4,0.2,0.5,0l1.3-2.5c0.1-0.1-0.1-0.3-0.2-0.2
	C206.5,358.2,205.6,358.2,204.7,357.7z"/>
<path d="M239.9,235.9c-0.1,0-0.3,0.1-0.3,0.3c0,0.1,0.1,0.3,0.3,0.3V235.9z M268.2,236.4c0.1,0,0.3-0.1,0.3-0.3
	c0-0.1-0.1-0.3-0.3-0.3V236.4z M239.9,236.4h28.3v-0.5h-28.3V236.4z"/>
<path d="M266.1,237.5c-0.1,0.2,0.1,0.3,0.2,0.3l2.5-1.3c0.2-0.1,0.2-0.4,0-0.5l-2.5-1.3c-0.1-0.1-0.3,0.1-0.2,0.2
	C266.6,235.7,266.6,236.7,266.1,237.5z"/>
<circle class="st17" cx="238.9" cy="236.2" r="1.2"/>
<g class="st14">
	<path d="M238.1,306.8c-0.1,0-0.3,0.1-0.3,0.3c0,0.1,0.1,0.3,0.3,0.3V306.8z M269.3,307.4c0.1,0,0.3-0.1,0.3-0.3
		c0-0.1-0.1-0.3-0.3-0.3V307.4z M238.1,307.4h31.3v-0.5h-31.3V307.4z"/>
	<path d="M267.2,308.4c-0.1,0.2,0.1,0.3,0.2,0.3l2.5-1.3c0.2-0.1,0.2-0.4,0-0.5l-2.5-1.3c-0.1-0.1-0.3,0.1-0.2,0.2
		C267.8,306.6,267.8,307.6,267.2,308.4z"/>
	<circle class="st17" cx="237" cy="307.1" r="1.2"/>
</g>
<path d="M333.7,307.1c-0.1,0-0.3,0.1-0.3,0.3c0,0.1,0.1,0.3,0.3,0.3V307.1z M244.6,177.4c-0.1,0-0.3,0.1-0.3,0.3
	c0,0.1,0.1,0.3,0.3,0.3L244.6,177.4z M361.9,307.4v-0.3V307.4z M366.5,183.2L367,302l0.5,0l-0.4-118.8L366.5,183.2z M361.9,307.1
	h-28.2v0.5h28.2V307.1z M361.5,177.6l-116.9-0.2l0,0.5l116.9,0.2L361.5,177.6z M367,302c0,2.8-2.3,5.1-5.1,5.1v0.5
	c3.1,0,5.6-2.5,5.6-5.6L367,302z M367.1,183.2c0-3.1-2.5-5.6-5.6-5.6l0,0.5c2.8,0,5,2.3,5.1,5L367.1,183.2z"/>
<circle class="st17" cx="332.2" cy="307.4" r="1.2"/>
<path d="M244.3,179.3c0.1,0.2-0.1,0.3-0.2,0.3l-2.5-1.3c-0.2-0.1-0.2-0.4,0-0.5l2.5-1.3c0.1-0.1,0.3,0.1,0.2,0.2
	C243.8,177.5,243.7,178.5,244.3,179.3z"/>
<path class="st18" d="M206.7,215.4l-28.5,21.3l28.5,21.3l28.5-21.3L206.7,215.4z"/>
<path d="M191.6,234.5h0.9l-1.3,4.3h-1l-0.8-3l-0.9,3h-1l-1.2-4.3h0.9l0.8,3.4l0.9-3.4h1l0.8,3.3L191.6,234.5z M195.3,237.8
	c0.2-0.2,0.3-0.4,0.3-0.7c0-0.3-0.1-0.6-0.3-0.7c-0.2-0.2-0.4-0.3-0.6-0.3c-0.2,0-0.5,0.1-0.6,0.3c-0.2,0.2-0.3,0.4-0.3,0.7
	s0.1,0.6,0.3,0.7c0.2,0.2,0.4,0.3,0.6,0.3C194.9,238.1,195.1,238,195.3,237.8z M193.3,238.3c-0.3-0.3-0.5-0.8-0.5-1.3
	c0-0.5,0.2-0.9,0.5-1.3c0.3-0.3,0.7-0.5,1.2-0.5c0.5,0,0.8,0.2,1.1,0.6v-0.5h0.9v3.4h-0.9v-0.6c-0.3,0.4-0.6,0.6-1.1,0.6
	C194,238.8,193.6,238.7,193.3,238.3z M198.2,235.4v0.6c0.2-0.4,0.6-0.7,1-0.7v0.9H199c-0.3,0-0.5,0.1-0.6,0.2
	c-0.1,0.1-0.2,0.4-0.2,0.7v1.7h-0.9v-3.4H198.2z M201.3,238.8c-0.5,0-0.9-0.2-1.2-0.5c-0.3-0.3-0.5-0.8-0.5-1.3s0.2-1,0.5-1.3
	c0.3-0.3,0.7-0.5,1.2-0.5c0.5,0,0.9,0.2,1.2,0.5c0.3,0.3,0.5,0.7,0.5,1.3c0,0.1,0,0.2,0,0.3h-2.5c0,0.2,0.1,0.4,0.2,0.5
	c0.1,0.1,0.3,0.2,0.6,0.2c0.3,0,0.5-0.1,0.7-0.4h0.9c-0.1,0.3-0.3,0.6-0.6,0.8C202.1,238.7,201.7,238.8,201.3,238.8z M202.1,236.8
	c0-0.2-0.1-0.4-0.3-0.5c-0.2-0.1-0.3-0.2-0.6-0.2s-0.4,0.1-0.6,0.2c-0.1,0.1-0.2,0.3-0.3,0.5H202.1z M204.6,234.2v1.7
	c0.2-0.4,0.6-0.6,1.1-0.6c0.4,0,0.7,0.1,1,0.4c0.2,0.3,0.4,0.6,0.4,1.1v2h-0.9v-1.9c0-0.3-0.1-0.5-0.2-0.6c-0.1-0.1-0.3-0.2-0.6-0.2
	c-0.2,0-0.4,0.1-0.6,0.2c-0.1,0.1-0.2,0.3-0.2,0.6v1.9h-0.9v-4.6H204.6z M209.5,238.1c0.2,0,0.5-0.1,0.6-0.3
	c0.2-0.2,0.3-0.4,0.3-0.8c0-0.3-0.1-0.6-0.3-0.8c-0.2-0.2-0.4-0.3-0.6-0.3c-0.2,0-0.5,0.1-0.6,0.3c-0.2,0.2-0.3,0.4-0.3,0.8
	c0,0.3,0.1,0.6,0.3,0.8C209,238,209.2,238.1,209.5,238.1z M208.2,238.4c-0.3-0.3-0.5-0.8-0.5-1.3s0.2-1,0.5-1.3
	c0.3-0.3,0.8-0.5,1.3-0.5c0.5,0,0.9,0.2,1.3,0.5c0.3,0.3,0.5,0.8,0.5,1.3s-0.2,1-0.5,1.3c-0.3,0.3-0.8,0.5-1.3,0.5
	S208.5,238.7,208.2,238.4z M214.3,235.4h0.9v3.4h-0.9v-0.5c-0.2,0.4-0.6,0.6-1.1,0.6c-0.4,0-0.7-0.1-1-0.4c-0.2-0.3-0.4-0.6-0.4-1.1
	v-2h0.9v1.9c0,0.3,0.1,0.5,0.2,0.6c0.1,0.1,0.3,0.2,0.6,0.2c0.2,0,0.4-0.1,0.6-0.2c0.1-0.1,0.2-0.4,0.2-0.6V235.4z M215.9,236.4
	c0-0.3,0.1-0.6,0.4-0.8s0.6-0.3,1-0.3c0.4,0,0.8,0.1,1,0.3c0.3,0.2,0.4,0.5,0.4,0.8h-0.9c0-0.3-0.2-0.4-0.5-0.4
	c-0.2,0-0.3,0-0.4,0.1c-0.1,0.1-0.1,0.2-0.1,0.3s0.1,0.2,0.2,0.3c0.1,0.1,0.3,0.1,0.5,0.2c0.2,0,0.4,0.1,0.6,0.1
	c0.2,0.1,0.4,0.2,0.5,0.3c0.1,0.1,0.2,0.3,0.2,0.6c0,0.3-0.1,0.6-0.4,0.8c-0.3,0.2-0.6,0.3-1,0.3c-0.4,0-0.7-0.1-1-0.3
	c-0.3-0.2-0.4-0.5-0.4-0.8h0.9c0,0.3,0.2,0.4,0.6,0.4c0.2,0,0.3,0,0.4-0.1c0.1-0.1,0.1-0.2,0.1-0.3c0-0.1-0.1-0.2-0.2-0.3
	c-0.1-0.1-0.3-0.1-0.5-0.2c-0.2,0-0.4-0.1-0.6-0.1c-0.2-0.1-0.4-0.1-0.5-0.3C216,236.8,215.9,236.6,215.9,236.4z M221,238.8
	c-0.5,0-0.9-0.2-1.2-0.5c-0.3-0.3-0.5-0.8-0.5-1.3s0.2-1,0.5-1.3c0.3-0.3,0.7-0.5,1.2-0.5c0.5,0,0.9,0.2,1.2,0.5
	c0.3,0.3,0.5,0.7,0.5,1.3c0,0.1,0,0.2,0,0.3h-2.5c0,0.2,0.1,0.4,0.2,0.5c0.1,0.1,0.3,0.2,0.6,0.2c0.3,0,0.5-0.1,0.7-0.4h0.9
	c-0.1,0.3-0.3,0.6-0.6,0.8C221.7,238.7,221.4,238.8,221,238.8z M221.8,236.8c0-0.2-0.1-0.4-0.3-0.5c-0.2-0.1-0.3-0.2-0.6-0.2
	s-0.4,0.1-0.6,0.2c-0.1,0.1-0.2,0.3-0.3,0.5H221.8z M225.7,238.8v-3.6H225v-0.8h1.6v4.4H225.7z"/>
<path class="st19" d="M206.7,285.9l-28.5,21.3l28.5,21.3l28.5-21.3L206.7,285.9z"/>
<path d="M197.6,305.6c-0.2,0-0.3,0-0.4,0.1c-0.1,0.1-0.2,0.2-0.2,0.4c0,0.2,0,0.3,0.1,0.4c0.1,0.1,0.2,0.2,0.3,0.2
	c0.1,0,0.3,0.1,0.4,0.1c0.2,0,0.3,0.1,0.5,0.1c0.2,0.1,0.3,0.1,0.4,0.2c0.1,0.1,0.2,0.2,0.3,0.3c0.1,0.1,0.1,0.3,0.1,0.5
	c0,0.4-0.1,0.7-0.4,0.9c-0.3,0.3-0.7,0.4-1.1,0.4c-0.5,0-0.8-0.1-1.1-0.3c-0.3-0.2-0.4-0.5-0.4-0.9h0.9c0,0.4,0.3,0.6,0.7,0.6
	c0.2,0,0.4-0.1,0.5-0.2c0.1-0.1,0.2-0.2,0.2-0.4c0-0.2-0.1-0.3-0.2-0.4c-0.2-0.1-0.3-0.2-0.6-0.2c-0.2,0-0.4-0.1-0.7-0.2
	c-0.2-0.1-0.4-0.2-0.6-0.4c-0.2-0.2-0.2-0.4-0.2-0.7c0-0.4,0.1-0.7,0.4-0.9c0.3-0.2,0.7-0.4,1.1-0.4c0.5,0,0.8,0.1,1.1,0.3
	c0.3,0.2,0.4,0.5,0.4,0.9h-1c0-0.2-0.1-0.3-0.2-0.4C197.9,305.7,197.7,305.6,197.6,305.6z M201.4,308.6h0.4v0.7h-0.6
	c-0.4,0-0.6-0.1-0.8-0.2c-0.2-0.2-0.3-0.4-0.3-0.8v-1.7h-0.4v-0.7h0.4V305h0.9v0.9h0.8v0.7H201v1.7c0,0.1,0,0.2,0.1,0.2
	C201.1,308.6,201.2,308.6,201.4,308.6z M204,308.7c0.2,0,0.5-0.1,0.6-0.3c0.2-0.2,0.3-0.4,0.3-0.8c0-0.3-0.1-0.6-0.3-0.8
	c-0.2-0.2-0.4-0.3-0.6-0.3c-0.2,0-0.5,0.1-0.6,0.3c-0.2,0.2-0.3,0.4-0.3,0.8s0.1,0.6,0.3,0.8C203.5,308.6,203.8,308.7,204,308.7z
	 M202.7,308.9c-0.3-0.3-0.5-0.8-0.5-1.3s0.2-1,0.5-1.3c0.3-0.3,0.8-0.5,1.3-0.5c0.5,0,0.9,0.2,1.3,0.5c0.3,0.3,0.5,0.8,0.5,1.3
	s-0.2,1-0.5,1.3c-0.3,0.3-0.8,0.5-1.3,0.5C203.5,309.4,203.1,309.2,202.7,308.9z M207.4,305.9v0.6c0.2-0.4,0.6-0.7,1-0.7v0.9h-0.2
	c-0.3,0-0.5,0.1-0.6,0.2c-0.1,0.1-0.2,0.4-0.2,0.7v1.7h-0.9v-3.4H207.4z M210.4,309.4c-0.5,0-0.9-0.2-1.2-0.5
	c-0.3-0.3-0.5-0.8-0.5-1.3s0.2-1,0.5-1.3c0.3-0.3,0.7-0.5,1.2-0.5c0.5,0,0.9,0.2,1.2,0.5c0.3,0.3,0.5,0.7,0.5,1.2c0,0.1,0,0.2,0,0.3
	h-2.5c0,0.2,0.1,0.4,0.2,0.5c0.1,0.1,0.3,0.2,0.6,0.2c0.3,0,0.5-0.1,0.7-0.4h0.9c-0.1,0.3-0.3,0.6-0.6,0.8
	C211.2,309.3,210.9,309.4,210.4,309.4z M211.3,307.3c0-0.2-0.1-0.4-0.3-0.5c-0.2-0.1-0.3-0.2-0.6-0.2c-0.2,0-0.4,0.1-0.6,0.2
	c-0.1,0.1-0.2,0.3-0.3,0.5H211.3z M214.5,304.8h3v0.6l-1.7,3.9h-1l1.8-3.8h-2.1V304.8z"/>
<path d="M248.7,233.6h-1v-1.6l-1.6-3.1h1.1l1,2.3l1-2.3h1.1l-1.6,3.1V233.6z M252.5,233.6c-0.6,0-1-0.2-1.3-0.5
	c-0.3-0.4-0.5-0.8-0.5-1.4c0-0.6,0.2-1.1,0.5-1.4c0.4-0.4,0.8-0.5,1.4-0.5c0.6,0,1,0.2,1.4,0.5c0.4,0.3,0.5,0.8,0.5,1.4
	c0,0.1,0,0.3,0,0.4h-2.8c0,0.2,0.1,0.4,0.3,0.6c0.2,0.2,0.4,0.2,0.6,0.2c0.3,0,0.6-0.1,0.7-0.4h1c-0.1,0.4-0.3,0.7-0.6,0.9
	S253,233.6,252.5,233.6z M253.4,231.4c0-0.3-0.1-0.5-0.3-0.6c-0.2-0.2-0.4-0.2-0.6-0.2s-0.4,0.1-0.6,0.2c-0.2,0.1-0.3,0.4-0.3,0.6
	H253.4z M255,230.9c0-0.3,0.1-0.6,0.4-0.8c0.3-0.2,0.6-0.3,1.1-0.3s0.8,0.1,1.1,0.3c0.3,0.2,0.4,0.5,0.4,0.9h-1
	c0-0.3-0.2-0.5-0.6-0.5c-0.2,0-0.3,0-0.4,0.1c-0.1,0.1-0.2,0.2-0.2,0.3c0,0.1,0.1,0.2,0.2,0.3c0.2,0.1,0.3,0.1,0.5,0.2
	c0.2,0,0.4,0.1,0.6,0.2c0.2,0.1,0.4,0.2,0.5,0.3c0.1,0.2,0.2,0.4,0.2,0.6c0,0.3-0.1,0.6-0.4,0.8c-0.3,0.2-0.7,0.3-1.1,0.3
	c-0.4,0-0.8-0.1-1.1-0.3c-0.3-0.2-0.4-0.5-0.5-0.9h1c0,0.3,0.2,0.5,0.6,0.5c0.2,0,0.3,0,0.4-0.1c0.1-0.1,0.2-0.2,0.2-0.3
	c0-0.1-0.1-0.2-0.2-0.3c-0.2-0.1-0.3-0.1-0.5-0.2c-0.2,0-0.4-0.1-0.6-0.1c-0.2-0.1-0.4-0.2-0.5-0.3C255.1,231.3,255,231.1,255,230.9
	z"/>
<path d="M212.6,346.8h-1v-1.6L210,342h1.1l1,2.3l1-2.3h1.1l-1.6,3.1V346.8z M216.4,346.9c-0.6,0-1-0.2-1.3-0.5
	c-0.3-0.4-0.5-0.8-0.5-1.4c0-0.6,0.2-1.1,0.5-1.4c0.4-0.4,0.8-0.5,1.4-0.5c0.6,0,1,0.2,1.4,0.5c0.4,0.3,0.5,0.8,0.5,1.4
	c0,0.1,0,0.3,0,0.4h-2.8c0,0.2,0.1,0.4,0.3,0.6c0.2,0.1,0.4,0.2,0.6,0.2c0.3,0,0.6-0.1,0.7-0.4h1c-0.1,0.4-0.3,0.7-0.6,0.9
	C217.3,346.7,216.9,346.9,216.4,346.9z M217.4,344.6c0-0.3-0.1-0.5-0.3-0.6c-0.2-0.1-0.4-0.2-0.6-0.2c-0.2,0-0.4,0.1-0.6,0.2
	c-0.2,0.2-0.3,0.4-0.3,0.6H217.4z M218.9,344.1c0-0.3,0.1-0.6,0.4-0.8c0.3-0.2,0.6-0.3,1.1-0.3s0.8,0.1,1.1,0.3
	c0.3,0.2,0.4,0.5,0.4,0.9h-1c0-0.3-0.2-0.5-0.6-0.5c-0.2,0-0.3,0-0.4,0.1c-0.1,0.1-0.2,0.2-0.2,0.3c0,0.1,0.1,0.2,0.2,0.3
	c0.1,0.1,0.3,0.1,0.5,0.2c0.2,0,0.4,0.1,0.6,0.2c0.2,0.1,0.4,0.2,0.5,0.3c0.2,0.2,0.2,0.4,0.2,0.6c0,0.3-0.1,0.6-0.4,0.8
	c-0.3,0.2-0.7,0.3-1.1,0.3c-0.4,0-0.8-0.1-1.1-0.3c-0.3-0.2-0.4-0.5-0.5-0.9h1c0,0.3,0.2,0.5,0.6,0.5c0.2,0,0.3,0,0.4-0.1
	c0.1-0.1,0.2-0.2,0.2-0.3c0-0.1-0.1-0.2-0.2-0.3c-0.1-0.1-0.3-0.1-0.5-0.2c-0.2,0-0.4-0.1-0.6-0.2c-0.2-0.1-0.4-0.2-0.5-0.3
	C219,344.6,218.9,344.4,218.9,344.1z"/>
<path class="st20" d="M216.2,266.7h1v4.8h-1l-2.2-3.3v3.3h-1v-4.8h1l2.2,3.3V266.7z M219.9,270.8c0.3,0,0.5-0.1,0.7-0.3
	c0.2-0.2,0.3-0.5,0.3-0.8c0-0.4-0.1-0.6-0.3-0.8c-0.2-0.2-0.4-0.3-0.7-0.3c-0.3,0-0.5,0.1-0.7,0.3c-0.2,0.2-0.3,0.5-0.3,0.8
	c0,0.4,0.1,0.6,0.3,0.8C219.4,270.7,219.7,270.8,219.9,270.8z M218.5,271c-0.4-0.4-0.6-0.8-0.6-1.4c0-0.6,0.2-1.1,0.6-1.4
	c0.4-0.4,0.8-0.5,1.4-0.5c0.6,0,1,0.2,1.4,0.5c0.4,0.4,0.6,0.8,0.6,1.4c0,0.6-0.2,1.1-0.6,1.4c-0.4,0.4-0.8,0.5-1.4,0.5
	C219.4,271.6,218.9,271.4,218.5,271z"/>
<path class="st20" d="M251.1,299.1h1v4.8h-1l-2.2-3.3v3.3h-1v-4.8h1l2.2,3.3V299.1z M254.8,303.1c0.3,0,0.5-0.1,0.7-0.3
	c0.2-0.2,0.3-0.5,0.3-0.8c0-0.4-0.1-0.6-0.3-0.8c-0.2-0.2-0.4-0.3-0.7-0.3c-0.3,0-0.5,0.1-0.7,0.3c-0.2,0.2-0.3,0.5-0.3,0.8
	c0,0.4,0.1,0.6,0.3,0.8C254.3,303,254.5,303.1,254.8,303.1z M253.4,303.4c-0.4-0.4-0.6-0.8-0.6-1.4c0-0.6,0.2-1.1,0.6-1.4
	c0.4-0.4,0.8-0.5,1.4-0.5c0.6,0,1,0.2,1.4,0.5c0.4,0.4,0.6,0.8,0.6,1.4c0,0.6-0.2,1.1-0.6,1.4c-0.4,0.4-0.8,0.5-1.4,0.5
	C254.2,303.9,253.7,303.8,253.4,303.4z"/>
<path class="st21" d="M194.4,369.6c0-0.3,0.1-0.7,0.2-0.9c0.1-0.3,0.3-0.5,0.6-0.6c0.2-0.1,0.5-0.2,0.8-0.2c0.3,0,0.5,0.1,0.7,0.2
	c0.2,0.1,0.3,0.2,0.5,0.4v-0.5h0.9v3.4h-0.9v-0.5c-0.1,0.2-0.3,0.3-0.5,0.4c-0.2,0.1-0.4,0.2-0.7,0.2c-0.3,0-0.6-0.1-0.8-0.2
	c-0.2-0.2-0.4-0.4-0.6-0.6C194.4,370.2,194.4,369.9,194.4,369.6z M197.1,369.6c0-0.2,0-0.4-0.1-0.5c-0.1-0.2-0.2-0.3-0.3-0.3
	c-0.1-0.1-0.3-0.1-0.5-0.1c-0.2,0-0.3,0-0.4,0.1c-0.1,0.1-0.2,0.2-0.3,0.3c-0.1,0.1-0.1,0.3-0.1,0.5s0,0.4,0.1,0.5
	c0.1,0.2,0.2,0.3,0.3,0.4c0.1,0.1,0.3,0.1,0.4,0.1c0.2,0,0.3,0,0.5-0.1c0.1-0.1,0.3-0.2,0.3-0.3C197.1,370,197.1,369.8,197.1,369.6z
	 M199.7,366.7v4.6h-0.9v-4.6H199.7z M201.4,366.7v4.6h-0.9v-4.6H201.4z M203.8,371.4c-0.3,0-0.6-0.1-0.9-0.2
	c-0.3-0.1-0.5-0.4-0.6-0.6c-0.1-0.3-0.2-0.6-0.2-0.9c0-0.4,0.1-0.7,0.2-0.9c0.2-0.3,0.4-0.5,0.6-0.6c0.3-0.1,0.6-0.2,0.9-0.2
	c0.3,0,0.6,0.1,0.9,0.2c0.3,0.1,0.5,0.4,0.6,0.6c0.2,0.3,0.2,0.6,0.2,0.9c0,0.4-0.1,0.7-0.2,0.9c-0.2,0.3-0.4,0.5-0.6,0.6
	C204.5,371.3,204.1,371.4,203.8,371.4z M203.8,370.6c0.2,0,0.3,0,0.4-0.1c0.1-0.1,0.3-0.2,0.3-0.3c0.1-0.2,0.1-0.3,0.1-0.6
	c0-0.3-0.1-0.6-0.3-0.8c-0.2-0.2-0.4-0.3-0.6-0.3c-0.2,0-0.5,0.1-0.6,0.3c-0.2,0.2-0.2,0.4-0.2,0.8c0,0.3,0.1,0.6,0.2,0.8
	C203.4,370.5,203.6,370.6,203.8,370.6z M206,369.6c0-0.4,0.1-0.7,0.2-0.9c0.1-0.3,0.3-0.5,0.6-0.6c0.3-0.1,0.6-0.2,0.9-0.2
	c0.4,0,0.8,0.1,1.1,0.3c0.3,0.2,0.5,0.5,0.6,0.9h-0.9c-0.1-0.1-0.1-0.3-0.3-0.3c-0.1-0.1-0.3-0.1-0.4-0.1c-0.2,0-0.4,0.1-0.6,0.3
	c-0.1,0.2-0.2,0.4-0.2,0.8c0,0.3,0.1,0.6,0.2,0.8c0.1,0.2,0.3,0.3,0.6,0.3c0.4,0,0.6-0.2,0.7-0.5h0.9c-0.1,0.4-0.3,0.7-0.6,0.9
	c-0.3,0.2-0.6,0.3-1.1,0.3c-0.3,0-0.6-0.1-0.9-0.2c-0.3-0.1-0.5-0.4-0.6-0.6C206.1,370.3,206,369.9,206,369.6z M209.8,369.6
	c0-0.3,0.1-0.7,0.2-0.9c0.1-0.3,0.3-0.5,0.6-0.6c0.2-0.1,0.5-0.2,0.8-0.2c0.3,0,0.5,0.1,0.7,0.2c0.2,0.1,0.4,0.2,0.5,0.4v-0.5h0.9
	v3.4h-0.9v-0.5c-0.1,0.2-0.3,0.3-0.5,0.4c-0.2,0.1-0.4,0.2-0.7,0.2c-0.3,0-0.6-0.1-0.8-0.2c-0.2-0.2-0.4-0.4-0.6-0.6
	C209.8,370.2,209.8,369.9,209.8,369.6z M212.5,369.6c0-0.2,0-0.4-0.1-0.5c-0.1-0.2-0.2-0.3-0.3-0.3c-0.1-0.1-0.3-0.1-0.5-0.1
	c-0.2,0-0.3,0-0.4,0.1c-0.1,0.1-0.2,0.2-0.3,0.3c-0.1,0.1-0.1,0.3-0.1,0.5s0,0.4,0.1,0.5c0.1,0.2,0.2,0.3,0.3,0.4
	c0.1,0.1,0.3,0.1,0.4,0.1c0.2,0,0.3,0,0.5-0.1c0.1-0.1,0.3-0.2,0.3-0.3C212.4,370,212.5,369.8,212.5,369.6z M215.2,368.6v1.7
	c0,0.1,0,0.2,0.1,0.3c0.1,0.1,0.2,0.1,0.3,0.1h0.4v0.7h-0.5c-0.7,0-1.1-0.4-1.1-1.1v-1.7h-0.4v-0.7h0.4V367h0.9v0.9h0.8v0.7H215.2z
	 M219.8,369.5c0,0.1,0,0.2,0,0.3h-2.5c0,0.2,0.1,0.4,0.3,0.6c0.2,0.1,0.3,0.2,0.6,0.2c0.3,0,0.6-0.1,0.7-0.4h0.9
	c-0.1,0.3-0.3,0.6-0.6,0.8c-0.3,0.2-0.6,0.3-1,0.3c-0.3,0-0.6-0.1-0.9-0.2c-0.3-0.1-0.5-0.4-0.6-0.6c-0.1-0.3-0.2-0.6-0.2-0.9
	c0-0.4,0.1-0.7,0.2-0.9c0.1-0.3,0.3-0.5,0.6-0.6c0.3-0.1,0.6-0.2,0.9-0.2c0.3,0,0.6,0.1,0.9,0.2c0.3,0.1,0.5,0.3,0.6,0.6
	C219.8,368.9,219.8,369.2,219.8,369.5z M218.9,369.3c0-0.2-0.1-0.4-0.2-0.5c-0.2-0.1-0.4-0.2-0.6-0.2c-0.2,0-0.4,0.1-0.5,0.2
	c-0.1,0.1-0.2,0.3-0.3,0.5H218.9z"/>
<path class="st21" d="M287.7,237.1c0-0.3,0.1-0.7,0.2-0.9c0.1-0.3,0.3-0.5,0.6-0.6c0.2-0.1,0.5-0.2,0.8-0.2c0.3,0,0.5,0.1,0.7,0.2
	c0.2,0.1,0.4,0.2,0.5,0.4v-0.5h0.9v3.4h-0.9v-0.5c-0.1,0.2-0.3,0.3-0.5,0.4c-0.2,0.1-0.4,0.2-0.7,0.2c-0.3,0-0.6-0.1-0.8-0.2
	c-0.2-0.1-0.4-0.4-0.6-0.6C287.8,237.7,287.7,237.4,287.7,237.1z M290.4,237.1c0-0.2,0-0.4-0.1-0.5c-0.1-0.2-0.2-0.3-0.3-0.3
	c-0.1-0.1-0.3-0.1-0.5-0.1c-0.2,0-0.3,0-0.4,0.1c-0.1,0.1-0.2,0.2-0.3,0.3c-0.1,0.1-0.1,0.3-0.1,0.5c0,0.2,0,0.4,0.1,0.5
	c0.1,0.2,0.2,0.3,0.3,0.4c0.1,0.1,0.3,0.1,0.4,0.1c0.2,0,0.3,0,0.5-0.1c0.1-0.1,0.3-0.2,0.3-0.3
	C290.4,237.5,290.4,237.3,290.4,237.1z M293,234.2v4.6h-0.9v-4.6H293z M294.8,234.2v4.6h-0.9v-4.6H294.8z M297.1,238.8
	c-0.3,0-0.6-0.1-0.9-0.2c-0.3-0.2-0.5-0.4-0.6-0.6c-0.1-0.3-0.2-0.6-0.2-0.9c0-0.4,0.1-0.7,0.2-0.9c0.2-0.3,0.4-0.5,0.6-0.6
	c0.3-0.1,0.6-0.2,0.9-0.2c0.3,0,0.6,0.1,0.9,0.2c0.3,0.1,0.5,0.4,0.6,0.6c0.2,0.3,0.2,0.6,0.2,0.9c0,0.4-0.1,0.7-0.2,0.9
	c-0.2,0.3-0.4,0.5-0.6,0.6C297.8,238.8,297.5,238.8,297.1,238.8z M297.1,238.1c0.2,0,0.3,0,0.4-0.1c0.1-0.1,0.3-0.2,0.3-0.3
	c0.1-0.2,0.1-0.3,0.1-0.6c0-0.3-0.1-0.6-0.3-0.8c-0.2-0.2-0.4-0.3-0.6-0.3c-0.2,0-0.5,0.1-0.6,0.3c-0.2,0.2-0.2,0.4-0.2,0.8
	c0,0.3,0.1,0.6,0.2,0.8C296.7,238,296.9,238.1,297.1,238.1z M299.4,237.1c0-0.4,0.1-0.7,0.2-0.9c0.1-0.3,0.3-0.5,0.6-0.6
	c0.3-0.1,0.6-0.2,0.9-0.2c0.4,0,0.8,0.1,1.1,0.3c0.3,0.2,0.5,0.5,0.6,0.9h-0.9c0-0.1-0.1-0.3-0.3-0.3c-0.1-0.1-0.3-0.1-0.4-0.1
	c-0.2,0-0.4,0.1-0.6,0.3c-0.1,0.2-0.2,0.4-0.2,0.8c0,0.3,0.1,0.6,0.2,0.8c0.1,0.2,0.3,0.3,0.6,0.3c0.4,0,0.6-0.2,0.7-0.5h0.9
	c-0.1,0.4-0.3,0.7-0.6,0.9c-0.3,0.2-0.6,0.3-1.1,0.3c-0.3,0-0.6-0.1-0.9-0.2c-0.3-0.2-0.5-0.4-0.6-0.6
	C299.4,237.7,299.4,237.4,299.4,237.1z M303.1,237.1c0-0.3,0.1-0.7,0.2-0.9c0.1-0.3,0.3-0.5,0.6-0.6c0.2-0.1,0.5-0.2,0.8-0.2
	c0.3,0,0.5,0.1,0.7,0.2c0.2,0.1,0.4,0.2,0.5,0.4v-0.5h0.9v3.4h-0.9v-0.5c-0.1,0.2-0.3,0.3-0.5,0.4c-0.2,0.1-0.4,0.2-0.7,0.2
	c-0.3,0-0.6-0.1-0.8-0.2c-0.2-0.1-0.4-0.4-0.6-0.6C303.2,237.7,303.1,237.4,303.1,237.1z M305.8,237.1c0-0.2,0-0.4-0.1-0.5
	c-0.1-0.2-0.2-0.3-0.3-0.3c-0.1-0.1-0.3-0.1-0.5-0.1c-0.2,0-0.3,0-0.4,0.1c-0.1,0.1-0.2,0.2-0.3,0.3c-0.1,0.1-0.1,0.3-0.1,0.5
	c0,0.2,0,0.4,0.1,0.5c0.1,0.2,0.2,0.3,0.3,0.4c0.1,0.1,0.3,0.1,0.4,0.1c0.2,0,0.3,0,0.5-0.1c0.1-0.1,0.3-0.2,0.3-0.3
	C305.8,237.5,305.8,237.3,305.8,237.1z M308.6,236.1v1.7c0,0.1,0,0.2,0.1,0.3c0.1,0,0.2,0.1,0.3,0.1h0.4v0.7h-0.5
	c-0.7,0-1.1-0.4-1.1-1.1v-1.7h-0.4v-0.7h0.4v-0.9h0.9v0.9h0.8v0.7H308.6z M313.2,237c0,0.1,0,0.2,0,0.3h-2.5c0,0.2,0.1,0.4,0.3,0.6
	c0.2,0.1,0.3,0.2,0.6,0.2c0.3,0,0.6-0.1,0.7-0.4h0.9c-0.1,0.3-0.3,0.6-0.6,0.8c-0.3,0.2-0.6,0.3-1,0.3c-0.3,0-0.6-0.1-0.9-0.2
	c-0.3-0.2-0.5-0.4-0.6-0.6c-0.1-0.3-0.2-0.6-0.2-0.9c0-0.4,0.1-0.7,0.2-0.9c0.1-0.3,0.3-0.5,0.6-0.6c0.3-0.1,0.6-0.2,0.9-0.2
	c0.3,0,0.6,0.1,0.9,0.2c0.3,0.1,0.5,0.3,0.6,0.6C313.1,236.4,313.2,236.7,313.2,237z M312.3,236.7c0-0.2-0.1-0.4-0.2-0.5
	c-0.2-0.1-0.4-0.2-0.6-0.2c-0.2,0-0.4,0.1-0.5,0.2c-0.1,0.1-0.2,0.3-0.3,0.5H312.3z"/>
<path class="st22" d="M286.8,310.1c-0.3,0-0.5,0-0.8-0.1c-0.2-0.1-0.4-0.2-0.5-0.4c-0.1-0.2-0.2-0.4-0.2-0.6h0.9
	c0,0.1,0.1,0.2,0.2,0.3c0.1,0.1,0.3,0.1,0.4,0.1c0.2,0,0.3,0,0.4-0.1c0.1-0.1,0.1-0.2,0.1-0.3c0-0.1-0.1-0.2-0.2-0.2
	c-0.1-0.1-0.3-0.1-0.5-0.2c-0.3-0.1-0.5-0.1-0.6-0.2c-0.2-0.1-0.3-0.2-0.4-0.3c-0.1-0.1-0.2-0.3-0.2-0.6c0-0.2,0.1-0.4,0.2-0.5
	c0.1-0.2,0.3-0.3,0.5-0.4c0.2-0.1,0.4-0.1,0.7-0.1c0.4,0,0.7,0.1,1,0.3c0.2,0.2,0.4,0.5,0.4,0.8h-0.8c0-0.1-0.1-0.2-0.2-0.3
	c-0.1-0.1-0.2-0.1-0.4-0.1c-0.2,0-0.3,0-0.4,0.1c-0.1,0.1-0.1,0.1-0.1,0.2c0,0.1,0.1,0.2,0.2,0.3c0.1,0.1,0.3,0.1,0.5,0.2
	c0.2,0.1,0.5,0.1,0.6,0.2c0.2,0.1,0.3,0.2,0.4,0.3c0.1,0.1,0.2,0.3,0.2,0.5c0,0.2-0.1,0.4-0.2,0.5c-0.1,0.2-0.3,0.3-0.5,0.4
	C287.3,310,287.1,310.1,286.8,310.1z M289.7,307.1c0.1-0.2,0.3-0.3,0.5-0.4c0.2-0.1,0.4-0.2,0.7-0.2c0.3,0,0.6,0.1,0.8,0.2
	c0.2,0.1,0.4,0.4,0.6,0.6c0.1,0.3,0.2,0.6,0.2,0.9c0,0.4-0.1,0.7-0.2,0.9c-0.1,0.3-0.3,0.5-0.6,0.6c-0.2,0.1-0.5,0.2-0.8,0.2
	c-0.3,0-0.5-0.1-0.7-0.2c-0.2-0.1-0.3-0.2-0.5-0.4v2.1h-0.9v-5.1h0.9V307.1z M291.6,308.3c0-0.2,0-0.4-0.1-0.5
	c-0.1-0.2-0.2-0.3-0.3-0.3c-0.1-0.1-0.3-0.1-0.4-0.1c-0.2,0-0.3,0-0.4,0.1c-0.1,0.1-0.2,0.2-0.3,0.3c-0.1,0.2-0.1,0.3-0.1,0.5
	c0,0.2,0,0.4,0.1,0.5c0.1,0.2,0.2,0.3,0.3,0.4c0.1,0.1,0.3,0.1,0.4,0.1c0.2,0,0.3,0,0.4-0.1c0.1-0.1,0.3-0.2,0.3-0.4
	C291.5,308.7,291.6,308.5,291.6,308.3z M294,305.4v4.6h-0.9v-4.6H294z M295.3,306.1c-0.2,0-0.3,0-0.4-0.1c-0.1-0.1-0.1-0.2-0.1-0.4
	c0-0.1,0.1-0.3,0.1-0.4c0.1-0.1,0.2-0.1,0.4-0.1c0.2,0,0.3,0,0.4,0.1c0.1,0.1,0.2,0.2,0.2,0.4c0,0.1-0.1,0.3-0.2,0.4
	C295.5,306.1,295.4,306.1,295.3,306.1z M295.7,306.6v3.4h-0.9v-3.4H295.7z M297.6,307.3v1.7c0,0.1,0,0.2,0.1,0.3
	c0.1,0,0.2,0.1,0.3,0.1h0.4v0.7h-0.5c-0.7,0-1.1-0.4-1.1-1.1v-1.7h-0.4v-0.7h0.4v-0.9h0.9v0.9h0.8v0.7H297.6z M302,310.1
	c-0.3,0-0.6-0.1-0.9-0.2c-0.3-0.1-0.5-0.4-0.6-0.6c-0.1-0.3-0.2-0.6-0.2-0.9c0-0.4,0.1-0.7,0.2-0.9c0.2-0.3,0.4-0.5,0.6-0.6
	c0.3-0.1,0.6-0.2,0.9-0.2s0.6,0.1,0.9,0.2c0.3,0.1,0.5,0.4,0.6,0.6c0.2,0.3,0.2,0.6,0.2,0.9c0,0.4-0.1,0.7-0.2,0.9
	c-0.2,0.3-0.4,0.5-0.6,0.6C302.6,310,302.3,310.1,302,310.1z M302,309.3c0.2,0,0.3,0,0.4-0.1c0.1-0.1,0.3-0.2,0.3-0.3
	c0.1-0.2,0.1-0.3,0.1-0.6c0-0.3-0.1-0.6-0.3-0.8c-0.2-0.2-0.4-0.3-0.6-0.3c-0.2,0-0.5,0.1-0.6,0.3c-0.2,0.2-0.2,0.4-0.2,0.8
	c0,0.3,0.1,0.6,0.2,0.8C301.5,309.2,301.7,309.3,302,309.3z M305.3,307.1c0.1-0.2,0.3-0.3,0.4-0.4c0.2-0.1,0.4-0.2,0.6-0.2v0.9h-0.2
	c-0.3,0-0.5,0.1-0.6,0.2c-0.1,0.1-0.2,0.4-0.2,0.7v1.7h-0.9v-3.4h0.9V307.1z M306.7,308.3c0-0.3,0.1-0.7,0.2-0.9
	c0.1-0.3,0.3-0.5,0.6-0.6c0.2-0.1,0.5-0.2,0.8-0.2c0.2,0,0.4,0,0.6,0.1c0.2,0.1,0.4,0.2,0.5,0.4v-1.6h0.9v4.6h-0.9v-0.5
	c-0.1,0.2-0.3,0.3-0.5,0.4c-0.2,0.1-0.4,0.2-0.7,0.2c-0.3,0-0.6-0.1-0.8-0.2c-0.2-0.1-0.4-0.4-0.6-0.6
	C306.8,308.9,306.7,308.6,306.7,308.3z M309.4,308.3c0-0.2,0-0.4-0.1-0.5c-0.1-0.2-0.2-0.3-0.3-0.3c-0.1-0.1-0.3-0.1-0.5-0.1
	c-0.2,0-0.3,0-0.4,0.1c-0.1,0.1-0.2,0.2-0.3,0.3c-0.1,0.1-0.1,0.3-0.1,0.5c0,0.2,0,0.4,0.1,0.5c0.1,0.2,0.2,0.3,0.3,0.4
	c0.1,0.1,0.3,0.1,0.4,0.1c0.2,0,0.3,0,0.5-0.1c0.1-0.1,0.3-0.2,0.3-0.3C309.4,308.7,309.4,308.5,309.4,308.3z M314.3,308.2
	c0,0.1,0,0.2,0,0.3h-2.5c0,0.2,0.1,0.4,0.3,0.6c0.2,0.1,0.3,0.2,0.6,0.2c0.3,0,0.6-0.1,0.7-0.4h0.9c-0.1,0.3-0.3,0.6-0.6,0.8
	c-0.3,0.2-0.6,0.3-1,0.3c-0.3,0-0.6-0.1-0.9-0.2c-0.3-0.1-0.5-0.4-0.6-0.6c-0.1-0.3-0.2-0.6-0.2-0.9c0-0.4,0.1-0.7,0.2-0.9
	c0.1-0.3,0.3-0.5,0.6-0.6c0.3-0.1,0.6-0.2,0.9-0.2c0.3,0,0.6,0.1,0.9,0.2c0.3,0.1,0.5,0.3,0.6,0.6
	C314.3,307.6,314.3,307.9,314.3,308.2z M313.4,308c0-0.2-0.1-0.4-0.2-0.5c-0.2-0.1-0.4-0.2-0.6-0.2c-0.2,0-0.4,0.1-0.5,0.2
	c-0.1,0.1-0.2,0.3-0.3,0.5H313.4z M315.8,307.1c0.1-0.2,0.3-0.3,0.4-0.4c0.2-0.1,0.4-0.2,0.6-0.2v0.9h-0.2c-0.3,0-0.5,0.1-0.6,0.2
	c-0.1,0.1-0.2,0.4-0.2,0.7v1.7H315v-3.4h0.9V307.1z"/>
<g>
	
		<linearGradient id="SVGID_00000010304917611749760550000003973001026041350063_" gradientUnits="userSpaceOnUse" x1="41.5052" y1="381.8064" x2="62.2532" y2="402.5543" gradientTransform="matrix(1 0 0 -1 0 436)">
		<stop  offset="0" style="stop-color:#009BFF"/>
		<stop  offset="1" style="stop-color:#40D9FF"/>
	</linearGradient>
	<path style="fill:url(#SVGID_00000010304917611749760550000003973001026041350063_);" d="M53.6,38.6c-0.4,0.4-0.4,1,0,1.4l2.1,2.1
		c0.2,0.2,0.5,0.3,0.7,0.3c0.3,0,0.5-0.1,0.7-0.3l2.1-2.1c0.4-0.4,0.4-1,0-1.4l0,0l-0.7-0.7l-0.7,0.7l-1.3,1.3l-1.3-1.3l-0.7-0.7
		L53.6,38.6L53.6,38.6z"/>
	
		<linearGradient id="SVGID_00000074428981757105026240000005783925417328632471_" gradientUnits="userSpaceOnUse" x1="41.5052" y1="381.8064" x2="62.2532" y2="402.5543" gradientTransform="matrix(1 0 0 -1 0 436)">
		<stop  offset="0" style="stop-color:#009BFF"/>
		<stop  offset="1" style="stop-color:#40D9FF"/>
	</linearGradient>
	<path style="fill:url(#SVGID_00000074428981757105026240000005783925417328632471_);" d="M46.7,51.1c0.4,0.4,1,0.4,1.4,0l2.1-2.1
		c0.2-0.2,0.3-0.5,0.3-0.7c0-0.3-0.1-0.5-0.3-0.7l-2.1-2.1c-0.4-0.4-1-0.4-1.4,0l0,0L46,46.2l0.7,0.7l1.4,1.4l-1.3,1.3L46,50.3
		L46.7,51.1L46.7,51.1z"/>
	
		<linearGradient id="SVGID_00000072964424038189742770000008358958191386686880_" gradientUnits="userSpaceOnUse" x1="50.4552" y1="372.8564" x2="71.2032" y2="393.6044" gradientTransform="matrix(1 0 0 -1 0 436)">
		<stop  offset="0" style="stop-color:#009BFF"/>
		<stop  offset="1" style="stop-color:#40D9FF"/>
	</linearGradient>
	<path style="fill:url(#SVGID_00000072964424038189742770000008358958191386686880_);" d="M59.2,57.9c0.4-0.4,0.4-1,0-1.4l-2.1-2.1
		c-0.2-0.2-0.5-0.3-0.7-0.3c-0.3,0-0.5,0.1-0.7,0.3l-2.1,2.1c-0.4,0.4-0.4,1,0,1.4l0,0l0.7,0.7l0.7-0.7l1.3-1.3l1.3,1.3l0.7,0.7
		L59.2,57.9L59.2,57.9z"/>
	
		<linearGradient id="SVGID_00000181057882318006113790000002259028698832387246_" gradientUnits="userSpaceOnUse" x1="50.4552" y1="372.8564" x2="71.2031" y2="393.6044" gradientTransform="matrix(1 0 0 -1 0 436)">
		<stop  offset="0" style="stop-color:#009BFF"/>
		<stop  offset="1" style="stop-color:#40D9FF"/>
	</linearGradient>
	<path style="fill:url(#SVGID_00000181057882318006113790000002259028698832387246_);" d="M66,45.5c-0.4-0.4-1-0.4-1.4,0l-2.1,2.1
		c-0.2,0.2-0.3,0.5-0.3,0.7c0,0.3,0.1,0.5,0.3,0.7l2.1,2.1c0.4,0.4,1,0.4,1.4,0l0,0l0.7-0.7L66,49.7l-1.3-1.4L66,47l0.7-0.7L66,45.5
		L66,45.5z"/>
	
		<linearGradient id="SVGID_00000033360241485722329710000016072178288964012447_" gradientUnits="userSpaceOnUse" x1="45.9302" y1="377.3814" x2="66.6782" y2="398.1293" gradientTransform="matrix(1 0 0 -1 0 436)">
		<stop  offset="0" style="stop-color:#009BFF"/>
		<stop  offset="1" style="stop-color:#40D9FF"/>
	</linearGradient>
	<path style="fill:url(#SVGID_00000033360241485722329710000016072178288964012447_);" d="M60.1,49.3L60.1,49.3
		C60.1,49.2,60.1,49.2,60.1,49.3c0.2-0.2,0.2-0.3,0.3-0.5c0-0.1,0-0.1,0.1-0.2c0,0,0,0,0-0.1c0-0.3,0-0.5-0.1-0.8l0,0
		c-0.1-0.1-0.1-0.3-0.3-0.4c0,0,0,0-0.1-0.1l0,0l-1-1l-1.8-1.8c-0.3-0.3-0.6-0.4-1-0.4s-0.7,0.1-1,0.4l-1.6,1.9l-1,1l0,0
		c0,0,0,0-0.1,0.1s-0.2,0.3-0.3,0.4l0,0c-0.1,0.2-0.1,0.5-0.1,0.8c0,0,0,0,0,0.1s0,0.1,0.1,0.2s0.1,0.3,0.3,0.4c0,0,0,0,0,0.1l0,0
		l0,0l1,1l1.8,1.8c0.3,0.3,0.6,0.4,1,0.4s0.7-0.1,1-0.4l1.8-1.8L60.1,49.3L60.1,49.3z"/>
	
		<linearGradient id="SVGID_00000027572593852195656210000015621806270940503471_" gradientUnits="userSpaceOnUse" x1="40.9052" y1="382.4064" x2="61.6531" y2="403.1544" gradientTransform="matrix(1 0 0 -1 0 436)">
		<stop  offset="0" style="stop-color:#009BFF"/>
		<stop  offset="1" style="stop-color:#40D9FF"/>
	</linearGradient>
	<path style="fill:url(#SVGID_00000027572593852195656210000015621806270940503471_);" d="M52.4,44.3c0.6-0.6,0.6-1.6,0-2.2
		s-1.6-0.6-2.2,0c-0.6,0.6-0.6,1.6,0,2.2C50.8,44.9,51.8,44.9,52.4,44.3z"/>
	
		<linearGradient id="SVGID_00000081638194480389617870000011351461757658473603_" gradientUnits="userSpaceOnUse" x1="46.0035" y1="377.3081" x2="66.7514" y2="398.0561" gradientTransform="matrix(1 0 0 -1 0 436)">
		<stop  offset="0" style="stop-color:#009BFF"/>
		<stop  offset="1" style="stop-color:#40D9FF"/>
	</linearGradient>
	<path style="fill:url(#SVGID_00000081638194480389617870000011351461757658473603_);" d="M50.2,52.3c-0.6,0.6-0.6,1.6,0,2.2
		c0.6,0.6,1.6,0.6,2.2,0c0.6-0.6,0.6-1.6,0-2.2C51.8,51.6,50.8,51.6,50.2,52.3z"/>
	
		<linearGradient id="SVGID_00000025414738352887053950000000597135551859384463_" gradientUnits="userSpaceOnUse" x1="51.0552" y1="372.2564" x2="71.8032" y2="393.0043" gradientTransform="matrix(1 0 0 -1 0 436)">
		<stop  offset="0" style="stop-color:#009BFF"/>
		<stop  offset="1" style="stop-color:#40D9FF"/>
	</linearGradient>
	<path style="fill:url(#SVGID_00000025414738352887053950000000597135551859384463_);" d="M60.3,52.3c-0.6,0.6-0.6,1.6,0,2.2
		c0.6,0.6,1.6,0.6,2.2,0c0.6-0.6,0.6-1.6,0-2.2C62,51.6,61,51.6,60.3,52.3z"/>
	
		<linearGradient id="SVGID_00000070089591864739282010000003811682842865532830_" gradientUnits="userSpaceOnUse" x1="45.9552" y1="377.3564" x2="66.7032" y2="398.1043" gradientTransform="matrix(1 0 0 -1 0 436)">
		<stop  offset="0" style="stop-color:#009BFF"/>
		<stop  offset="1" style="stop-color:#40D9FF"/>
	</linearGradient>
	<path style="fill:url(#SVGID_00000070089591864739282010000003811682842865532830_);" d="M60.3,42.1c-0.6,0.6-0.6,1.6,0,2.2
		s1.6,0.6,2.2,0c0.6-0.6,0.6-1.6,0-2.2C62,41.5,61,41.5,60.3,42.1z"/>
</g>
<g>
	
		<linearGradient id="SVGID_00000114794376666907675840000005125802489522362240_" gradientUnits="userSpaceOnUse" x1="222.8443" y1="381.8064" x2="243.5923" y2="402.5543" gradientTransform="matrix(1 0 0 -1 0 436)">
		<stop  offset="0" style="stop-color:#009BFF"/>
		<stop  offset="1" style="stop-color:#40D9FF"/>
	</linearGradient>
	<path style="fill:url(#SVGID_00000114794376666907675840000005125802489522362240_);" d="M234.9,38.6c-0.4,0.4-0.4,1,0,1.4l2.1,2.1
		c0.2,0.2,0.5,0.3,0.7,0.3c0.3,0,0.5-0.1,0.7-0.3l2.1-2.1c0.4-0.4,0.4-1,0-1.4l0,0l-0.7-0.7l-0.7,0.7l-1.3,1.3l-1.3-1.3l-0.7-0.7
		L234.9,38.6L234.9,38.6z"/>
	
		<linearGradient id="SVGID_00000088122068444775503520000012479220060433712543_" gradientUnits="userSpaceOnUse" x1="222.8443" y1="381.8064" x2="243.5923" y2="402.5543" gradientTransform="matrix(1 0 0 -1 0 436)">
		<stop  offset="0" style="stop-color:#009BFF"/>
		<stop  offset="1" style="stop-color:#40D9FF"/>
	</linearGradient>
	<path style="fill:url(#SVGID_00000088122068444775503520000012479220060433712543_);" d="M228,51.1c0.4,0.4,1,0.4,1.4,0l2.1-2.1
		c0.2-0.2,0.3-0.5,0.3-0.7c0-0.3-0.1-0.5-0.3-0.7l-2.1-2.1c-0.4-0.4-1-0.4-1.4,0l0,0l-0.7,0.7l0.7,0.7l1.4,1.4l-1.3,1.3l-0.8,0.7
		L228,51.1L228,51.1z"/>
	
		<linearGradient id="SVGID_00000097468650203563953080000013184950888843798199_" gradientUnits="userSpaceOnUse" x1="231.7943" y1="372.8564" x2="252.5423" y2="393.6044" gradientTransform="matrix(1 0 0 -1 0 436)">
		<stop  offset="0" style="stop-color:#009BFF"/>
		<stop  offset="1" style="stop-color:#40D9FF"/>
	</linearGradient>
	<path style="fill:url(#SVGID_00000097468650203563953080000013184950888843798199_);" d="M240.5,57.9c0.4-0.4,0.4-1,0-1.4l-2.1-2.1
		c-0.2-0.2-0.5-0.3-0.7-0.3c-0.3,0-0.5,0.1-0.7,0.3l-2.1,2.1c-0.4,0.4-0.4,1,0,1.4l0,0l0.7,0.7l0.7-0.7l1.3-1.3l1.3,1.3l0.7,0.7
		L240.5,57.9L240.5,57.9z"/>
	
		<linearGradient id="SVGID_00000145054734929611219810000011515291614587093643_" gradientUnits="userSpaceOnUse" x1="231.7943" y1="372.8564" x2="252.5422" y2="393.6044" gradientTransform="matrix(1 0 0 -1 0 436)">
		<stop  offset="0" style="stop-color:#009BFF"/>
		<stop  offset="1" style="stop-color:#40D9FF"/>
	</linearGradient>
	<path style="fill:url(#SVGID_00000145054734929611219810000011515291614587093643_);" d="M247.3,45.5c-0.4-0.4-1-0.4-1.4,0
		l-2.1,2.1c-0.2,0.2-0.3,0.5-0.3,0.7c0,0.3,0.1,0.5,0.3,0.7l2.1,2.1c0.4,0.4,1,0.4,1.4,0l0,0l0.7-0.7l-0.7-0.7l-1.3-1.4l1.3-1.3
		l0.7-0.7L247.3,45.5L247.3,45.5z"/>
	
		<linearGradient id="SVGID_00000045589039361247761700000004254318780118882470_" gradientUnits="userSpaceOnUse" x1="227.2693" y1="377.3814" x2="248.0173" y2="398.1293" gradientTransform="matrix(1 0 0 -1 0 436)">
		<stop  offset="0" style="stop-color:#009BFF"/>
		<stop  offset="1" style="stop-color:#40D9FF"/>
	</linearGradient>
	<path style="fill:url(#SVGID_00000045589039361247761700000004254318780118882470_);" d="M241.4,49.3L241.4,49.3
		C241.4,49.2,241.4,49.2,241.4,49.3c0.2-0.2,0.2-0.3,0.3-0.5c0-0.1,0-0.1,0.1-0.2c0,0,0,0,0-0.1c0-0.3,0-0.5-0.1-0.8l0,0
		c-0.1-0.1-0.1-0.3-0.3-0.4c0,0,0,0-0.1-0.1l0,0l-1-1l-1.8-1.8c-0.3-0.3-0.6-0.4-1-0.4c-0.4,0-0.7,0.1-1,0.4l-1.6,1.9l-1,1l0,0
		c0,0,0,0-0.1,0.1c-0.1,0.1-0.2,0.3-0.3,0.4l0,0c-0.1,0.2-0.1,0.5-0.1,0.8c0,0,0,0,0,0.1s0,0.1,0.1,0.2c0.1,0.1,0.1,0.3,0.3,0.4
		c0,0,0,0,0,0.1l0,0l0,0l1,1l1.8,1.8c0.3,0.3,0.6,0.4,1,0.4c0.4,0,0.7-0.1,1-0.4l1.8-1.8L241.4,49.3L241.4,49.3z"/>
	
		<linearGradient id="SVGID_00000094584429225761189510000017287813244857578113_" gradientUnits="userSpaceOnUse" x1="222.2443" y1="382.4064" x2="242.9922" y2="403.1544" gradientTransform="matrix(1 0 0 -1 0 436)">
		<stop  offset="0" style="stop-color:#009BFF"/>
		<stop  offset="1" style="stop-color:#40D9FF"/>
	</linearGradient>
	<path style="fill:url(#SVGID_00000094584429225761189510000017287813244857578113_);" d="M233.7,44.3c0.6-0.6,0.6-1.6,0-2.2
		c-0.6-0.6-1.6-0.6-2.2,0c-0.6,0.6-0.6,1.6,0,2.2C232.1,44.9,233.1,44.9,233.7,44.3z"/>
	
		<linearGradient id="SVGID_00000102508488169662269980000000565655867445962141_" gradientUnits="userSpaceOnUse" x1="227.3426" y1="377.3081" x2="248.0905" y2="398.0561" gradientTransform="matrix(1 0 0 -1 0 436)">
		<stop  offset="0" style="stop-color:#009BFF"/>
		<stop  offset="1" style="stop-color:#40D9FF"/>
	</linearGradient>
	<path style="fill:url(#SVGID_00000102508488169662269980000000565655867445962141_);" d="M231.5,52.3c-0.6,0.6-0.6,1.6,0,2.2
		c0.6,0.6,1.6,0.6,2.2,0c0.6-0.6,0.6-1.6,0-2.2C233.1,51.6,232.1,51.6,231.5,52.3z"/>
	
		<linearGradient id="SVGID_00000080892525206944041170000016948937124032374158_" gradientUnits="userSpaceOnUse" x1="232.3943" y1="372.2564" x2="253.1423" y2="393.0043" gradientTransform="matrix(1 0 0 -1 0 436)">
		<stop  offset="0" style="stop-color:#009BFF"/>
		<stop  offset="1" style="stop-color:#40D9FF"/>
	</linearGradient>
	<path style="fill:url(#SVGID_00000080892525206944041170000016948937124032374158_);" d="M241.6,52.3c-0.6,0.6-0.6,1.6,0,2.2
		c0.6,0.6,1.6,0.6,2.2,0s0.6-1.6,0-2.2C243.3,51.6,242.3,51.6,241.6,52.3z"/>
	
		<linearGradient id="SVGID_00000005956510960674732810000013526412526678313646_" gradientUnits="userSpaceOnUse" x1="227.2943" y1="377.3564" x2="248.0423" y2="398.1043" gradientTransform="matrix(1 0 0 -1 0 436)">
		<stop  offset="0" style="stop-color:#009BFF"/>
		<stop  offset="1" style="stop-color:#40D9FF"/>
	</linearGradient>
	<path style="fill:url(#SVGID_00000005956510960674732810000013526412526678313646_);" d="M241.6,42.1c-0.6,0.6-0.6,1.6,0,2.2
		c0.6,0.6,1.6,0.6,2.2,0s0.6-1.6,0-2.2C243.3,41.5,242.3,41.5,241.6,42.1z"/>
</g>
<g>
	
		<linearGradient id="SVGID_00000077294943094699915170000015336520489032676789_" gradientUnits="userSpaceOnUse" x1="352.6513" y1="381.8064" x2="373.3993" y2="402.5543" gradientTransform="matrix(1 0 0 -1 0 436)">
		<stop  offset="0" style="stop-color:#009BFF"/>
		<stop  offset="1" style="stop-color:#40D9FF"/>
	</linearGradient>
	<path style="fill:url(#SVGID_00000077294943094699915170000015336520489032676789_);" d="M364.7,38.6c-0.4,0.4-0.4,1,0,1.4l2.1,2.1
		c0.2,0.2,0.5,0.3,0.7,0.3c0.3,0,0.5-0.1,0.7-0.3l2.1-2.1c0.4-0.4,0.4-1,0-1.4l0,0l-0.7-0.7l-0.7,0.7l-1.3,1.3l-1.3-1.3l-0.7-0.7
		L364.7,38.6L364.7,38.6z"/>
	
		<linearGradient id="SVGID_00000050651670573117286170000001282394621920316585_" gradientUnits="userSpaceOnUse" x1="352.6513" y1="381.8064" x2="373.3993" y2="402.5543" gradientTransform="matrix(1 0 0 -1 0 436)">
		<stop  offset="0" style="stop-color:#009BFF"/>
		<stop  offset="1" style="stop-color:#40D9FF"/>
	</linearGradient>
	<path style="fill:url(#SVGID_00000050651670573117286170000001282394621920316585_);" d="M357.8,51.1c0.4,0.4,1,0.4,1.4,0l2.1-2.1
		c0.2-0.2,0.3-0.5,0.3-0.7c0-0.3-0.1-0.5-0.3-0.7l-2.1-2.1c-0.4-0.4-1-0.4-1.4,0l0,0l-0.7,0.7l0.7,0.7l1.4,1.4l-1.3,1.3l-0.8,0.7
		L357.8,51.1L357.8,51.1z"/>
	
		<linearGradient id="SVGID_00000046299798069687984320000014269003434674977208_" gradientUnits="userSpaceOnUse" x1="361.6013" y1="372.8564" x2="382.3493" y2="393.6044" gradientTransform="matrix(1 0 0 -1 0 436)">
		<stop  offset="0" style="stop-color:#009BFF"/>
		<stop  offset="1" style="stop-color:#40D9FF"/>
	</linearGradient>
	<path style="fill:url(#SVGID_00000046299798069687984320000014269003434674977208_);" d="M370.3,57.9c0.4-0.4,0.4-1,0-1.4l-2.1-2.1
		c-0.2-0.2-0.5-0.3-0.7-0.3c-0.3,0-0.5,0.1-0.7,0.3l-2.1,2.1c-0.4,0.4-0.4,1,0,1.4l0,0l0.7,0.7l0.7-0.7l1.3-1.3l1.3,1.3l0.7,0.7
		L370.3,57.9L370.3,57.9z"/>
	
		<linearGradient id="SVGID_00000158748817024046289280000001145200750958960032_" gradientUnits="userSpaceOnUse" x1="361.6013" y1="372.8564" x2="382.3492" y2="393.6044" gradientTransform="matrix(1 0 0 -1 0 436)">
		<stop  offset="0" style="stop-color:#009BFF"/>
		<stop  offset="1" style="stop-color:#40D9FF"/>
	</linearGradient>
	<path style="fill:url(#SVGID_00000158748817024046289280000001145200750958960032_);" d="M377.1,45.5c-0.4-0.4-1-0.4-1.4,0
		l-2.1,2.1c-0.2,0.2-0.3,0.5-0.3,0.7c0,0.3,0.1,0.5,0.3,0.7l2.1,2.1c0.4,0.4,1,0.4,1.4,0l0,0l0.7-0.7l-0.7-0.7l-1.3-1.4l1.3-1.3
		l0.7-0.7L377.1,45.5L377.1,45.5z"/>
	
		<linearGradient id="SVGID_00000119814117029412357500000013023711755510843806_" gradientUnits="userSpaceOnUse" x1="357.0763" y1="377.3814" x2="377.8243" y2="398.1293" gradientTransform="matrix(1 0 0 -1 0 436)">
		<stop  offset="0" style="stop-color:#009BFF"/>
		<stop  offset="1" style="stop-color:#40D9FF"/>
	</linearGradient>
	<path style="fill:url(#SVGID_00000119814117029412357500000013023711755510843806_);" d="M371.2,49.3L371.2,49.3
		C371.2,49.2,371.2,49.2,371.2,49.3c0.2-0.2,0.2-0.3,0.3-0.5c0-0.1,0-0.1,0.1-0.2c0,0,0,0,0-0.1c0-0.3,0-0.5-0.1-0.8l0,0
		c-0.1-0.1-0.1-0.3-0.3-0.4c0,0,0,0-0.1-0.1l0,0l-1-1l-1.8-1.8c-0.3-0.3-0.6-0.4-1-0.4s-0.7,0.1-1,0.4l-1.6,1.9l-1,1l0,0
		c0,0,0,0-0.1,0.1c-0.1,0.1-0.2,0.3-0.3,0.4l0,0c-0.1,0.2-0.1,0.5-0.1,0.8c0,0,0,0,0,0.1s0,0.1,0.1,0.2s0.1,0.3,0.3,0.4
		c0,0,0,0,0,0.1l0,0l0,0l1,1l1.8,1.8c0.3,0.3,0.6,0.4,1,0.4c0.4,0,0.7-0.1,1-0.4l1.8-1.8L371.2,49.3L371.2,49.3z"/>
	
		<linearGradient id="SVGID_00000129200138617038120540000014150593941920609413_" gradientUnits="userSpaceOnUse" x1="352.0513" y1="382.4064" x2="372.7992" y2="403.1544" gradientTransform="matrix(1 0 0 -1 0 436)">
		<stop  offset="0" style="stop-color:#009BFF"/>
		<stop  offset="1" style="stop-color:#40D9FF"/>
	</linearGradient>
	<path style="fill:url(#SVGID_00000129200138617038120540000014150593941920609413_);" d="M363.5,44.3c0.6-0.6,0.6-1.6,0-2.2
		c-0.6-0.6-1.6-0.6-2.2,0s-0.6,1.6,0,2.2S362.9,44.9,363.5,44.3z"/>
	
		<linearGradient id="SVGID_00000100353241566380390110000004590067057358572175_" gradientUnits="userSpaceOnUse" x1="357.1496" y1="377.3081" x2="377.8975" y2="398.0561" gradientTransform="matrix(1 0 0 -1 0 436)">
		<stop  offset="0" style="stop-color:#009BFF"/>
		<stop  offset="1" style="stop-color:#40D9FF"/>
	</linearGradient>
	<path style="fill:url(#SVGID_00000100353241566380390110000004590067057358572175_);" d="M361.3,52.3c-0.6,0.6-0.6,1.6,0,2.2
		c0.6,0.6,1.6,0.6,2.2,0c0.6-0.6,0.6-1.6,0-2.2C362.9,51.6,361.9,51.6,361.3,52.3z"/>
	
		<linearGradient id="SVGID_00000082362380020774533740000007457296917203341467_" gradientUnits="userSpaceOnUse" x1="362.2013" y1="372.2564" x2="382.9493" y2="393.0043" gradientTransform="matrix(1 0 0 -1 0 436)">
		<stop  offset="0" style="stop-color:#009BFF"/>
		<stop  offset="1" style="stop-color:#40D9FF"/>
	</linearGradient>
	<path style="fill:url(#SVGID_00000082362380020774533740000007457296917203341467_);" d="M371.4,52.3c-0.6,0.6-0.6,1.6,0,2.2
		c0.6,0.6,1.6,0.6,2.2,0s0.6-1.6,0-2.2C373.1,51.6,372.1,51.6,371.4,52.3z"/>
	
		<linearGradient id="SVGID_00000093899654920079626620000016904875588725686972_" gradientUnits="userSpaceOnUse" x1="357.1013" y1="377.3564" x2="377.8493" y2="398.1043" gradientTransform="matrix(1 0 0 -1 0 436)">
		<stop  offset="0" style="stop-color:#009BFF"/>
		<stop  offset="1" style="stop-color:#40D9FF"/>
	</linearGradient>
	<path style="fill:url(#SVGID_00000093899654920079626620000016904875588725686972_);" d="M371.4,42.1c-0.6,0.6-0.6,1.6,0,2.2
		c0.6,0.6,1.6,0.6,2.2,0s0.6-1.6,0-2.2C373.1,41.5,372.1,41.5,371.4,42.1z"/>
</g>
</svg>
