<?xml version="1.0" encoding="utf-8"?>
<!-- Generator: Adobe Illustrator 26.3.0, SVG Export Plug-In . SVG Version: 6.00 Build 0)  -->
<svg version="1.1" id="Layer_1" xmlns="http://www.w3.org/2000/svg" xmlns:xlink="http://www.w3.org/1999/xlink" x="0px" y="0px"
	 viewBox="0 0 500 500" style="enable-background:new 0 0 500 500;" xml:space="preserve">
<style type="text/css">
	.st0{fill:#0062FF;}
</style>
<g>
	<path class="st0" d="M250,49.5l32.1-32.1L299.5,0L317,17.5l0.1,0.1c9.6,9.6,9.6,25.3,0,34.9L267.6,102c-4.8,4.8-11.2,7.3-17.6,7.2
		c-6.4,0-12.7-2.4-17.6-7.2l-49.5-49.5c-9.6-9.6-9.6-25.3,0-34.9l0.1-0.1L200.5,0L218,17.5C217.9,17.5,250,49.5,250,49.5z"/>
	<path class="st0" d="M109.2,250c0,6.4-2.4,12.7-7.2,17.6l-49.5,49.5c-9.6,9.6-25.3,9.6-34.9,0l-0.1-0.1L0,299.5L17.5,282l32-32l0,0
		l-32.1-32.1L0,200.5L17.5,183l0.1-0.1c9.6-9.6,25.3-9.6,34.9,0l49.5,49.5C106.9,237.3,109.3,243.6,109.2,250L109.2,250z"/>
	<path class="st0" d="M250,450.5l32.1,32.1l17.5,17.5l17.5-17.5l0.1-0.1c9.6-9.6,9.6-25.3,0-34.9L267.6,398
		c-4.8-4.8-11.2-7.3-17.6-7.2c-6.4,0-12.7,2.4-17.6,7.2l-49.5,49.5c-9.6,9.6-9.6,25.3,0,34.9l0.1,0.1l17.5,17.5l17.5-17.5
		C217.9,482.5,250,450.5,250,450.5z"/>
	<path class="st0" d="M450.5,250l32.1,32.1l17.5,17.5L482.5,317l-0.1,0.1c-9.6,9.6-25.3,9.6-34.9,0L398,267.6
		c-4.8-4.8-7.3-11.2-7.2-17.6l0,0c0-6.4,2.4-12.7,7.2-17.6l49.5-49.5c9.6-9.6,25.3-9.6,34.9,0l0.1,0.1l17.5,17.5L482.5,218
		L450.5,250L450.5,250z"/>
	<path class="st0" d="M349.1,250c0,8.5-3.2,17-9.7,23.5l-66,66c-6.5,6.5-15,9.7-23.5,9.7l0,0c-8.5,0-17-3.2-23.5-9.7l-66-66
		c-6.5-6.5-9.7-15-9.7-23.5s3.2-17,9.7-23.5l66-66c6.5-6.5,15-9.7,23.5-9.7l0,0c8.5,0,17,3.2,23.5,9.7l66,66
		C346,233,349.2,241.5,349.1,250z"/>
	<g>
		<circle class="st0" cx="127.3" cy="127.3" r="38.3"/>
		<circle class="st0" cx="372.7" cy="127.3" r="38.3"/>
		<circle class="st0" cx="127.3" cy="372.7" r="38.3"/>
		<circle class="st0" cx="372.7" cy="372.7" r="38.3"/>
	</g>
</g>
</svg>
